SplineFontDB: 3.2
FontName: Kinnari-Oblique
FullName: Kinnari Oblique
FamilyName: Kinnari
Weight: Regular
Copyright: Copyright (C) 1999 Db Type. All Rights Reserved.\nCopyright (C) 2007 National Electronics and Computer Technology Center. All Rights Reserved.
Version: 003.003
ItalicAngle: -12
UnderlinePosition: -70
UnderlineWidth: 25
Ascent: 800
Descent: 200
InvalidEm: 0
LayerCount: 3
Layer: 0 0 "Back" 1
Layer: 1 0 "Fore" 0
Layer: 2 1 "Quad" 0
FSType: 0
OS2Version: 4
OS2_WeightWidthSlopeOnly: 0
OS2_UseTypoMetrics: 1
CreationTime: 1136287438
ModificationTime: 1782060162
PfmFamily: 17
TTFWeight: 400
TTFWidth: 5
LineGap: 0
VLineGap: 0
Panose: 0 0 0 0 0 0 0 0 0 0
OS2TypoAscent: 1286
OS2TypoAOffset: 0
OS2TypoDescent: -496
OS2TypoDOffset: 0
OS2TypoLinegap: 0
OS2WinAscent: 1286
OS2WinAOffset: 0
OS2WinDescent: 496
OS2WinDOffset: 0
HheadAscent: 1286
HheadAOffset: 0
HheadDescent: -496
HheadDOffset: 0
OS2Vendor: 'PfEd'
Lookup: 4 0 1 "'liga' Standard Ligatures in Latin lookup 2" { "'liga' Standard Ligatures in Latin lookup 2 subtable"  } ['liga' ('latn' <'dflt' > ) ]
Lookup: 6 0 0 "'ccmp' Thai Tone Tilde Reordering" { "'ccmp' Thai Tone Tilde Reordering"  } ['ccmp' ('DFLT' <'dflt' > 'latn' <'dflt' > 'thai' <'KUY ' 'MLY ' 'PAL ' 'SAN ' 'THA ' 'dflt' > ) ]
Lookup: 6 0 0 "'ccmp' Thai Tone Macron Reordering" { "'ccmp' Thai Tone Macron Reordering"  } ['ccmp' ('DFLT' <'dflt' > 'latn' <'dflt' > 'thai' <'KUY ' 'MLY ' 'PAL ' 'SAN ' 'THA ' 'dflt' > ) ]
Lookup: 6 0 0 "'ccmp' Thai Below Vowel Macron Reordering" { "'ccmp' Thai Below Vowel Macron Reordering"  } ['ccmp' ('DFLT' <'dflt' > 'latn' <'dflt' > 'thai' <'KUY ' 'MLY ' 'PAL ' 'SAN ' 'THA ' 'dflt' > ) ]
Lookup: 4 0 0 "'ccmp' Patani Malay Ligatures" { "'ccmp' Patani Malay Ligatures"  } ['ccmp' ('DFLT' <'dflt' > 'thai' <'KUY ' 'MLY ' 'PAL ' 'SAN ' 'THA ' 'dflt' > ) ]
Lookup: 6 0 0 "'ccmp' Thai Conditional Descender Removal" { "'ccmp' Thai Conditional Descender Removal"  } ['ccmp' ('DFLT' <'dflt' > 'thai' <'KUY ' 'MLY ' 'THA ' 'dflt' > ) ]

StartChar: .notdef
Encoding: 0 0 0
Width: 384
Flags: W
HStem: 0 23<28 366> 568 23<144 482>
VStem: 0 384<0 384> 126 384<207 591>
DStem2: 0 0 23.1112 0 0.207912 0.978148<28.3189 585.527> 361.111 0 384 0 0.207912 0.978148<23.5138 580.722>
LayerCount: 3
Fore
SplineSet
144 568 m 1xc0
 28 23 l 1
 366 23 l 1
 482 568 l 1
 144 568 l 1xc0
384 0 m 1xe0
 0 0 l 1xe0
 126 591 l 1
 510 591 l 1xd0
 384 0 l 1xe0
EndSplineSet
Validated: 1
Layer: 2
SplineSet
144 568 m 1,0,-1
 28 23 l 1,1,-1
 366 23 l 1,2,-1
 482 568 l 1,3,-1
 144 568 l 1,0,-1
384 0 m 1,4,-1
 0 0 l 1,5,-1
 126 591 l 1,6,-1
 510 591 l 1,7,-1
 384 0 l 1,4,-1
EndSplineSet
EndChar

StartChar: exclam
Encoding: 33 33 2
Width: 333
Flags: W
HStem: -14 115<138.791 213.785> 656 20G<303 331>
VStem: 117 117<6.78711 79.415> 198 14<177 198.405> 233 118<535.438 636.697>
LayerCount: 3
Fore
SplineSet
351 630 m 0xd0
 351 598 340 572 333 547 c 1
 212 177 l 1
 198 177 l 1
 233 547 l 1
 237 569 242 676 311 676 c 0
 343 676 351 654 351 630 c 0xd0
234 54 m 0xe0
 234 13 194 -14 163 -14 c 0
 138 -14 117 5 117 31 c 0
 117 59 145 101 188 101 c 0
 216 101 234 81 234 54 c 0xe0
EndSplineSet
Validated: 1
Layer: 2
SplineSet
351 630 m 0,0,1
 351 611 351 611 333 547 c 2,2,-1
 212 177 l 1,3,-1
 198 177 l 1,4,-1
 233 547 l 2,5,6
 233 548 233 548 235.5 563.5 c 128,-1,7
 238 579 238 579 240 590.5 c 128,-1,8
 242 602 242 602 248 619.5 c 128,-1,9
 254 637 254 637 261 648 c 128,-1,10
 268 659 268 659 281.5 667.5 c 128,-1,11
 295 676 295 676 311 676 c 0,12,13
 351 676 351 676 351 630 c 0,0,1
234 54 m 0,14,15
 234 25 234 25 211 5.5 c 128,-1,16
 188 -14 188 -14 163 -14 c 0,17,18
 144 -14 144 -14 130.5 -1 c 128,-1,19
 117 12 117 12 117 31 c 0,20,21
 117 55 117 55 137.5 78 c 128,-1,22
 158 101 158 101 188 101 c 0,23,24
 209 101 209 101 221.5 88 c 128,-1,25
 234 75 234 75 234 54 c 0,14,15
EndSplineSet
EndChar

StartChar: numbersign
Encoding: 35 35 4
Width: 499
Flags: W
HStem: 0 21G<78 144.189 272 337.097> 217 53<62 157 235 349 427 516> 404 55<129 227 305 418 496 581> 642 20G<313.709 379 503.709 568>
DStem2: 78 0 137 0 0.344588 0.938754<20.3307 230.932 307.564 430.6 509.11 705.19> 272 0 330 0 0.339575 0.940579<19.6953 230.253 306.59 429.572 507.791 703.822>
LayerCount: 3
Fore
SplineSet
581 404 m 1
 476 404 l 1
 427 270 l 1
 527 270 l 1
 516 217 l 1
 407 217 l 1
 330 0 l 1
 272 0 l 1
 349 217 l 1
 215 217 l 1
 137 0 l 1
 78 0 l 1
 157 217 l 1
 51 217 l 1
 62 270 l 1
 177 270 l 1
 227 404 l 1
 117 404 l 1
 129 459 l 1
 247 459 l 1
 321 662 l 1
 379 662 l 1
 305 459 l 1
 437 459 l 1
 511 662 l 1
 568 662 l 1
 496 459 l 1
 593 459 l 1
 581 404 l 1
418 404 m 1
 286 404 l 1
 235 270 l 1
 369 270 l 1
 418 404 l 1
EndSplineSet
Validated: 1
Layer: 2
SplineSet
581 404 m 1,0,-1
 476 404 l 1,1,-1
 427 270 l 1,2,-1
 527 270 l 1,3,-1
 516 217 l 1,4,-1
 407 217 l 1,5,-1
 330 0 l 1,6,-1
 272 0 l 1,7,-1
 349 217 l 1,8,-1
 215 217 l 1,9,-1
 137 0 l 1,10,-1
 78 0 l 1,11,-1
 157 217 l 1,12,-1
 51 217 l 1,13,-1
 62 270 l 1,14,-1
 177 270 l 1,15,-1
 227 404 l 1,16,-1
 117 404 l 1,17,-1
 129 459 l 1,18,-1
 247 459 l 1,19,-1
 321 662 l 1,20,-1
 379 662 l 1,21,-1
 305 459 l 1,22,-1
 437 459 l 1,23,-1
 511 662 l 1,24,-1
 568 662 l 1,25,-1
 496 459 l 1,26,-1
 593 459 l 1,27,-1
 581 404 l 1,0,-1
418 404 m 1,28,-1
 286 404 l 1,29,-1
 235 270 l 1,30,-1
 369 270 l 1,31,-1
 418 404 l 1,28,-1
EndSplineSet
EndChar

StartChar: dollar
Encoding: 36 36 5
Width: 499
Flags: W
HStem: 0 28<166.292 230 270 320.752> 636 26<322.185 365>
VStem: 83 15<147.296 181> 157 81<456.259 557.734> 211 34<-88 -54> 385 34<693 727> 413 85<129.081 237.511> 516 14<499 530.477>
DStem2: 211 -88 245 -88 0.207912 0.978148<7.069 90.0273 125.732 396.584 506.222 740.197 773.946 833.367>
LayerCount: 3
Fore
SplineSet
498 215 m 0xe3
 498 129 430 13 264 0 c 1
 245 -88 l 1
 211 -88 l 1xeb
 230 0 l 1
 164 0 104 17 56 51 c 1
 83 181 l 1
 98 181 l 1
 98 170 l 2
 98 83 142 29 236 28 c 1
 296 310 l 1
 236 349 157 396 157 479 c 0
 157 564 235 658 371 662 c 1
 385 727 l 1
 419 727 l 1xf5
 405 662 l 1
 461 660 516 645 554 610 c 1
 530 499 l 1
 516 499 l 1
 516 509 l 2
 516 581 474 631 399 636 c 1
 347 390 l 1
 416 348 498 307 498 215 c 0xe3
365 636 m 1
 327 636 238 586 238 512 c 0xf1
 238 461 282 437 317 407 c 1
 365 636 l 1
270 28 m 1
 371 41 413 121 413 177 c 0xe3
 413 233 369 267 326 293 c 1
 270 28 l 1
EndSplineSet
Validated: 1
Layer: 2
SplineSet
498 215 m 0,0,1
 498 140 498 140 438 74.5 c 128,-1,2
 378 9 378 9 264 0 c 1,3,-1
 245 -88 l 1,4,-1
 211 -88 l 1,5,-1
 230 0 l 1,6,7
 128 0 128 0 56 51 c 1,8,-1
 83 181 l 1,9,-1
 98 181 l 1,10,-1
 98 170 l 2,11,12
 98 103 98 103 132.5 66 c 128,-1,13
 167 29 167 29 236 28 c 1,14,-1
 296 310 l 1,15,16
 219.664619561 359.617997285 219.664619561 359.617997285 194.212633854 388.326574555 c 0,17,18
 157 430.300579518 157 430.300579518 157 479 c 0,19,20
 157 548 157 548 215.5 603.5 c 128,-1,21
 274 659 274 659 371 662 c 1,22,-1
 385 727 l 1,23,-1
 419 727 l 1,24,-1
 405 662 l 1,25,26
 501 659 501 659 554 610 c 1,27,-1
 530 499 l 1,28,-1
 516 499 l 1,29,-1
 516 509 l 2,30,31
 516 564 516 564 485 598 c 128,-1,32
 454 632 454 632 399 636 c 1,33,-1
 347 390 l 2,34,35
 350 388 350 388 370 376 c 128,-1,36
 390 364 390 364 394.5 361 c 128,-1,37
 399 358 399 358 416 346.5 c 128,-1,38
 433 335 433 335 438.5 329.5 c 128,-1,39
 444 324 444 324 457 312.5 c 128,-1,40
 470 301 470 301 474.5 291.5 c 128,-1,41
 479 282 479 282 486 269.5 c 128,-1,42
 493 257 493 257 495.5 243.5 c 128,-1,43
 498 230 498 230 498 215 c 0,0,1
365 636 m 1,44,45
 330 636 330 636 284 599 c 128,-1,46
 238 562 238 562 238 512 c 0,47,48
 238 494 238 494 247 477 c 128,-1,49
 256 460 256 460 262.5 453 c 128,-1,50
 269 446 269 446 292 427.5 c 128,-1,51
 315 409 315 409 317 407 c 2,52,-1
 365 636 l 1,44,45
270 28 m 1,53,54
 339 37 339 37 376 82.5 c 128,-1,55
 413 128 413 128 413 177 c 0,56,57
 413 240 413 240 326 293 c 1,58,-1
 270 28 l 1,53,54
EndSplineSet
EndChar

StartChar: percent
Encoding: 37 37 6
Width: 832
Flags: W
HStem: -14 31<550.697 639.426> 287 36<225.954 315.332> 324 32<694.44 784.059> 585 22<506.672 634.608> 633 29<377.009 441.538> 656 20G<696 777>
VStem: 146 72<328.65 455.553> 198 48<-14 34> 469 72<23.167 141.87> 479 23<517.856 592.978> 799 27<201.808 305.978>
DStem2: 198 -14 246 -14 0.609877 0.792496<29.2741 788.478 801.866 870.667>
LayerCount: 3
Fore
SplineSet
417 662 m 0xfac0
 502 662 465 607 565 607 c 0
 625 607 688 633 729 676 c 1
 777 676 l 1xf6c0
 246 -14 l 1
 198 -14 l 1
 680 610 l 1
 638 594 590 585 553 585 c 0
 532 585 515 588 502 593 c 1
 502 589 502 585 502 581 c 0
 502 468 373 287 241 287 c 0
 178 287 146 321 146 380 c 0
 146 515 301 662 417 662 c 0xfac0
573 -14 m 0
 494 -14 469 23 469 74 c 0xf340
 469 208 617 356 741 356 c 0
 799 356 826 316 826 271 c 0
 826 163 693 -14 573 -14 c 0
479 580 m 0xfac0
 479 586 478 593 477 599 c 1
 441 610 433 633 416 633 c 0
 361 633 218 484 218 368 c 0
 218 340 231 323 269 323 c 0
 359 323 479 476 479 580 c 0xfac0
745 324 m 0
 652 324 541 138 541 63 c 0xf340
 541 34 556 17 591 17 c 0
 676 17 799 174 799 263 c 0
 799 295 783 324 745 324 c 0
EndSplineSet
Validated: 1
Layer: 2
SplineSet
417 662 m 0,0,1
 445 662 445 662 462 653.5 c 128,-1,2
 479 645 479 645 485.5 634.5 c 128,-1,3
 492 624 492 624 512 615.5 c 128,-1,4
 532 607 532 607 565 607 c 0,5,6
 663 607 663 607 729 676 c 1,7,-1
 777 676 l 1,8,-1
 246 -14 l 1,9,-1
 198 -14 l 1,10,-1
 680 610 l 1,11,12
 614 585 614 585 553 585 c 0,13,14
 523 585 523 585 502 593 c 1,15,-1
 502 581 l 2,16,17
 502 524 502 524 465 455.5 c 128,-1,18
 428 387 428 387 366 337 c 128,-1,19
 304 287 304 287 241 287 c 0,20,21
 146 287 146 287 146 380 c 0,22,23
 146 479 146 479 237 570.5 c 128,-1,24
 328 662 328 662 417 662 c 0,0,1
573 -14 m 0,25,26
 469 -14 469 -14 469 74 c 0,27,28
 469 174 469 174 558 265 c 128,-1,29
 647 356 647 356 741 356 c 0,30,31
 782 356 782 356 804 331.5 c 128,-1,32
 826 307 826 307 826 271 c 0,33,34
 826 186 826 186 742.5 86 c 128,-1,35
 659 -14 659 -14 573 -14 c 0,25,26
479 580 m 0,36,37
 479 587 479 587 477 599 c 1,38,39
 458 605 458 605 441 619 c 128,-1,40
 424 633 424 633 416 633 c 0,41,42
 388 633 388 633 341 592 c 128,-1,43
 294 551 294 551 256 486.5 c 128,-1,44
 218 422 218 422 218 368 c 0,45,46
 218 323 218 323 269 323 c 0,47,48
 312 323 312 323 362 365.5 c 128,-1,49
 412 408 412 408 445.5 468.5 c 128,-1,50
 479 529 479 529 479 580 c 0,36,37
745 324 m 0,51,52
 702 324 702 324 652.5 274 c 128,-1,53
 603 224 603 224 572 162.5 c 128,-1,54
 541 101 541 101 541 63 c 0,55,56
 541 17 541 17 591 17 c 0,57,58
 653 17 653 17 726 105.5 c 128,-1,59
 799 194 799 194 799 263 c 0,60,61
 799 289 799 289 785.5 306.5 c 128,-1,62
 772 324 772 324 745 324 c 0,51,52
EndSplineSet
EndChar

StartChar: ampersand
Encoding: 38 38 7
Width: 777
Flags: W
HStem: -14 72<583.975 674.381> -14 54<208.489 326.308> 407 18<585 618.914 757.375 797> 644 32<444.07 538.616>
VStem: 69 99<81.7815 191.56> 308 86<417.243 564.303> 559 52<513.714 626.894>
DStem2: 247.5 340 325 343 0.884496 0.466549<-49.7401 69.9481 178.304 332.64>
LayerCount: 3
Fore
SplineSet
505 178 m 1x7e
 567 238 636 324 636 371 c 0
 636 392 622 404 582 407 c 1
 585 425 l 1
 800 425 l 1
 797 407 l 1
 732 399 710 373 673 323 c 1
 622 257 547 174 524 147 c 1
 554 101 591 58 656 58 c 0
 696 58 730 80 758 111 c 1
 771 100 l 1
 708 26 664 -14 596 -14 c 0xbe
 527 -14 482 31 446 78 c 1
 378 25 295 -14 217 -14 c 0
 122 -14 69 27 69 102 c 0
 69 252 249 345 317 376 c 1
 312 406 308 435 308 465 c 0
 308 589 401 676 499 676 c 0
 562 676 611 643 611 583 c 0
 611 504 543 433 418 384 c 1
 439 312 468 243 505 178 c 1x7e
409 416 m 1
 490 451 559 513 559 577 c 0
 559 614 535 644 496 644 c 0
 425 644 394 575 394 517 c 0
 394 482 402 442 409 416 c 1
426 104 m 1
 382 177 351 260 325 343 c 1
 308 334 168 265 168 147 c 0
 168 89 212 40 272 40 c 0x7e
 313 40 376 68 426 104 c 1
EndSplineSet
Validated: 1
Layer: 2
SplineSet
505 178 m 1,0,1
 558 229 558 229 597 283.5 c 128,-1,2
 636 338 636 338 636 371 c 0,3,4
 636 403 636 403 582 407 c 1,5,-1
 585 425 l 1,6,-1
 800 425 l 1,7,-1
 797 407 l 1,8,9
 752 401 752 401 728.5 383.5 c 128,-1,10
 705 366 705 366 673 323 c 0,11,12
 650 294 650 294 619.5 258 c 128,-1,13
 589 222 589 222 558 186.5 c 128,-1,14
 527 151 527 151 524 147 c 1,15,16
 551 105 551 105 581.5 81.5 c 128,-1,17
 612 58 612 58 656 58 c 0,18,19
 710 58 710 58 758 111 c 1,20,-1
 771 100 l 1,21,22
 719 39 719 39 681.5 12.5 c 128,-1,23
 644 -14 644 -14 596 -14 c 0,24,25
 516 -14 516 -14 446 78 c 1,26,27
 328 -14 328 -14 217 -14 c 0,28,29
 146 -14 146 -14 107.5 16 c 128,-1,30
 69 46 69 46 69 102 c 0,31,32
 69 154 69 154 96.5 202 c 128,-1,33
 124 250 124 250 169 285 c 128,-1,34
 214 320 214 320 247.5 340 c 128,-1,35
 281 360 281 360 317 376 c 1,36,37
 308 430 308 430 308 465 c 0,38,39
 308 555 308 555 365.5 615.5 c 128,-1,40
 423 676 423 676 499 676 c 0,41,42
 548 676 548 676 579.5 651.5 c 128,-1,43
 611 627 611 627 611 583 c 0,44,45
 611 524 611 524 561 472.5 c 128,-1,46
 511 421 511 421 418 384 c 1,47,48
 450 275 450 275 505 178 c 1,0,1
409 416 m 1,49,50
 473 444 473 444 516 487.5 c 128,-1,51
 559 531 559 531 559 577 c 0,52,53
 559 606 559 606 542 625 c 128,-1,54
 525 644 525 644 496 644 c 0,55,56
 447 644 447 644 420.5 605 c 128,-1,57
 394 566 394 566 394 517 c 0,58,59
 394 472 394 472 409 416 c 1,49,50
426 104 m 1,60,61
 372 194 372 194 325 343 c 1,62,63
 168 260 168 260 168 147 c 0,64,65
 168 103 168 103 198 71.5 c 128,-1,66
 228 40 228 40 272 40 c 0,67,68
 337 40 337 40 426 104 c 1,60,61
EndSplineSet
EndChar

StartChar: quotesingle
Encoding: 39 39 8
Width: 179
Flags: W
HStem: 444 240
VStem: 184 88<591.75 675.501>
LayerCount: 3
Fore
SplineSet
270 641 m 2
 194 444 l 1
 174 444 l 1
 184 641 l 1
 184 641 191 684 236 684 c 0
 255 684 272 668 272 651 c 0
 272 648 271 644 270 641 c 2
EndSplineSet
Validated: 1
Layer: 2
SplineSet
270 641 m 2,0,-1
 194 444 l 1,1,-1
 174 444 l 1,2,-1
 184 641 l 2,3,4
 184 643 184 643 185 646 c 128,-1,5
 186 649 186 649 189.5 656 c 128,-1,6
 193 663 193 663 198 669 c 128,-1,7
 203 675 203 675 213 679.5 c 128,-1,8
 223 684 223 684 236 684 c 0,9,10
 250 684 250 684 261 674 c 128,-1,11
 272 664 272 664 272 651 c 0,12,13
 272 647 272 647 270 641 c 2,0,-1
EndSplineSet
EndChar

StartChar: parenleft
Encoding: 40 40 9
Width: 333
Flags: W
HStem: 656 20G<397 444>
VStem: 92 76<15.3348 262.416>
LayerCount: 3
Fore
SplineSet
270 -161 m 1
 254 -177 l 1
 165 -107 92 -2 92 148 c 0
 92 277 145 516 439 676 c 1
 444 659 l 1
 291 567 224 424 191 269 c 0
 178 206 168 145 168 88 c 0
 168 -4 193 -87 270 -161 c 1
EndSplineSet
Validated: 1
Layer: 2
SplineSet
270 -161 m 1,0,-1
 254 -177 l 1,1,2
 92 -50 92 -50 92 148 c 0,3,4
 92 192 92 192 99.5 237.5 c 128,-1,5
 107 283 107 283 130 343.5 c 128,-1,6
 153 404 153 404 189.5 458.5 c 128,-1,7
 226 513 226 513 290.5 571.5 c 128,-1,8
 355 630 355 630 439 676 c 1,9,-1
 444 659 l 1,10,11
 249 542 249 542 191 269 c 0,12,13
 168 158 168 158 168 88 c 0,14,15
 168 -63 168 -63 270 -161 c 1,0,-1
EndSplineSet
EndChar

StartChar: parenright
Encoding: 41 41 10
Width: 333
Flags: W
HStem: 656 20G<169 193>
VStem: 272 74<235.732 486.16>
LayerCount: 3
Fore
SplineSet
346 346 m 0
 346 86 161 -93 0 -177 c 1
 -5 -161 l 1
 150 -68 216 74 249 229 c 0
 262 293 272 356 272 415 c 0
 272 510 247 595 169 659 c 1
 185 676 l 1
 215 659 346 552 346 346 c 0
EndSplineSet
Validated: 1
Layer: 2
SplineSet
346 346 m 0,0,1
 346 253 346 253 315.5 167.5 c 128,-1,2
 285 82 285 82 233 17.5 c 128,-1,3
 181 -47 181 -47 123 -95 c 128,-1,4
 65 -143 65 -143 0 -177 c 1,5,-1
 -5 -161 l 1,6,7
 69 -116 69 -116 122 -52 c 128,-1,8
 175 12 175 12 203 78.5 c 128,-1,9
 231 145 231 145 249 229 c 0,10,11
 272 342 272 342 272 415 c 0,12,13
 272 574 272 574 169 659 c 1,14,-1
 185 676 l 1,15,16
 201 667 201 667 223.5 645 c 128,-1,17
 246 623 246 623 276 583.5 c 128,-1,18
 306 544 306 544 326 481 c 128,-1,19
 346 418 346 418 346 346 c 0,0,1
EndSplineSet
EndChar

StartChar: asterisk
Encoding: 42 42 11
Width: 499
Flags: W
HStem: 346 76<429.997 503.717> 351 81<157.687 217.169> 502 79<480.137 537.496> 522 74<194.183 266.223> 663 20G<388.5 412.5>
VStem: 269 71<272.736 371.274> 354 74<566.889 676.755> 426 87<353.629 410.383>
LayerCount: 3
Fore
SplineSet
186 549 m 0xb8
 186 573 208 596 232 596 c 0
 253 596 270 578 272 564 c 0
 276 544 313 511 343 482 c 1
 352 522 354 553 354 577 c 0
 354 610 350 630 350 641 c 0
 350 658 373 683 397 683 c 0
 417 683 428 669 428 649 c 0xba
 428 635 420 616 410 607 c 0
 392 590 377 536 360 482 c 1
 417 505 459 539 495 573 c 1
 503 578 513 581 524 581 c 0
 542 581 554 571 554 555 c 0
 554 537 538 502 489 502 c 0
 460 502 425 486 365 467 c 1
 471 404 513 436 513 391 c 0
 513 363 486 346 467 346 c 0
 446 346 428 363 426 378 c 0xd1
 423 398 384 430 354 458 c 1
 348 434 l 1
 342 405 340 380 340 360 c 0
 340 336 343 318 343 308 c 0
 343 285 320 265 300 265 c 0
 289 265 269 272 269 296 c 0xd6
 269 305 274 329 286 341 c 0
 303 358 321 412 338 458 c 1
 220 394 212 351 177 351 c 0
 158 351 145 363 145 381 c 0
 145 404 170 432 212 432 c 0
 234 432 263 440 332 470 c 1
 290 499 247 513 205 522 c 0
 193 524 186 536 186 549 c 0xb8
EndSplineSet
Validated: 1
Layer: 2
SplineSet
186 549 m 0,0,1
 186 567 186 567 200 581.5 c 128,-1,2
 214 596 214 596 232 596 c 0,3,4
 247 596 247 596 258.5 585.5 c 128,-1,5
 270 575 270 575 272 564 c 0,6,7
 275 547 275 547 343 482 c 1,8,9
 354 531 354 531 354 577 c 0,10,11
 354 596 354 596 352 617 c 128,-1,12
 350 638 350 638 350 641 c 0,13,14
 350 654 350 654 365 668.5 c 128,-1,15
 380 683 380 683 397 683 c 0,16,17
 428 683 428 683 428 649 c 0,18,19
 428 623 428 623 410 607 c 0,20,21
 395 593 395 593 360 482 c 1,22,23
 427 509 427 509 495 573 c 0,24,25
 508 581 508 581 524 581 c 0,26,27
 554 581 554 581 554 555 c 0,28,29
 554 537 554 537 538 519.5 c 128,-1,30
 522 502 522 502 489 502 c 0,31,32
 476 502 476 502 461 498.5 c 128,-1,33
 446 495 446 495 413.5 483.5 c 128,-1,34
 381 472 381 472 365 467 c 1,35,36
 400 446 400 446 432 435 c 128,-1,37
 464 424 464 424 479.5 422 c 128,-1,38
 495 420 495 420 504 413.5 c 128,-1,39
 513 407 513 407 513 391 c 0,40,41
 513 371 513 371 498 358.5 c 128,-1,42
 483 346 483 346 467 346 c 0,43,44
 452 346 452 346 440 356 c 128,-1,45
 428 366 428 366 426 378 c 0,46,47
 425 384 425 384 420.5 391 c 128,-1,48
 416 398 416 398 407 407.5 c 128,-1,49
 398 417 398 417 392 423 c 128,-1,50
 386 429 386 429 372.5 441.5 c 128,-1,51
 359 454 359 454 354 458 c 1,52,-1
 348 434 l 2,53,54
 340 395 340 395 340 360 c 0,55,56
 340 346 340 346 341.5 328.5 c 128,-1,57
 343 311 343 311 343 308 c 0,58,59
 343 291 343 291 329.5 278 c 128,-1,60
 316 265 316 265 300 265 c 0,61,62
 289 265 289 265 279 272.5 c 128,-1,63
 269 280 269 280 269 296 c 0,64,65
 269 324 269 324 286 341 c 0,66,67
 300 355 300 355 338 458 c 1,68,69
 289 431 289 431 254.5 403 c 128,-1,70
 220 375 220 375 205.5 363 c 128,-1,71
 191 351 191 351 177 351 c 128,-1,72
 163 351 163 351 154 359.5 c 128,-1,73
 145 368 145 368 145 381 c 0,74,75
 145 400 145 400 163.5 416 c 128,-1,76
 182 432 182 432 212 432 c 0,77,78
 245 432 245 432 332 470 c 1,79,80
 280 506 280 506 205 522 c 0,81,82
 186 525 186 525 186 549 c 0,0,1
EndSplineSet
EndChar

StartChar: plus
Encoding: 43 43 12
Width: 563
Flags: W
HStem: 238 65<95 301 377 584>
VStem: 254 63<17 80> 361 63<458 521>
DStem2: 254 17 317 17 0.207912 0.978148<13.0984 225.942 305.323 515.233>
LayerCount: 3
Fore
SplineSet
584 238 m 1
 364 238 l 1
 317 17 l 1
 254 17 l 1
 301 238 l 1
 82 238 l 1
 95 303 l 1
 314 303 l 1
 361 521 l 1
 424 521 l 1
 377 303 l 1
 597 303 l 1
 584 238 l 1
EndSplineSet
Validated: 1
Layer: 2
SplineSet
584 238 m 1,0,-1
 364 238 l 1,1,-1
 317 17 l 1,2,-1
 254 17 l 1,3,-1
 301 238 l 1,4,-1
 82 238 l 1,5,-1
 95 303 l 1,6,-1
 314 303 l 1,7,-1
 361 521 l 1,8,-1
 424 521 l 1,9,-1
 377 303 l 1,10,-1
 597 303 l 1,11,-1
 584 238 l 1,0,-1
EndSplineSet
EndChar

StartChar: comma
Encoding: 44 44 13
Width: 250
Flags: W
HStem: 5 121<94.3517 145.851>
VStem: 53 154<9.89294 100.563>
LayerCount: 3
Fore
SplineSet
53 44 m 0
 53 67 70 126 138 126 c 0
 189 126 207 88 207 47 c 0
 207 -51 94 -125 43 -146 c 1
 35 -118 l 1
 79 -100 138 -41 146 -6 c 0
 147 0 150 5 144 5 c 0
 137 5 127 -3 110 -3 c 0
 76 -3 53 15 53 44 c 0
EndSplineSet
Validated: 1
Layer: 2
SplineSet
53 44 m 0,0,1
 53 70 53 70 73 98 c 128,-1,2
 93 126 93 126 138 126 c 0,3,4
 174 126 174 126 190.5 103.5 c 128,-1,5
 207 81 207 81 207 47 c 128,-1,6
 207 13 207 13 189 -20.5 c 128,-1,7
 171 -54 171 -54 143.5 -78.5 c 128,-1,8
 116 -103 116 -103 90.5 -120 c 128,-1,9
 65 -137 65 -137 43 -146 c 1,10,-1
 35 -118 l 1,11,12
 68 -104 68 -104 104 -68 c 128,-1,13
 140 -32 140 -32 146 -6 c 0,14,15
 148 5 148 5 144 5 c 0,16,17
 142 5 142 5 131 1 c 128,-1,18
 120 -3 120 -3 110 -3 c 0,19,20
 84 -3 84 -3 68.5 9.5 c 128,-1,21
 53 22 53 22 53 44 c 0,0,1
EndSplineSet
EndChar

StartChar: hyphen
Encoding: 45 45 14
Width: 333
Flags: W
HStem: 238 63<107 340>
VStem: 94 259
LayerCount: 3
Fore
SplineSet
340 238 m 1
 94 238 l 1
 107 301 l 1
 353 301 l 1
 340 238 l 1
EndSplineSet
Validated: 1
Layer: 2
SplineSet
340 238 m 1,0,-1
 94 238 l 1,1,-1
 107 301 l 1,2,-1
 353 301 l 1,3,-1
 340 238 l 1,0,-1
EndSplineSet
EndChar

StartChar: period
Encoding: 46 46 15
Width: 250
Flags: W
HStem: -12 144<97.7134 179.287>
VStem: 65 147<20.7578 99.6014>
LayerCount: 3
Fore
SplineSet
65 44 m 0
 65 91 109 132 154 132 c 0
 189 132 212 108 212 75 c 0
 212 29 167 -12 123 -12 c 0
 89 -12 65 12 65 44 c 0
EndSplineSet
Validated: 1
Layer: 2
SplineSet
65 44 m 0,0,1
 65 79 65 79 92.5 105.5 c 128,-1,2
 120 132 120 132 154 132 c 0,3,4
 180 132 180 132 196 116 c 128,-1,5
 212 100 212 100 212 75 c 0,6,7
 212 41 212 41 184.5 14.5 c 128,-1,8
 157 -12 157 -12 123 -12 c 0,9,10
 98 -12 98 -12 81.5 4 c 128,-1,11
 65 20 65 20 65 44 c 0,0,1
EndSplineSet
EndChar

StartChar: slash
Encoding: 47 47 16
Width: 278
Flags: W
HStem: 662 20G<374.367 448>
DStem2: -35 -108 28 -108 0.469428 0.882971<29.5739 894.707>
LayerCount: 3
Fore
SplineSet
448 682 m 1
 28 -108 l 1
 -35 -108 l 1
 385 682 l 1
 448 682 l 1
EndSplineSet
Validated: 1
Layer: 2
SplineSet
448 682 m 1,0,-1
 28 -108 l 1,1,-1
 -35 -108 l 1,2,-1
 385 682 l 1,3,-1
 448 682 l 1,0,-1
EndSplineSet
EndChar

StartChar: zero
Encoding: 48 48 17
Width: 537
Flags: W
HStem: -14 28<225.425 326.906> 650 26<360.852 449.659>
VStem: 97 87<80.8391 314.556> 489 89<336.915 580.375>
LayerCount: 3
Fore
SplineSet
578 457 m 0
 578 266 466 -14 258 -14 c 0
 150 -14 97 75 97 204 c 0
 97 378 199 676 410 676 c 0
 525 676 578 587 578 457 c 0
465 326 m 0
 480 396 489 462 489 515 c 0
 489 597 467 650 410 650 c 0
 298 650 240 481 205 313 c 0
 193 255 184 197 184 148 c 0
 184 70 206 14 272 14 c 0
 385 14 433 172 465 326 c 0
EndSplineSet
Validated: 1
Layer: 2
SplineSet
578 457 m 0,0,1
 578 383 578 383 556.5 302.5 c 128,-1,2
 535 222 535 222 496.5 150.5 c 128,-1,3
 458 79 458 79 395 32.5 c 128,-1,4
 332 -14 332 -14 258 -14 c 0,5,6
 179 -14 179 -14 138 45 c 128,-1,7
 97 104 97 104 97 204 c 0,8,9
 97 258 97 258 109 320 c 128,-1,10
 121 382 121 382 147 445.5 c 128,-1,11
 173 509 173 509 208.5 560 c 128,-1,12
 244 611 244 611 296.5 643.5 c 128,-1,13
 349 676 349 676 410 676 c 0,14,15
 494 676 494 676 536 617 c 128,-1,16
 578 558 578 558 578 457 c 0,0,1
465 326 m 0,17,18
 489 438 489 438 489 515 c 0,19,20
 489 650 489 650 410 650 c 0,21,22
 275 650 275 650 205 313 c 0,23,24
 184 212 184 212 184 148 c 0,25,26
 184 14 184 14 272 14 c 0,27,28
 312 14 312 14 344.5 39.5 c 128,-1,29
 377 65 377 65 399.5 113.5 c 128,-1,30
 422 162 422 162 436.5 211 c 128,-1,31
 451 260 451 260 465 326 c 0,17,18
EndSplineSet
EndChar

StartChar: one
Encoding: 49 49 18
Width: 537
Flags: W
HStem: 0 14<144 196.521 366.243 415> 656 20G<421.701 460.738>
VStem: 141 324
DStem2: 234.77 0 321.312 0 0.207912 0.978148<77.8778 571.469>
LayerCount: 3
Fore
SplineSet
415 0 m 1
 141 0 l 1
 144 14 l 1
 225 18 243 37 252 80 c 2
 347 528 l 2
 350 541 351 552 351 560 c 0
 351 580 344 587 329 587 c 0
 313 587 287 577 252 565 c 1
 255 579 l 1
 465 676 l 1
 338 80 l 2
 336 72 335 65 335 58 c 0
 335 30 354 17 418 14 c 1
 415 0 l 1
EndSplineSet
Validated: 1
Layer: 2
SplineSet
415 0 m 1,0,-1
 141 0 l 1,1,-1
 144 14 l 1,2,3
 202 17 202 17 223.5 31.5 c 128,-1,4
 245 46 245 46 252 80 c 2,5,-1
 347 528 l 2,6,7
 351 545 351 545 351 560 c 0,8,9
 351 587 351 587 329 587 c 0,10,11
 316 587 316 587 252 565 c 1,12,-1
 255 579 l 1,13,-1
 465 676 l 1,14,-1
 338 80 l 2,15,16
 335 68 335 68 335 58 c 0,17,18
 335 36 335 36 353 26 c 128,-1,19
 371 16 371 16 418 14 c 1,20,-1
 415 0 l 1,0,-1
EndSplineSet
EndChar

StartChar: two
Encoding: 50 50 19
Width: 537
Flags: W
HStem: 0 77<167 442> 604 72<311.348 424.546>
VStem: 463 94<442.928 565.52>
DStem2: 57 14 167 77 0.758221 0.651997<124.48 421.583>
LayerCount: 3
Fore
SplineSet
527 137 m 1
 442 0 l 1
 54 0 l 1
 57 14 l 1
 264 192 l 1
 328 249 463 375 463 497 c 0
 463 563 421 604 346 604 c 0
 268 604 215 539 176 473 c 1
 156 479 l 1
 200 593 291 676 413 676 c 0
 498 676 557 618 557 538 c 0
 557 420 452 320 362 243 c 2
 167 77 l 1
 380 77 l 2
 454 77 462 80 515 143 c 1
 527 137 l 1
EndSplineSet
Validated: 1
Layer: 2
SplineSet
527 137 m 1,0,-1
 442 0 l 1,1,-1
 54 0 l 1,2,-1
 57 14 l 1,3,-1
 264 192 l 1,4,5
 463 369 463 369 463 497 c 0,6,7
 463 547 463 547 432.5 575.5 c 128,-1,8
 402 604 402 604 346 604 c 0,9,10
 253 604 253 604 176 473 c 1,11,-1
 156 479 l 1,12,13
 190 568 190 568 257.5 622 c 128,-1,14
 325 676 325 676 413 676 c 0,15,16
 476 676 476 676 516.5 637 c 128,-1,17
 557 598 557 598 557 538 c 0,18,19
 557 496 557 496 540.5 454.5 c 128,-1,20
 524 413 524 413 492 374 c 128,-1,21
 460 335 460 335 431.5 306.5 c 128,-1,22
 403 278 403 278 362 243 c 2,23,-1
 167 77 l 1,24,-1
 380 77 l 2,25,26
 436 77 436 77 456 86.5 c 128,-1,27
 476 96 476 96 515 143 c 1,28,-1
 527 137 l 1,0,-1
EndSplineSet
EndChar

StartChar: three
Encoding: 51 51 20
Width: 537
Flags: W
HStem: -14 36<128 295.312> 616 60<312.41 427.382>
VStem: 423 82<163.38 284.565> 452 86<497.29 592>
LayerCount: 3
Fore
SplineSet
505 270 m 0xf0
 505 100 349 -14 180 -14 c 0
 144 -14 76 -11 76 33 c 0
 76 57 94 77 120 77 c 0
 170 77 192 22 252 22 c 0
 351 22 423 114 423 218 c 0xf0
 423 295 369 330 247 330 c 1
 248 344 l 1
 434 398 452 498 452 536 c 0
 452 585 418 616 363 616 c 0
 297 616 243 579 192 511 c 1
 178 516 l 1
 231 616 313 676 408 676 c 0
 497 676 538 636 538 576 c 0xe8
 538 472 440 418 412 402 c 1
 474 374 505 334 505 270 c 0xf0
EndSplineSet
Validated: 1
Layer: 2
SplineSet
505 270 m 0,0,1
 505 146 505 146 408 66 c 128,-1,2
 311 -14 311 -14 180 -14 c 0,3,4
 76 -14 76 -14 76 33 c 0,5,6
 76 51 76 51 88.5 64 c 128,-1,7
 101 77 101 77 120 77 c 0,8,9
 144 77 144 77 182.5 49.5 c 128,-1,10
 221 22 221 22 252 22 c 0,11,12
 325 22 325 22 374 80 c 128,-1,13
 423 138 423 138 423 218 c 0,14,15
 423 276 423 276 380.5 303 c 128,-1,16
 338 330 338 330 247 330 c 1,17,-1
 248 344 l 1,18,19
 313 363 313 363 357.5 390.5 c 128,-1,20
 402 418 402 418 420.5 447 c 128,-1,21
 439 476 439 476 445.5 496.5 c 128,-1,22
 452 517 452 517 452 536 c 0,23,24
 452 573 452 573 428 594.5 c 128,-1,25
 404 616 404 616 363 616 c 0,26,27
 271 616 271 616 192 511 c 1,28,-1
 178 516 l 1,29,30
 218 592 218 592 278 634 c 128,-1,31
 338 676 338 676 408 676 c 0,32,33
 473 676 473 676 505.5 649.5 c 128,-1,34
 538 623 538 623 538 576 c 0,35,36
 538 474 538 474 412 402 c 1,37,38
 505 360 505 360 505 270 c 0,0,1
EndSplineSet
EndChar

StartChar: four
Encoding: 52 52 21
Width: 537
Flags: W
HStem: 0 21G<315 396.192> 167 63<123 350 441 528> 656 20G<471.749 536>
VStem: 315 77<0 77>
DStem2: 83 230 123 230 0.674073 0.738665<26.9629 489.094> 315 0 392 0 0.207912 0.978148<16.0092 170.628 251.171 582.701>
LayerCount: 3
Fore
SplineSet
528 167 m 1
 427 167 l 1
 392 0 l 1
 315 0 l 1
 350 167 l 1
 69 167 l 1
 83 230 l 1
 490 676 l 1
 536 676 l 1
 441 230 l 1
 542 230 l 1
 528 167 l 1
364 230 m 1
 436 570 l 1
 123 230 l 1
 364 230 l 1
EndSplineSet
Validated: 1
Layer: 2
SplineSet
528 167 m 1,0,-1
 427 167 l 1,1,-1
 392 0 l 1,2,-1
 315 0 l 1,3,-1
 350 167 l 1,4,-1
 69 167 l 1,5,-1
 83 230 l 1,6,-1
 490 676 l 1,7,-1
 536 676 l 1,8,-1
 441 230 l 1,9,-1
 542 230 l 1,10,-1
 528 167 l 1,0,-1
364 230 m 1,11,-1
 436 570 l 1,12,-1
 123 230 l 1,13,-1
 364 230 l 1,11,-1
EndSplineSet
EndChar

StartChar: five
Encoding: 53 53 22
Width: 537
Flags: W
HStem: -14 36<120.5 289.87> 582 80<338 537>
VStem: 425 81<181.895 317.999>
DStem2: 178 424 269 498 0.557915 0.829898<112.183 214.811>
LayerCount: 3
Fore
SplineSet
245 22 m 0
 359 22 425 152 425 240 c 0
 425 362 299 405 188 412 c 0
 179 413 175 418 178 424 c 2
 338 662 l 1
 534 662 l 2
 565 662 573 662 598 687 c 1
 606 680 l 1
 537 582 l 1
 328 582 l 1
 269 498 l 1
 400 476 506 439 506 303 c 0
 506 105 345 -14 177 -14 c 0
 138 -14 64 -11 64 37 c 0
 64 68 88 84 118 84 c 0
 181 84 191 22 245 22 c 0
EndSplineSet
Validated: 1
Layer: 2
SplineSet
245 22 m 0,0,1
 324 22 324 22 374.5 93.5 c 128,-1,2
 425 165 425 165 425 240 c 0,3,4
 425 284 425 284 404 317 c 128,-1,5
 383 350 383 350 347.5 369.5 c 128,-1,6
 312 389 312 389 272.5 399 c 128,-1,7
 233 409 233 409 188 412 c 0,8,9
 173 414 173 414 178 424 c 2,10,-1
 338 662 l 1,11,-1
 534 662 l 2,12,13
 559 662 559 662 569.5 665.5 c 128,-1,14
 580 669 580 669 598 687 c 1,15,-1
 606 680 l 1,16,-1
 537 582 l 1,17,-1
 328 582 l 1,18,-1
 269 498 l 1,19,20
 324 489 324 489 362 477 c 128,-1,21
 400 465 400 465 435.5 443.5 c 128,-1,22
 471 422 471 422 488.5 387 c 128,-1,23
 506 352 506 352 506 303 c 0,24,25
 506 161 506 161 408 73.5 c 128,-1,26
 310 -14 310 -14 177 -14 c 0,27,28
 64 -14 64 -14 64 37 c 0,29,30
 64 59 64 59 79 71.5 c 128,-1,31
 94 84 94 84 118 84 c 0,32,33
 151 84 151 84 185 53 c 128,-1,34
 219 22 219 22 245 22 c 0,0,1
EndSplineSet
EndChar

StartChar: six
Encoding: 54 54 23
Width: 537
Flags: W
HStem: -14 28<248.945 353.565> 382 45<300.446 412.494> 657.5 20.5<540.411 611>
VStem: 106 88<78.7706 294.611> 448 95<166.275 345.931>
LayerCount: 3
Fore
SplineSet
543 281 m 0
 543 135 433 -14 283 -14 c 0
 179 -14 106 58 106 186 c 0
 106 391 271 635 553 674 c 0
 571 676 587 682 613 682 c 1
 611 664 l 1
 578 656 548 653 510 636 c 0
 412 594 305 518 256 382 c 1
 301 410 348 427 395 427 c 0
 491 427 543 373 543 281 c 0
304 14 m 0
 393 14 448 144 448 255 c 0
 448 322 425 382 348 382 c 0
 314 382 276 370 244 350 c 1
 213 324 194 209 194 158 c 0
 194 72 229 14 304 14 c 0
EndSplineSet
Validated: 1
Layer: 2
SplineSet
543 281 m 0,0,1
 543 167 543 167 467.5 76.5 c 128,-1,2
 392 -14 392 -14 283 -14 c 0,3,4
 203 -14 203 -14 154.5 39 c 128,-1,5
 106 92 106 92 106 186 c 0,6,7
 106 291 106 291 157.5 394 c 128,-1,8
 209 497 209 497 313.5 576 c 128,-1,9
 418 655 418 655 553 674 c 0,10,11
 556 674 556 674 577 678 c 128,-1,12
 598 682 598 682 613 682 c 1,13,-1
 611 664 l 1,14,15
 604 662 604 662 581.5 657.5 c 128,-1,16
 559 653 559 653 543 648.5 c 128,-1,17
 527 644 527 644 510 636 c 0,18,19
 318 554 318 554 256 382 c 1,20,21
 328 427 328 427 395 427 c 0,22,23
 466 427 466 427 504.5 388.5 c 128,-1,24
 543 350 543 350 543 281 c 0,0,1
304 14 m 0,25,26
 367 14 367 14 407.5 89.5 c 128,-1,27
 448 165 448 165 448 255 c 0,28,29
 448 382 448 382 348 382 c 0,30,31
 295 382 295 382 244 350 c 1,32,33
 223 332 223 332 208.5 268 c 128,-1,34
 194 204 194 204 194 158 c 0,35,36
 194 91 194 91 221.5 52.5 c 128,-1,37
 249 14 249 14 304 14 c 0,25,26
EndSplineSet
EndChar

StartChar: seven
Encoding: 55 55 24
Width: 537
Flags: W
HStem: -14 21G<191 265.741> 587 75<244 518>
DStem2: 191 -14 255 -14 0.473146 0.880984<30.2813 684.19>
LayerCount: 3
Fore
SplineSet
610 647 m 1
 255 -14 l 1
 191 -14 l 1
 518 587 l 1
 312 587 l 2
 239 587 219 568 168 507 c 1
 152 515 l 1
 244 662 l 1
 613 662 l 1
 610 647 l 1
EndSplineSet
Validated: 1
Layer: 2
SplineSet
610 647 m 1,0,-1
 255 -14 l 1,1,-1
 191 -14 l 1,2,-1
 518 587 l 1,3,-1
 312 587 l 2,4,5
 260 587 260 587 234.5 571.5 c 128,-1,6
 209 556 209 556 168 507 c 1,7,-1
 152 515 l 1,8,-1
 244 662 l 1,9,-1
 613 662 l 1,10,-1
 610 647 l 1,0,-1
EndSplineSet
EndChar

StartChar: eight
Encoding: 56 56 25
Width: 537
Flags: W
HStem: -14 25<227.879 338.392> 650 26<345.121 454.436>
VStem: 105 77<44.4101 200.953> 190 82<459.138 569.794> 419 83<103.785 218.113> 492 70<489.974 624.762>
LayerCount: 3
Fore
SplineSet
502 189 m 0xf8
 502 75 390 -14 263 -14 c 0
 176 -14 105 32 105 117 c 0
 105 230 216 293 277 332 c 1
 235 383 190 414 190 484 c 0
 190 603 305 676 417 676 c 0
 489 676 562 639 562 565 c 0xf4
 562 449 426 389 389 372 c 1
 441 323 502 270 502 189 c 0xf8
364 390 m 1
 437 425 492 495 492 564 c 0
 492 617 458 650 402 650 c 0
 338 650 272 600 272 527 c 0
 272 466 322 420 364 390 c 1
283 11 m 0
 365 11 419 85 419 150 c 0xf8
 419 224 347 271 298 312 c 1
 247 281 182 212 182 116 c 0
 182 55 213 11 283 11 c 0
EndSplineSet
Validated: 1
Layer: 2
SplineSet
502 189 m 0,0,1
 502 105 502 105 431 45.5 c 128,-1,2
 360 -14 360 -14 263 -14 c 0,3,4
 195 -14 195 -14 150 20.5 c 128,-1,5
 105 55 105 55 105 117 c 0,6,7
 105 154 105 154 119.5 187 c 128,-1,8
 134 220 134 220 163.5 247.5 c 128,-1,9
 193 275 193 275 212.5 289 c 128,-1,10
 232 303 232 303 265.620232293 324.781825841 c 0,11,12
 273 330 273 330 277 332 c 1,13,14
 269 342 269 342 247 366.5 c 128,-1,15
 225 391 225 391 216.5 402.5 c 128,-1,16
 208 414 208 414 199 436.5 c 128,-1,17
 190 459 190 459 190 484 c 0,18,19
 190 569 190 569 259 622.5 c 128,-1,20
 328 676 328 676 417 676 c 0,21,22
 476 676 476 676 519 646.5 c 128,-1,23
 562 617 562 617 562 565 c 0,24,25
 562 451 562 451 389 372 c 1,26,27
 453.403458299 311.312125834 453.403458299 311.312125834 473.52770023 280.178233225 c 0,28,29
 502 236.129193942 502 236.129193942 502 189 c 0,0,1
364 390 m 1,30,31
 420 417 420 417 456 465 c 128,-1,32
 492 513 492 513 492 564 c 0,33,34
 492 604 492 604 468 627 c 128,-1,35
 444 650 444 650 402 650 c 0,36,37
 352 650 352 650 312 615 c 128,-1,38
 272 580 272 580 272 527 c 0,39,40
 272 456 272 456 364 390 c 1,30,31
283 11 m 0,41,42
 341 11 341 11 380 54.5 c 128,-1,43
 419 98 419 98 419 150 c 0,44,45
 419 168 419 168 412.5 185.5 c 128,-1,46
 406 203 406 203 399 215 c 128,-1,47
 392 227 392 227 376 243.5 c 128,-1,48
 360 260 360 260 352 267.5 c 128,-1,49
 344 275 344 275 323.5 291.5 c 128,-1,50
 303 308 303 308 298 312 c 1,51,52
 252 284 252 284 217 232.5 c 128,-1,53
 182 181 182 181 182 116 c 0,54,55
 182 68 182 68 207 39.5 c 128,-1,56
 232 11 232 11 283 11 c 0,41,42
EndSplineSet
EndChar

StartChar: nine
Encoding: 57 57 26
Width: 537
Flags: W
HStem: -23 20<79 123.563> 237 43<270.314 377.443> 650 26<341.838 439.633>
VStem: 142 96<312.559 494.568> 486 87<370.144 589.261>
LayerCount: 3
Fore
SplineSet
411 676 m 0
 476 676 573 638 573 473 c 0
 573 400 556 341 532 292 c 0
 479 186 366 63 235 12 c 0
 172 -12 109 -23 78 -23 c 1
 79 -3 l 1
 143 8 240 35 326 124 c 0
 373 174 417 233 444 292 c 1
 385 257 333 237 283 237 c 0
 195 237 142 291 142 383 c 0
 142 515 245 676 411 676 c 0
391 650 m 0
 278 650 238 476 238 398 c 0
 238 335 260 280 333 280 c 0
 366 280 426 303 452 330 c 1
 462 357 486 445 486 516 c 0
 486 585 466 650 391 650 c 0
EndSplineSet
Validated: 1
Layer: 2
SplineSet
411 676 m 0,0,1
 438 676 438 676 464 667 c 128,-1,2
 490 658 490 658 516 637 c 128,-1,3
 542 616 542 616 557.5 574 c 128,-1,4
 573 532 573 532 573 473 c 0,5,6
 573 376 573 376 532 292 c 0,7,8
 489 207 489 207 408.5 127.5 c 128,-1,9
 328 48 328 48 235 12 c 0,10,11
 143 -23 143 -23 78 -23 c 1,12,-1
 79 -3 l 1,13,14
 228 23 228 23 326 124 c 0,15,16
 406 209 406 209 444 292 c 1,17,18
 351 237 351 237 283 237 c 0,19,20
 217 237 217 237 179.5 275.5 c 128,-1,21
 142 314 142 314 142 383 c 0,22,23
 142 451 142 451 173.5 517 c 128,-1,24
 205 583 205 583 268.5 629.5 c 128,-1,25
 332 676 332 676 411 676 c 0,0,1
391 650 m 0,26,27
 351 650 351 650 319.5 622 c 128,-1,28
 288 594 288 594 271.5 552.5 c 128,-1,29
 255 511 255 511 246.5 471 c 128,-1,30
 238 431 238 431 238 398 c 0,31,32
 238 280 238 280 333 280 c 0,33,34
 359 280 359 280 396 295 c 128,-1,35
 433 310 433 310 452 330 c 1,36,37
 463 359 463 359 474.5 414 c 128,-1,38
 486 469 486 469 486 516 c 0,39,40
 486 650 486 650 391 650 c 0,26,27
EndSplineSet
EndChar

StartChar: colon
Encoding: 58 58 27
Width: 278
Flags: W
HStem: -12 144<111.713 193.287> 324 144<183.656 265.244>
VStem: 79 147<20.7578 99.6014> 151 147<356.399 434.724>
LayerCount: 3
Fore
SplineSet
151 381 m 0xd0
 151 420 188 468 239 468 c 0
 274 468 298 444 298 412 c 0
 298 365 254 324 209 324 c 0
 174 324 151 348 151 381 c 0xd0
79 44 m 0xe0
 79 91 123 132 168 132 c 0
 203 132 226 108 226 75 c 0
 226 29 181 -12 137 -12 c 0
 103 -12 79 12 79 44 c 0xe0
EndSplineSet
Validated: 1
Layer: 2
SplineSet
151 381 m 0,0,1
 151 412 151 412 177 440 c 128,-1,2
 203 468 203 468 239 468 c 0,3,4
 265 468 265 468 281.5 452 c 128,-1,5
 298 436 298 436 298 412 c 0,6,7
 298 377 298 377 270.5 350.5 c 128,-1,8
 243 324 243 324 209 324 c 0,9,10
 183 324 183 324 167 340 c 128,-1,11
 151 356 151 356 151 381 c 0,0,1
79 44 m 0,12,13
 79 79 79 79 106.5 105.5 c 128,-1,14
 134 132 134 132 168 132 c 0,15,16
 194 132 194 132 210 116 c 128,-1,17
 226 100 226 100 226 75 c 0,18,19
 226 41 226 41 198.5 14.5 c 128,-1,20
 171 -12 171 -12 137 -12 c 0,21,22
 112 -12 112 -12 95.5 4 c 128,-1,23
 79 20 79 20 79 44 c 0,12,13
EndSplineSet
EndChar

StartChar: semicolon
Encoding: 59 59 28
Width: 278
Flags: W
HStem: 5 121<109.487 161.829> 324 144<170.564 253.278>
VStem: 69 155<10.924 100.749> 138 148<355.935 435.977>
LayerCount: 3
Fore
SplineSet
69 46 m 0xe0
 69 67 86 126 153 126 c 0
 207 126 224 97 224 58 c 0
 224 -23 169 -98 58 -146 c 1
 50 -118 l 1
 94 -100 153 -45 162 -6 c 0
 163 0 165 5 159 5 c 0
 153 5 142 -3 125 -3 c 0
 91 -3 69 16 69 46 c 0xe0
138 382 m 0xd0
 138 430 185 468 226 468 c 0
 261 468 286 444 286 411 c 0
 286 363 241 324 196 324 c 0
 162 324 138 349 138 382 c 0xd0
EndSplineSet
Validated: 1
Layer: 2
SplineSet
69 46 m 0,0,1
 69 71 69 71 89 98.5 c 128,-1,2
 109 126 109 126 153 126 c 0,3,4
 224 126 224 126 224 58 c 0,5,6
 224 -4 224 -4 182 -57.5 c 128,-1,7
 140 -111 140 -111 58 -146 c 1,8,-1
 50 -118 l 1,9,10
 84 -104 84 -104 119.5 -69 c 128,-1,11
 155 -34 155 -34 162 -6 c 0,12,13
 164 5 164 5 159 5 c 0,14,15
 157 5 157 5 146 1 c 128,-1,16
 135 -3 135 -3 125 -3 c 0,17,18
 99 -3 99 -3 84 10.5 c 128,-1,19
 69 24 69 24 69 46 c 0,0,1
138 382 m 0,20,21
 138 417 138 417 166 442.5 c 128,-1,22
 194 468 194 468 226 468 c 0,23,24
 252 468 252 468 269 452 c 128,-1,25
 286 436 286 436 286 411 c 0,26,27
 286 376 286 376 258.5 350 c 128,-1,28
 231 324 231 324 196 324 c 0,29,30
 171 324 171 324 154.5 340.5 c 128,-1,31
 138 357 138 357 138 382 c 0,20,21
EndSplineSet
EndChar

StartChar: less
Encoding: 60 60 29
Width: 563
Flags: W
HStem: 0 21G<496.687 540.127>
DStem2: 163 261 78 233 0.891292 -0.45343<0 433.818> 89 287 163 261 0.921604 0.388131<58.1073 569.033>
LayerCount: 3
Fore
SplineSet
536 0 m 1
 78 233 l 1
 89 287 l 1
 647 522 l 1
 634 459 l 1
 163 261 l 1
 549 63 l 1
 536 0 l 1
EndSplineSet
Validated: 1
Layer: 2
SplineSet
536 0 m 1,0,-1
 78 233 l 1,1,-1
 89 287 l 1,2,-1
 647 522 l 1,3,-1
 634 459 l 1,4,-1
 163 261 l 1,5,-1
 549 63 l 1,6,-1
 536 0 l 1,0,-1
EndSplineSet
EndChar

StartChar: equal
Encoding: 61 61 30
Width: 563
Flags: W
HStem: 132 65<73 561> 326 64<114 602>
LayerCount: 3
Fore
SplineSet
602 326 m 1
 100 326 l 1
 114 390 l 1
 616 390 l 1
 602 326 l 1
561 132 m 1
 59 132 l 1
 73 197 l 1
 575 197 l 1
 561 132 l 1
EndSplineSet
Validated: 1
Layer: 2
SplineSet
602 326 m 1,0,-1
 100 326 l 1,1,-1
 114 390 l 1,2,-1
 616 390 l 1,3,-1
 602 326 l 1,0,-1
561 132 m 1,4,-1
 59 132 l 1,5,-1
 73 197 l 1,6,-1
 575 197 l 1,7,-1
 561 132 l 1,4,-1
EndSplineSet
EndChar

StartChar: greater
Encoding: 62 62 31
Width: 563
Flags: W
HStem: 0 21G<32.127 75.897>
DStem2: 41 63 28 0 0.922783 0.38532<0 509.079> 139 522 126 459 0.889716 -0.456514<17.1941 449.235>
LayerCount: 3
Fore
SplineSet
586 233 m 1
 28 0 l 1
 41 63 l 1
 510 261 l 1
 126 459 l 1
 139 522 l 1
 597 287 l 1
 586 233 l 1
EndSplineSet
Validated: 1
Layer: 2
SplineSet
586 233 m 1,0,-1
 28 0 l 1,1,-1
 41 63 l 1,2,-1
 510 261 l 1,3,-1
 126 459 l 1,4,-1
 139 522 l 1,5,-1
 597 287 l 1,6,-1
 586 233 l 1,0,-1
EndSplineSet
EndChar

StartChar: question
Encoding: 63 63 32
Width: 443
Flags: W
HStem: -14 115<189.336 260.623> 647 29<281.794 382.404>
VStem: 160 65<491.866 584.023> 166 117<8.31738 77.9408> 417 91<470.592 619.912>
LayerCount: 3
Fore
SplineSet
333 647 m 0xec
 293 647 225 620 225 580 c 0
 225 560 247 548 247 521 c 0
 247 490 224 470 194 470 c 0
 168 470 160 490 160 512 c 0
 160 599 256 676 361 676 c 0
 459 676 508 616 508 549 c 0
 508 471 445 406 394 355 c 2
 356 316 l 2
 310 270 280 223 259 164 c 1
 242 164 l 1
 277 330 417 418 417 553 c 0
 417 604 391 647 333 647 c 0xec
283 54 m 0xd4
 283 17 243 -14 214 -14 c 0
 187 -14 166 7 166 33 c 0
 166 70 208 101 238 101 c 0
 262 101 283 81 283 54 c 0xd4
EndSplineSet
Validated: 1
Layer: 2
SplineSet
333 647 m 0,0,1
 299 647 299 647 262 627.5 c 128,-1,2
 225 608 225 608 225 580 c 0,3,4
 225 571 225 571 236 553 c 128,-1,5
 247 535 247 535 247 521 c 0,6,7
 247 498 247 498 232 484 c 128,-1,8
 217 470 217 470 194 470 c 0,9,10
 160 470 160 470 160 512 c 0,11,12
 160 577 160 577 221 626.5 c 128,-1,13
 282 676 282 676 361 676 c 0,14,15
 431 676 431 676 469.5 639.5 c 128,-1,16
 508 603 508 603 508 549 c 0,17,18
 508 513 508 513 488 474 c 128,-1,19
 468 435 468 435 448 412 c 128,-1,20
 428 389 428 389 394 355 c 2,21,-1
 356 316 l 2,22,23
 289 249 289 249 259 164 c 1,24,-1
 242 164 l 1,25,26
 254 219 254 219 284 275.5 c 128,-1,27
 314 332 314 332 343 370.5 c 128,-1,28
 372 409 372 409 394.5 458.5 c 128,-1,29
 417 508 417 508 417 553 c 0,30,31
 417 594 417 594 395.5 620.5 c 128,-1,32
 374 647 374 647 333 647 c 0,0,1
283 54 m 0,33,34
 283 28 283 28 260 7 c 128,-1,35
 237 -14 237 -14 214 -14 c 0,36,37
 194 -14 194 -14 180 -0.5 c 128,-1,38
 166 13 166 13 166 33 c 0,39,40
 166 59 166 59 190 80 c 128,-1,41
 214 101 214 101 238 101 c 0,42,43
 256 101 256 101 269.5 87.5 c 128,-1,44
 283 74 283 74 283 54 c 0,33,34
EndSplineSet
EndChar

StartChar: at
Encoding: 64 64 33
Width: 920
Flags: W
HStem: -155 40<340.129 606.465> 41 43<361.277 487.459 651.883 745.483> 427 46<555.511 653.87> 439 20G<704.612 800> 636 38<526.327 741.96>
VStem: 99 93<35.4115 285.336> 313 91<89.6764 234.867> 568 76<92.2827 123> 905 42<286.173 488.652>
DStem2: 632 280 652 144 0.425243 0.905079<-142.878 99.0412 142.75 196.879>
LayerCount: 3
Fore
SplineSet
947 407 m 0xdf80
 947 215 785 40 668 40 c 0
 633 40 571 49 568 123 c 1
 523 72 453 41 410 41 c 0
 352 41 313 69 313 136 c 0
 313 286 479 473 611 473 c 0xef80
 663 473 687 436 691 410 c 1
 714 459 l 1
 800 459 l 1
 652 144 l 1
 646 135 644 125 644 116 c 0
 644 95 662 83 685 83 c 0
 761 83 905 234 905 389 c 0
 905 539 777 636 636 636 c 0
 422 636 240 421 204 249 c 0
 197 215 192 178 192 141 c 0
 192 13 250 -115 471 -115 c 0
 567 -115 690 -78 757 -23 c 1
 724 -88 l 1
 724 -88 617 -155 460 -155 c 0
 282 -155 99 -65 99 156 c 0
 99 187 102 221 110 257 c 0
 145 424 338 674 644 674 c 0
 757 674 947 607 947 407 c 0xdf80
553 147 m 0
 559 154 659 289 659 378 c 0
 659 416 639 427 616 427 c 0
 563 427 444 341 409 175 c 0
 406 159 404 145 404 133 c 0
 404 99 419 84 451 84 c 0
 486 84 538 127 553 147 c 0
EndSplineSet
Validated: 1
Layer: 2
SplineSet
947 407 m 0,0,1
 947 338 947 338 920 269 c 128,-1,2
 893 200 893 200 851.5 151 c 128,-1,3
 810 102 810 102 760.5 71 c 128,-1,4
 711 40 711 40 668 40 c 0,5,6
 571 40 571 40 568 123 c 1,7,8
 536 86 536 86 490 63.5 c 128,-1,9
 444 41 444 41 410 41 c 0,10,11
 313 41 313 41 313 136 c 0,12,13
 313 209 313 209 359.5 288.5 c 128,-1,14
 406 368 406 368 476.5 420.5 c 128,-1,15
 547 473 547 473 611 473 c 0,16,17
 646 473 646 473 666.5 453.5 c 128,-1,18
 687 434 687 434 691 410 c 1,19,-1
 714 459 l 1,20,-1
 800 459 l 1,21,-1
 652 144 l 2,22,23
 644 132 644 132 644 116 c 0,24,25
 644 101 644 101 655.5 92 c 128,-1,26
 667 83 667 83 685 83 c 0,27,28
 724 83 724 83 775 126 c 128,-1,29
 826 169 826 169 865.5 242.5 c 128,-1,30
 905 316 905 316 905 389 c 0,31,32
 905 498 905 498 825.5 567 c 128,-1,33
 746 636 746 636 636 636 c 0,34,35
 559 636 559 636 484 600 c 128,-1,36
 409 564 409 564 353 507 c 128,-1,37
 297 450 297 450 257.5 382 c 128,-1,38
 218 314 218 314 204 249 c 0,39,40
 192 191 192 191 192 141 c 0,41,42
 192 89 192 89 205 46.5 c 128,-1,43
 218 4 218 4 248 -34 c 128,-1,44
 278 -72 278 -72 335 -93.5 c 128,-1,45
 392 -115 392 -115 471 -115 c 0,46,47
 544 -115 544 -115 626 -89.5 c 128,-1,48
 708 -64 708 -64 757 -23 c 1,49,-1
 724 -88 l 2,50,51
 720 -91 720 -91 711.5 -95.5 c 128,-1,52
 703 -100 703 -100 676 -111.5 c 128,-1,53
 649 -123 649 -123 620.5 -132 c 128,-1,54
 592 -141 592 -141 548 -148 c 128,-1,55
 504 -155 504 -155 460 -155 c 0,56,57
 391 -155 391 -155 328 -137 c 128,-1,58
 265 -119 265 -119 213 -83 c 128,-1,59
 161 -47 161 -47 130 14.5 c 128,-1,60
 99 76 99 76 99 156 c 0,61,62
 99 208 99 208 110 257 c 0,63,64
 121 309 121 309 149 364.5 c 128,-1,65
 177 420 177 420 225 475.5 c 128,-1,66
 273 531 273 531 333.5 575 c 128,-1,67
 394 619 394 619 475 646.5 c 128,-1,68
 556 674 556 674 644 674 c 0,69,70
 690 674 690 674 739.5 659.5 c 128,-1,71
 789 645 789 645 837 616 c 128,-1,72
 885 587 885 587 916 532.5 c 128,-1,73
 947 478 947 478 947 407 c 0,0,1
553 147 m 0,74,75
 562 158 562 158 583.5 190 c 128,-1,76
 605 222 605 222 632 280 c 128,-1,77
 659 338 659 338 659 378 c 0,78,79
 659 427 659 427 616 427 c 0,80,81
 567 427 567 427 500 357.5 c 128,-1,82
 433 288 433 288 409 175 c 0,83,84
 404 148 404 148 404 133 c 0,85,86
 404 84 404 84 451 84 c 0,87,88
 475 84 475 84 507 106 c 128,-1,89
 539 128 539 128 553 147 c 0,74,75
EndSplineSet
EndChar

StartChar: A
Encoding: 65 65 34
Width: 721
Flags: W
HStem: 0 20<19 51.5421 168.73 214 454 512.396 673.035 705> 217 40<272 502> 656 20G<478.303 515.436>
DStem2: 175.976 179.625 215.5 169.5 0.537299 0.843392<-117.127 69.1455 116.851 439.818> 511 676 443 531 0.216561 -0.976269<126.833 407.108 447.241 596.99>
LayerCount: 3
Fore
SplineSet
246 217 m 1
 225 181 156 86 156 53 c 0
 156 27 187 20 218 20 c 1
 214 0 l 1
 15 0 l 1
 19 20 l 1
 82 25 124 97 185 194 c 2
 491 676 l 1
 511 676 l 1
 635 117 l 2
 651 44 665 20 709 20 c 1
 705 0 l 1
 450 0 l 1
 454 20 l 1
 509 22 534 30 534 69 c 0
 534 85 530 105 524 131 c 2
 507 217 l 1
 246 217 l 1
502 257 m 1
 443 531 l 1
 272 257 l 1
 502 257 l 1
EndSplineSet
Validated: 1
Layer: 2
SplineSet
246 217 m 1,0,1
 242 210 242 210 215.5 169.5 c 128,-1,2
 189 129 189 129 172.5 98.5 c 128,-1,3
 156 68 156 68 156 53 c 0,4,5
 156 20 156 20 218 20 c 1,6,-1
 214 0 l 1,7,-1
 15 0 l 1,8,-1
 19 20 l 1,9,10
 47 22 47 22 75.5 47 c 128,-1,11
 104 72 104 72 121.5 96 c 128,-1,12
 139 120 139 120 175.976297547 179.624887575 c 0,13,14
 182 189 182 189 185 194 c 2,15,-1
 491 676 l 1,16,-1
 511 676 l 1,17,-1
 635 117 l 2,18,19
 647 61 647 61 662 40.5 c 128,-1,20
 677 20 677 20 709 20 c 1,21,-1
 705 0 l 1,22,-1
 450 0 l 1,23,-1
 454 20 l 1,24,25
 498 22 498 22 516 31.5 c 128,-1,26
 534 41 534 41 534 69 c 0,27,28
 534 88 534 88 524 131 c 2,29,-1
 507 217 l 1,30,-1
 246 217 l 1,0,1
502 257 m 1,31,-1
 443 531 l 1,32,-1
 272 257 l 1,33,-1
 502 257 l 1,31,-1
EndSplineSet
EndChar

StartChar: B
Encoding: 66 66 35
Width: 666
Flags: W
HStem: 0 37<250.991 417.911> 0 20<24 89.4316> 326 40<296 461.165> 622 40<361.41 522.685> 642 20<161 216.28>
VStem: 524 114<133.465 276.88> 567 104<445.748 584.234>
DStem2: 116.995 0 217.657 0 0.207912 0.978148<95.1162 354.222 395.219 607.714>
LayerCount: 3
Fore
SplineSet
638 215 m 0x34
 638 129 564 0 335 0 c 2xb4
 20 0 l 1
 24 20 l 1
 105 20 128 51 134 80 c 2
 241 582 l 2
 242 586 242 590 242 595 c 0
 242 619 225 642 156 642 c 1
 161 662 l 1x6c
 428 662 l 2
 567 662 671 629 671 529 c 0x32
 671 466 638 379 503 347 c 1
 575 332 638 290 638 215 c 0x34
378 366 m 2
 532 366 567 464 567 525 c 0x32
 567 617 469 622 403 622 c 0
 365 622 349 616 344 593 c 2
 296 366 l 1
 378 366 l 2
520 184 m 0
 523 196 524 206 524 216 c 0
 524 308 422 326 336 326 c 2
 287 326 l 1
 237 91 l 2
 236 84 235 77 235 72 c 0
 235 49 250 37 308 37 c 0xa4
 412 37 495 68 520 184 c 0
EndSplineSet
Validated: 1
Layer: 2
SplineSet
638 215 m 0,0,1
 638 180 638 180 622 144.5 c 128,-1,2
 606 109 606 109 573 75.5 c 128,-1,3
 540 42 540 42 478 21 c 128,-1,4
 416 0 416 0 335 0 c 2,5,-1
 20 0 l 1,6,-1
 24 20 l 1,7,8
 122 20 122 20 134 80 c 2,9,-1
 241 582 l 2,10,11
 242 586 242 586 242 595 c 0,12,13
 242 642 242 642 156 642 c 1,14,-1
 161 662 l 1,15,-1
 428 662 l 2,16,17
 671 662 671 662 671 529 c 0,18,19
 671 471 671 471 633 420 c 128,-1,20
 595 369 595 369 503 347 c 1,21,22
 562 335 562 335 600 301.5 c 128,-1,23
 638 268 638 268 638 215 c 0,0,1
378 366 m 2,24,25
 433 366 433 366 472 381.5 c 128,-1,26
 511 397 511 397 530.5 423 c 128,-1,27
 550 449 550 449 558.5 474 c 128,-1,28
 567 499 567 499 567 525 c 128,-1,29
 567 551 567 551 555.5 570 c 128,-1,30
 544 589 544 589 528.5 599 c 128,-1,31
 513 609 513 609 488.5 614.5 c 128,-1,32
 464 620 464 620 446 621 c 128,-1,33
 428 622 428 622 403 622 c 0,34,35
 374 622 374 622 361 616 c 128,-1,36
 348 610 348 610 344 593 c 2,37,-1
 296 366 l 1,38,-1
 378 366 l 2,24,25
520 184 m 0,39,40
 524 200 524 200 524 216 c 0,41,42
 524 326 524 326 336 326 c 2,43,-1
 287 326 l 1,44,-1
 237 91 l 2,45,46
 235 77 235 77 235 72 c 0,47,48
 235 54 235 54 250.5 45.5 c 128,-1,49
 266 37 266 37 308 37 c 0,50,51
 394 37 394 37 448 69.5 c 128,-1,52
 502 102 502 102 520 184 c 0,39,40
EndSplineSet
EndChar

StartChar: C
Encoding: 67 67 36
Width: 666
Flags: W
HStem: -14 45<299.196 491.832> 450 21G<694.5 723.482> 634 42<413.435 610.29>
VStem: 94 115<131.103 374.066> 697 23<450 490.205> 737 22<657.876 674>
LayerCount: 3
Fore
SplineSet
519 634 m 0
 271 634 209 337 209 241 c 0
 209 129 262 31 393 31 c 0
 491 31 563 63 647 131 c 1
 660 111 l 1
 584 37 470 -14 373 -14 c 0
 208 -14 94 78 94 242 c 0
 94 467 278 676 519 676 c 0
 610 676 655 639 690 639 c 0
 707 639 722 647 737 674 c 1
 759 674 l 1
 720 450 l 1
 697 450 l 1
 690 559 634 634 519 634 c 0
EndSplineSet
Validated: 1
Layer: 2
SplineSet
519 634 m 0,0,1
 460 634 460 634 410.5 612 c 128,-1,2
 361 590 361 590 328.5 553.5 c 128,-1,3
 296 517 296 517 271.5 474 c 128,-1,4
 247 431 247 431 234 385.5 c 128,-1,5
 221 340 221 340 215 304 c 128,-1,6
 209 268 209 268 209 241 c 0,7,8
 209 150 209 150 254.5 90.5 c 128,-1,9
 300 31 300 31 393 31 c 0,10,11
 465 31 465 31 523.5 55 c 128,-1,12
 582 79 582 79 647 131 c 1,13,-1
 660 111 l 1,14,15
 603 55 603 55 524 20.5 c 128,-1,16
 445 -14 445 -14 373 -14 c 0,17,18
 247 -14 247 -14 170.5 53.5 c 128,-1,19
 94 121 94 121 94 242 c 0,20,21
 94 354 94 354 149 453.5 c 128,-1,22
 204 553 204 553 303 614.5 c 128,-1,23
 402 676 402 676 519 676 c 0,24,25
 572 676 572 676 626 657.5 c 128,-1,26
 680 639 680 639 690 639 c 0,27,28
 718 639 718 639 737 674 c 1,29,-1
 759 674 l 1,30,-1
 720 450 l 1,31,-1
 697 450 l 1,32,33
 692 535 692 535 647 584.5 c 128,-1,34
 602 634 602 634 519 634 c 0,0,1
EndSplineSet
EndChar

StartChar: D
Encoding: 68 68 37
Width: 721
Flags: W
HStem: 0 40<231.092 418.17> 0 20<24 83.6045> 624 38<351.381 520.906> 642 20<161 210.672>
VStem: 658 110<285.419 510.158>
DStem2: 107.995 0 209.657 0 0.207912 0.978148<100.184 609.05>
LayerCount: 3
Fore
SplineSet
768 414 m 0x28
 768 273 683 0 286 0 c 2xa8
 20 0 l 1
 24 20 l 1
 98 20 119 51 125 80 c 2
 232 582 l 2
 233 587 234 591 234 596 c 0
 234 620 218 642 156 642 c 1
 161 662 l 1x58
 419 662 l 2
 639 662 768 581 768 414 c 0x28
285 40 m 0
 582 40 658 281 658 407 c 0
 658 551 558 624 400 624 c 0
 353 624 342 622 332 573 c 2
 229 91 l 2
 228 86 227 81 227 77 c 0
 227 41 264 40 285 40 c 0
EndSplineSet
Validated: 1
Layer: 2
SplineSet
768 414 m 0,0,1
 768 375 768 375 759.5 334 c 128,-1,2
 751 293 751 293 731.5 244.5 c 128,-1,3
 712 196 712 196 675.5 154 c 128,-1,4
 639 112 639 112 588 76.5 c 128,-1,5
 537 41 537 41 459 20.5 c 128,-1,6
 381 0 381 0 286 0 c 2,7,-1
 20 0 l 1,8,-1
 24 20 l 1,9,10
 113 20 113 20 125 80 c 2,11,-1
 232 582 l 2,12,13
 234 592 234 592 234 596 c 0,14,15
 234 642 234 642 156 642 c 1,16,-1
 161 662 l 1,17,-1
 419 662 l 2,18,19
 587 662 587 662 677.5 599.5 c 128,-1,20
 768 537 768 537 768 414 c 0,0,1
285 40 m 0,21,22
 370 40 370 40 437.5 66.5 c 128,-1,23
 505 93 505 93 545 132.5 c 128,-1,24
 585 172 585 172 611.5 223.5 c 128,-1,25
 638 275 638 275 648 320 c 128,-1,26
 658 365 658 365 658 407 c 0,27,28
 658 513 658 513 589.5 568.5 c 128,-1,29
 521 624 521 624 400 624 c 0,30,31
 363 624 363 624 351 616 c 128,-1,32
 339 608 339 608 332 573 c 2,33,-1
 229 91 l 2,34,35
 227 81 227 81 227 77 c 0,36,37
 227 40 227 40 285 40 c 0,21,22
EndSplineSet
EndChar

StartChar: E
Encoding: 69 69 38
Width: 609
Flags: W
HStem: 0 41<218.07 495.215> 0 20<16 75.6045> 326 41<281 494.412> 621 41<334.269 601.49> 642 20<153 201.971>
VStem: 631 21<519 551.29>
DStem2: 99.9955 0 202.995 0 0.207912 0.978148<87.3204 354.638 396.613 607.714>
LayerCount: 3
Fore
SplineSet
632 169 m 1xb4
 551 0 l 1
 12 0 l 1
 16 20 l 1
 88 20 111 51 117 80 c 2
 224 582 l 2
 225 586 225 591 225 595 c 0
 225 619 209 642 148 642 c 1
 153 662 l 1
 683 662 l 1x6c
 652 519 l 1
 631 519 l 1
 631 573 608 621 539 621 c 2
 378 621 l 2
 353 621 332 607 327 582 c 2
 281 367 l 1
 421 367 l 2
 488 367 549 384 565 462 c 1
 585 462 l 1
 536 229 l 1
 516 229 l 1
 518 239 519 247 519 255 c 0
 519 311 471 326 412 326 c 2
 272 326 l 1
 220 80 l 2
 219 75 218 69 218 64 c 0
 218 52 222 41 236 41 c 2
 368 41 l 2
 448 41 525 43 604 169 c 1
 632 169 l 1xb4
EndSplineSet
Validated: 1
Layer: 2
SplineSet
632 169 m 1,0,-1
 551 0 l 1,1,-1
 12 0 l 1,2,-1
 16 20 l 1,3,4
 105 20 105 20 117 80 c 2,5,-1
 224 582 l 2,6,7
 225 586 225 586 225 595 c 0,8,9
 225 642 225 642 148 642 c 1,10,-1
 153 662 l 1,11,-1
 683 662 l 1,12,-1
 652 519 l 1,13,-1
 631 519 l 1,14,15
 631 564 631 564 609 592.5 c 128,-1,16
 587 621 587 621 539 621 c 2,17,-1
 378 621 l 2,18,19
 335 621 335 621 327 582 c 2,20,-1
 281 367 l 1,21,-1
 421 367 l 2,22,23
 546 367 546 367 565 462 c 1,24,-1
 585 462 l 1,25,-1
 536 229 l 1,26,-1
 516 229 l 1,27,28
 519 244 519 244 519 255 c 0,29,30
 519 326 519 326 412 326 c 2,31,-1
 272 326 l 1,32,-1
 220 80 l 2,33,34
 218 70 218 70 218 64 c 0,35,36
 218 41 218 41 236 41 c 2,37,-1
 368 41 l 2,38,39
 407 41 407 41 429.5 43.5 c 128,-1,40
 452 46 452 46 485 57.5 c 128,-1,41
 518 69 518 69 547 96.5 c 128,-1,42
 576 124 576 124 604 169 c 1,43,-1
 632 169 l 1,0,-1
EndSplineSet
EndChar

StartChar: F
Encoding: 70 70 39
Width: 556
Flags: W
HStem: 0 20<16 75.6045 240.014 292> 326 41<281 484.981> 621 41<334.11 613.541> 642 20<153 201.971>
VStem: 629 25<519 542.533>
DStem2: 99.9955 0 202.995 0 0.207912 0.978148<88.2682 354.638 396.613 607.714>
LayerCount: 3
Fore
SplineSet
654 519 m 1xd8
 629 519 l 1
 630 528 630 536 630 543 c 0
 630 617 587 621 532 621 c 2
 376 621 l 2xe8
 342 621 332 605 327 582 c 2
 281 367 l 1
 411 367 l 2
 479 367 540 384 556 462 c 1
 577 462 l 1
 528 229 l 1
 507 229 l 1
 509 238 510 247 510 255 c 0
 510 311 462 326 402 326 c 2
 272 326 l 1
 220 80 l 2
 219 75 218 70 218 65 c 0
 218 41 234 20 296 20 c 1
 292 0 l 1
 12 0 l 1
 16 20 l 1
 88 20 111 51 117 80 c 2
 224 582 l 2
 225 586 225 591 225 595 c 0
 225 619 209 642 148 642 c 1
 153 662 l 1
 685 662 l 1
 654 519 l 1xd8
EndSplineSet
Validated: 1
Layer: 2
SplineSet
654 519 m 1,0,-1
 629 519 l 1,1,2
 630 528 630 528 630 543 c 0,3,4
 630 593 630 593 606 607 c 128,-1,5
 582 621 582 621 532 621 c 2,6,-1
 376 621 l 2,7,8
 335 621 335 621 327 582 c 2,9,-1
 281 367 l 1,10,-1
 411 367 l 2,11,12
 537 367 537 367 556 462 c 1,13,-1
 577 462 l 1,14,-1
 528 229 l 1,15,-1
 507 229 l 1,16,17
 510 243 510 243 510 255 c 0,18,19
 510 326 510 326 402 326 c 2,20,-1
 272 326 l 1,21,-1
 220 80 l 2,22,23
 218 70 218 70 218 65 c 0,24,25
 218 20 218 20 296 20 c 1,26,-1
 292 0 l 1,27,-1
 12 0 l 1,28,-1
 16 20 l 1,29,30
 105 20 105 20 117 80 c 2,31,-1
 224 582 l 2,32,33
 225 586 225 586 225 595 c 0,34,35
 225 642 225 642 148 642 c 1,36,-1
 153 662 l 1,37,-1
 685 662 l 1,38,-1
 654 519 l 1,0,-1
EndSplineSet
EndChar

StartChar: G
Encoding: 71 71 40
Width: 721
Flags: W
HStem: -14 42<302.447 508.739> 336 20<525 575.766 725.473 774> 636 40<414.199 610.48>
VStem: 89 113<133.941 371.396> 701 22<464 504.108>
DStem2: 533.194 -14 629.908 -14 0.207912 0.978148<82.1796 308.918>
LayerCount: 3
Fore
SplineSet
514 636 m 0
 282 636 202 360 202 239 c 0
 202 121 264 28 401 28 c 0
 438 28 480 34 517 49 c 0
 549 63 551 69 557 98 c 2
 589 247 l 2
 592 263 595 277 595 289 c 0
 595 320 579 336 520 336 c 1
 525 356 l 1
 779 356 l 1
 774 336 l 1
 710 336 698 304 686 247 c 2
 645 57 l 1
 581 25 461 -14 379 -14 c 0
 230 -14 89 68 89 246 c 0
 89 462 271 676 514 676 c 0
 595 676 650 643 689 643 c 0
 709 643 724 651 738 676 c 1
 760 676 l 1
 723 464 l 1
 701 464 l 1
 685 570 633 636 514 636 c 0
EndSplineSet
Validated: 1
Layer: 2
SplineSet
514 636 m 0,0,1
 448 636 448 636 393 606 c 128,-1,2
 338 576 338 576 303.5 531 c 128,-1,3
 269 486 269 486 245.5 430.5 c 128,-1,4
 222 375 222 375 212 326.5 c 128,-1,5
 202 278 202 278 202 239 c 0,6,7
 202 145 202 145 252.5 86.5 c 128,-1,8
 303 28 303 28 401 28 c 0,9,10
 465 28 465 28 517 49 c 0,11,12
 540 59 540 59 546 67 c 128,-1,13
 552 75 552 75 557 98 c 2,14,-1
 589 247 l 2,15,16
 595 279 595 279 595 289 c 0,17,18
 595 313 595 313 578.5 324.5 c 128,-1,19
 562 336 562 336 520 336 c 1,20,-1
 525 356 l 1,21,-1
 779 356 l 1,22,-1
 774 336 l 1,23,24
 730 336 730 336 713 316 c 128,-1,25
 696 296 696 296 686 247 c 2,26,-1
 645 57 l 1,27,28
 591 30 591 30 513.5 8 c 128,-1,29
 436 -14 436 -14 379 -14 c 0,30,31
 258 -14 258 -14 173.5 53 c 128,-1,32
 89 120 89 120 89 246 c 0,33,34
 89 354 89 354 143.5 452.5 c 128,-1,35
 198 551 198 551 297 613.5 c 128,-1,36
 396 676 396 676 514 676 c 0,37,38
 560 676 560 676 617.5 659.5 c 128,-1,39
 675 643 675 643 689 643 c 0,40,41
 720 643 720 643 738 676 c 1,42,-1
 760 676 l 1,43,-1
 723 464 l 1,44,-1
 701 464 l 1,45,46
 688 548 688 548 644 592 c 128,-1,47
 600 636 600 636 514 636 c 0,0,1
EndSplineSet
EndChar

StartChar: H
Encoding: 72 72 41
Width: 721
Flags: W
HStem: 0 20<24 83.6045 246.731 298 428 488.252 652.029 702> 318 41<286 581> 642 20<158 210.672 375.525 434 565 615.373 779.525 838>
DStem2: 107.995 0 209.995 0 0.207912 0.978148<88.0603 346.397 388.164 609.05> 512.995 0 613.995 0 0.207912 0.978148<88.8002 325.19 366.957 608.042>
LayerCount: 3
Fore
SplineSet
702 0 m 1
 424 0 l 1
 428 20 l 1
 502 20 524 51 530 80 c 2
 581 318 l 1
 278 318 l 1
 227 80 l 2
 226 75 225 70 225 65 c 0
 225 41 241 20 302 20 c 1
 298 0 l 1
 20 0 l 1
 24 20 l 1
 98 20 119 51 125 80 c 2
 232 582 l 2
 233 587 234 591 234 596 c 0
 234 620 218 642 156 642 c 1
 158 662 l 1
 439 662 l 1
 434 642 l 1
 360 642 340 610 334 582 c 2
 286 359 l 1
 589 359 l 1
 637 582 l 2
 638 586 639 591 639 595 c 0
 639 619 622 642 560 642 c 1
 565 662 l 1
 843 662 l 1
 838 642 l 1
 766 642 744 610 738 582 c 2
 631 80 l 2
 630 75 629 71 629 66 c 0
 629 42 645 20 706 20 c 1
 702 0 l 1
EndSplineSet
Validated: 1
Layer: 2
SplineSet
702 0 m 1,0,-1
 424 0 l 1,1,-1
 428 20 l 1,2,3
 518 20 518 20 530 80 c 2,4,-1
 581 318 l 1,5,-1
 278 318 l 1,6,-1
 227 80 l 2,7,8
 225 70 225 70 225 65 c 0,9,10
 225 20 225 20 302 20 c 1,11,-1
 298 0 l 1,12,-1
 20 0 l 1,13,-1
 24 20 l 1,14,15
 113 20 113 20 125 80 c 2,16,-1
 232 582 l 2,17,18
 234 592 234 592 234 596 c 0,19,20
 234 642 234 642 156 642 c 1,21,-1
 158 662 l 1,22,-1
 439 662 l 1,23,-1
 434 642 l 1,24,25
 347 642 347 642 334 582 c 2,26,-1
 286 359 l 1,27,-1
 589 359 l 1,28,-1
 637 582 l 2,29,30
 639 590 639 590 639 595 c 0,31,32
 639 642 639 642 560 642 c 1,33,-1
 565 662 l 1,34,-1
 843 662 l 1,35,-1
 838 642 l 1,36,37
 751 642 751 642 738 582 c 2,38,-1
 631 80 l 2,39,40
 629 70 629 70 629 66 c 0,41,42
 629 20 629 20 706 20 c 1,43,-1
 702 0 l 1,0,-1
EndSplineSet
EndChar

StartChar: I
Encoding: 73 73 42
Width: 333
Flags: W
HStem: 0 20<22 88.7266 259.019 316> 642 20<159 215.682 387.051 452>
DStem2: 116.995 0 217.995 0 0.207912 0.978148<88.8002 607.714>
LayerCount: 3
Fore
SplineSet
316 0 m 1
 18 0 l 1
 22 20 l 1
 105 20 128 51 134 80 c 2
 241 582 l 2
 242 586 242 590 242 595 c 0
 242 619 225 642 154 642 c 1
 159 662 l 1
 457 662 l 1
 452 642 l 1
 369 642 348 610 342 582 c 2
 235 80 l 2
 234 75 233 71 233 66 c 0
 233 42 250 20 320 20 c 1
 316 0 l 1
EndSplineSet
Validated: 1
Layer: 2
SplineSet
316 0 m 1,0,-1
 18 0 l 1,1,-1
 22 20 l 1,2,3
 122 20 122 20 134 80 c 2,4,-1
 241 582 l 2,5,6
 242 586 242 586 242 595 c 0,7,8
 242 642 242 642 154 642 c 1,9,-1
 159 662 l 1,10,-1
 457 662 l 1,11,-1
 452 642 l 1,12,13
 355 642 355 642 342 582 c 2,14,-1
 235 80 l 2,15,16
 233 70 233 70 233 66 c 0,17,18
 233 20 233 20 320 20 c 1,19,-1
 316 0 l 1,0,-1
EndSplineSet
EndChar

StartChar: J
Encoding: 74 74 43
Width: 388
Flags: W
HStem: -14 39<92 170.337> 642 20<219 275.682 447.051 512>
VStem: 23 99<25.0239 93.0547>
DStem2: 173.793 -14 275.316 -14 0.207912 0.978148<114.879 622.074>
LayerCount: 3
Fore
SplineSet
122 82 m 0
 122 77 116 72 116 58 c 0
 116 41 125 25 140 25 c 0
 169 25 192 72 201 114 c 2
 301 582 l 2
 302 586 302 590 302 595 c 0
 302 619 285 642 214 642 c 1
 219 662 l 1
 517 662 l 1
 512 642 l 1
 429 642 408 610 402 582 c 2
 320 198 l 2
 290 57 201 -14 109 -14 c 0
 34 -14 23 26 23 48 c 0
 23 82 55 108 81 108 c 0
 106 108 122 92 122 82 c 0
EndSplineSet
Validated: 1
Layer: 2
SplineSet
122 82 m 0,0,1
 122 81 122 81 119 73.5 c 128,-1,2
 116 66 116 66 116 58 c 0,3,4
 116 45 116 45 122.5 35 c 128,-1,5
 129 25 129 25 140 25 c 0,6,7
 160 25 160 25 176.5 52 c 128,-1,8
 193 79 193 79 201 114 c 2,9,-1
 301 582 l 2,10,11
 302 586 302 586 302 595 c 0,12,13
 302 642 302 642 214 642 c 1,14,-1
 219 662 l 1,15,-1
 517 662 l 1,16,-1
 512 642 l 1,17,18
 415 642 415 642 402 582 c 2,19,-1
 320 198 l 2,20,21
 298 96 298 96 239.5 41 c 128,-1,22
 181 -14 181 -14 109 -14 c 0,23,24
 75 -14 75 -14 54 -2.5 c 128,-1,25
 33 9 33 9 28 21.5 c 128,-1,26
 23 34 23 34 23 48 c 0,27,28
 23 72 23 72 41.5 90 c 128,-1,29
 60 108 60 108 81 108 c 0,30,31
 98 108 98 108 110 99.5 c 128,-1,32
 122 91 122 91 122 82 c 0,0,1
EndSplineSet
EndChar

StartChar: K
Encoding: 75 75 44
Width: 721
Flags: W
HStem: 0 20<24 85.5469 250.926 303 408 471.457 667.814 708> 642 20<161 212.074 378.936 440 540 590.714 736.883 796>
DStem2: 110.995 0 211.995 0 0.207912 0.978148<88.8002 323.63 375.803 607.714> 379 416.5 617 556 0.774395 0.632703<-10.1366 288.698> 399 376 382 221 0.582534 -0.812806<0 315.937>
LayerCount: 3
Fore
SplineSet
708 0 m 1
 404 0 l 1
 408 20 l 1
 451 20 484 26 484 48 c 0
 484 89 387 214 382 221 c 2
 305 316 l 1
 275 296 l 1
 229 80 l 2
 228 75 227 70 227 66 c 0
 227 42 243 20 307 20 c 1
 303 0 l 1
 20 0 l 1
 24 20 l 1
 99 20 122 51 128 80 c 2
 235 582 l 2
 236 586 236 591 236 595 c 0
 236 619 220 642 156 642 c 1
 161 662 l 1
 445 662 l 1
 440 642 l 1
 363 642 342 610 336 582 c 2
 286 347 l 1
 335 387 586 562 596 608 c 0
 597 611 597 614 597 616 c 0
 597 644 558 641 535 642 c 1
 540 662 l 1
 801 662 l 1
 796 642 l 1
 723 642 676 604 617 556 c 2
 399 376 l 1
 573 137 l 1
 613 78 641 20 712 20 c 1
 708 0 l 1
EndSplineSet
Validated: 1
Layer: 2
SplineSet
708 0 m 1,0,-1
 404 0 l 1,1,-1
 408 20 l 1,2,3
 484 20 484 20 484 48 c 0,4,5
 484 55 484 55 480 67 c 128,-1,6
 476 79 476 79 469 91.5 c 128,-1,7
 462 104 462 104 453 119 c 128,-1,8
 444 134 444 134 435 147.5 c 128,-1,9
 426 161 426 161 416.5 174.5 c 128,-1,10
 407 188 407 188 400 197 c 128,-1,11
 393 206 393 206 387.5 213.5 c 2,12,-1
 382 221 l 1,13,-1
 305 316 l 1,14,-1
 275 296 l 1,15,-1
 229 80 l 2,16,17
 227 70 227 70 227 66 c 0,18,19
 227 20 227 20 307 20 c 1,20,-1
 303 0 l 1,21,-1
 20 0 l 1,22,-1
 24 20 l 1,23,24
 116 20 116 20 128 80 c 2,25,-1
 235 582 l 2,26,27
 236 586 236 586 236 595 c 0,28,29
 236 642 236 642 156 642 c 1,30,-1
 161 662 l 1,31,-1
 445 662 l 1,32,-1
 440 642 l 1,33,34
 349 642 349 642 336 582 c 2,35,-1
 286 347 l 1,36,37
 292 352 292 352 379 416.5 c 128,-1,38
 466 481 466 481 529 534.5 c 128,-1,39
 592 588 592 588 596 608 c 0,40,41
 597 611 597 611 597 616 c 0,42,43
 597 622 597 622 595 626.5 c 128,-1,44
 593 631 593 631 588.5 633.5 c 128,-1,45
 584 636 584 636 580 637.5 c 128,-1,46
 576 639 576 639 569 640 c 128,-1,47
 562 641 562 641 557.5 641.5 c 128,-1,48
 553 642 553 642 545.5 642 c 128,-1,49
 538 642 538 642 535 642 c 2,50,-1
 540 662 l 1,51,-1
 801 662 l 1,52,-1
 796 642 l 1,53,54
 762 642 762 642 728.5 629 c 128,-1,55
 695 616 695 616 675 601.5 c 128,-1,56
 655 587 655 587 617 556 c 2,57,-1
 399 376 l 1,58,-1
 573 137 l 2,59,60
 576 133 576 133 591.5 109 c 128,-1,61
 607 85 607 85 611.5 79.5 c 128,-1,62
 616 74 616 74 630 57.5 c 128,-1,63
 644 41 644 41 654 36 c 128,-1,64
 664 31 664 31 679.5 25.5 c 128,-1,65
 695 20 695 20 712 20 c 1,66,-1
 708 0 l 1,0,-1
EndSplineSet
EndChar

StartChar: L
Encoding: 76 76 45
Width: 609
Flags: W
HStem: 0 41<223.45 490.055> 0 20<16 75.6045> 642 20<153 201.971 368.173 426>
DStem2: 99.9955 0 203.133 0 0.207912 0.978148<97.1562 607.714>
LayerCount: 3
Fore
SplineSet
635 174 m 1xa0
 550 0 l 1
 12 0 l 1
 16 20 l 1x60
 88 20 111 51 117 80 c 2
 224 582 l 2
 225 586 225 591 225 595 c 0
 225 619 209 642 148 642 c 1
 153 662 l 1
 431 662 l 1
 426 642 l 1
 353 642 333 610 327 582 c 2
 220 80 l 2
 220 78 219 76 219 74 c 0
 219 50 254 41 312 41 c 2
 333 41 l 2
 448 41 531 45 610 174 c 1
 635 174 l 1xa0
EndSplineSet
Validated: 1
Layer: 2
SplineSet
635 174 m 1,0,-1
 550 0 l 1,1,-1
 12 0 l 1,2,-1
 16 20 l 1,3,4
 105 20 105 20 117 80 c 2,5,-1
 224 582 l 2,6,7
 225 586 225 586 225 595 c 0,8,9
 225 642 225 642 148 642 c 1,10,-1
 153 662 l 1,11,-1
 431 662 l 1,12,-1
 426 642 l 1,13,14
 340 642 340 642 327 582 c 2,15,-1
 220 80 l 2,16,17
 220 79 220 79 219.5 77 c 128,-1,18
 219 75 219 75 219 74 c 0,19,20
 219 41 219 41 312 41 c 2,21,-1
 333 41 l 2,22,23
 386 41 386 41 415.5 44 c 128,-1,24
 445 47 445 47 483 59 c 128,-1,25
 521 71 521 71 551 99 c 128,-1,26
 581 127 581 127 610 174 c 1,27,-1
 635 174 l 1,0,-1
EndSplineSet
EndChar

StartChar: M
Encoding: 77 77 46
Width: 887
Flags: W
HStem: 0 20<24 89.4316 200.72 257 597 655.957 819.729 869> 642 20<163 216.878 947.173 1005>
DStem2: 116.995 0 159.995 0 0.207912 0.978148<76.7414 566.149> 361 662 276 545 0.238761 -0.971078<93.3215 519.523> 483 157 424 0 0.553007 0.833177<0 518.292> 679.995 0 781.995 0 0.207912 0.978148<89.0082 580.746>
LayerCount: 3
Fore
SplineSet
869 0 m 1
 593 0 l 1
 597 20 l 1
 669 20 691 51 697 80 c 2
 801 568 l 1
 424 0 l 1
 410 0 l 1
 276 545 l 1
 177 80 l 2
 176 75 175 71 175 66 c 0
 175 42 192 20 261 20 c 1
 257 0 l 1
 20 0 l 1
 24 20 l 1
 105 20 128 51 134 80 c 2
 241 582 l 2
 242 586 242 590 242 595 c 0
 242 619 225 642 158 642 c 1
 163 662 l 1
 361 662 l 1
 483 157 l 1
 811 662 l 1
 1010 662 l 1
 1005 642 l 1
 932 642 912 610 906 582 c 2
 799 80 l 2
 798 75 797 70 797 66 c 0
 797 42 813 20 873 20 c 1
 869 0 l 1
EndSplineSet
Validated: 1
Layer: 2
SplineSet
869 0 m 1,0,-1
 593 0 l 1,1,-1
 597 20 l 1,2,3
 685 20 685 20 697 80 c 2,4,-1
 801 568 l 1,5,-1
 424 0 l 1,6,-1
 410 0 l 1,7,-1
 276 545 l 1,8,-1
 177 80 l 2,9,10
 175 70 175 70 175 66 c 0,11,12
 175 20 175 20 261 20 c 1,13,-1
 257 0 l 1,14,-1
 20 0 l 1,15,-1
 24 20 l 1,16,17
 122 20 122 20 134 80 c 2,18,-1
 241 582 l 2,19,20
 242 586 242 586 242 595 c 0,21,22
 242 642 242 642 158 642 c 1,23,-1
 163 662 l 1,24,-1
 361 662 l 1,25,-1
 483 157 l 1,26,-1
 811 662 l 1,27,-1
 1010 662 l 1,28,-1
 1005 642 l 1,29,30
 919 642 919 642 906 582 c 2,31,-1
 799 80 l 2,32,33
 797 70 797 70 797 66 c 0,34,35
 797 20 797 20 873 20 c 1,36,-1
 869 0 l 1,0,-1
EndSplineSet
EndChar

StartChar: N
Encoding: 78 78 47
Width: 721
Flags: W
HStem: -14 21G<581.182 612.262> 0 20<16 81.4316 192.989 250> 642 20<153 196.557 611 666.981 779.698 844>
DStem2: 106.02 -14 151.02 -14 0.207912 0.978148<90.5221 571.659> 324 662 228 598 0.512224 -0.858852<0 18.3138 79.5308 557.043> 563.551 -14 608 -14 0.207912 0.978148<199.356 623.4>
LayerCount: 3
Fore
SplineSet
844 642 m 1x60
 763 642 741 610 735 582 c 2
 608 -14 l 1
 593 -14 l 1xa0
 268 536 l 1
 171 80 l 2
 170 75 169 70 169 65 c 0
 169 41 185 20 254 20 c 1
 250 0 l 1
 12 0 l 1
 16 20 l 1
 98 20 120 51 126 80 c 2
 234 587 l 1
 228 598 l 1
 206 633 197 642 148 642 c 1
 153 662 l 1
 324 662 l 1
 605 181 l 1
 691 582 l 2
 692 586 693 591 693 596 c 0
 693 619 676 642 606 642 c 1
 611 662 l 1
 849 662 l 1
 844 642 l 1x60
EndSplineSet
Validated: 1
Layer: 2
SplineSet
844 642 m 1,0,1
 748 642 748 642 735 582 c 2,2,-1
 608 -14 l 1,3,-1
 593 -14 l 1,4,-1
 268 536 l 1,5,-1
 171 80 l 2,6,7
 169 70 169 70 169 65 c 0,8,9
 169 20 169 20 254 20 c 1,10,-1
 250 0 l 1,11,-1
 12 0 l 1,12,-1
 16 20 l 1,13,14
 114 20 114 20 126 80 c 2,15,-1
 234 587 l 1,16,-1
 228 598 l 2,17,18
 211 626 211 626 197 634 c 128,-1,19
 183 642 183 642 148 642 c 1,20,-1
 153 662 l 1,21,-1
 324 662 l 1,22,-1
 605 181 l 1,23,-1
 691 582 l 2,24,25
 693 590 693 590 693 596 c 0,26,27
 693 642 693 642 606 642 c 1,28,-1
 611 662 l 1,29,-1
 849 662 l 1,30,-1
 844 642 l 1,0,1
EndSplineSet
EndChar

StartChar: O
Encoding: 79 79 48
Width: 721
Flags: W
HStem: -14 36<283.419 442.192> 639 37<407.36 580.273>
VStem: 95 109<130.837 367.653> 657 109<291.313 532.442>
LayerCount: 3
Fore
SplineSet
766 416 m 0
 766 212 605 -14 358 -14 c 0
 206 -14 95 85 95 247 c 0
 95 441 247 676 505 676 c 0
 691 676 766 553 766 416 c 0
353 22 m 0
 555 22 657 264 657 444 c 0
 657 553 615 639 501 639 c 0
 264 639 204 332 204 219 c 0
 204 91 264 22 353 22 c 0
EndSplineSet
Validated: 1
Layer: 2
SplineSet
766 416 m 0,0,1
 766 339 766 339 736.5 262.5 c 128,-1,2
 707 186 707 186 655.5 124.5 c 128,-1,3
 604 63 604 63 525.5 24.5 c 128,-1,4
 447 -14 447 -14 358 -14 c 0,5,6
 242 -14 242 -14 168.5 56.5 c 128,-1,7
 95 127 95 127 95 247 c 0,8,9
 95 321 95 321 123.5 396 c 128,-1,10
 152 471 152 471 202.5 534 c 128,-1,11
 253 597 253 597 332.5 636.5 c 128,-1,12
 412 676 412 676 505 676 c 0,13,14
 636 676 636 676 701 602 c 128,-1,15
 766 528 766 528 766 416 c 0,0,1
353 22 m 0,16,17
 411 22 411 22 462 48.5 c 128,-1,18
 513 75 513 75 548 118.5 c 128,-1,19
 583 162 583 162 608 217.5 c 128,-1,20
 633 273 633 273 645 331 c 128,-1,21
 657 389 657 389 657 444 c 0,22,23
 657 532 657 532 619.5 585.5 c 128,-1,24
 582 639 582 639 501 639 c 0,25,26
 444 639 444 639 397 616 c 128,-1,27
 350 593 350 593 318.5 555 c 128,-1,28
 287 517 287 517 264 472 c 128,-1,29
 241 427 241 427 228.5 378 c 128,-1,30
 216 329 216 329 210 289.5 c 128,-1,31
 204 250 204 250 204 219 c 0,32,33
 204 125 204 125 244.5 73.5 c 128,-1,34
 285 22 285 22 353 22 c 0,16,17
EndSplineSet
EndChar

StartChar: P
Encoding: 80 80 49
Width: 556
Flags: W
HStem: 0 20<15 75.252 239.029 289> 289 38<271 427.519> 624 38<339.255 481.889> 642 20<158 203.467>
VStem: 539 111<434.466 579.551>
DStem2: 99.9955 0 200.995 0 0.207912 0.978148<88.8002 323.096 358.343 607.714>
LayerCount: 3
Fore
SplineSet
650 520 m 0xe8
 650 427 570 289 348 289 c 0
 321 289 292 290 263 293 c 1
 218 80 l 2
 217 75 216 71 216 66 c 0
 216 42 232 20 293 20 c 1
 289 0 l 1
 11 0 l 1
 15 20 l 1
 88 20 111 51 117 80 c 2
 224 582 l 2
 225 586 225 591 225 595 c 0
 225 619 210 642 153 642 c 1
 158 662 l 1xd8
 408 662 l 2
 548 662 650 616 650 520 c 0xe8
535 479 m 0
 538 492 539 504 539 515 c 0
 539 600 463 624 377 624 c 0xe8
 336 624 333 619 324 579 c 2
 271 330 l 1
 287 330 303 327 320 327 c 0
 428 327 510 364 535 479 c 0
EndSplineSet
Validated: 1
Layer: 2
SplineSet
650 520 m 0,0,1
 650 483 650 483 633.5 444.5 c 128,-1,2
 617 406 617 406 583 370 c 128,-1,3
 549 334 549 334 488 311.5 c 128,-1,4
 427 289 427 289 348 289 c 0,5,6
 302 289 302 289 263 293 c 1,7,-1
 218 80 l 2,8,9
 216 70 216 70 216 66 c 0,10,11
 216 20 216 20 293 20 c 1,12,-1
 289 0 l 1,13,-1
 11 0 l 1,14,-1
 15 20 l 1,15,16
 105 20 105 20 117 80 c 2,17,-1
 224 582 l 2,18,19
 225 586 225 586 225 595 c 0,20,21
 225 642 225 642 153 642 c 1,22,-1
 158 662 l 1,23,-1
 408 662 l 2,24,25
 517 662 517 662 583.5 626 c 128,-1,26
 650 590 650 590 650 520 c 0,0,1
535 479 m 0,27,28
 539 496 539 496 539 515 c 0,29,30
 539 624 539 624 377 624 c 0,31,32
 347 624 347 624 339 617 c 128,-1,33
 331 610 331 610 324 579 c 2,34,-1
 271 330 l 1,35,36
 279 330 279 330 295 328.5 c 128,-1,37
 311 327 311 327 320 327 c 0,38,39
 502 327 502 327 535 479 c 0,27,28
EndSplineSet
EndChar

StartChar: Q
Encoding: 81 81 50
Width: 721
Flags: W
HStem: -177 17<604.459 662> -8 31<422 446.712> 639 37<408.752 574.521>
VStem: 95 109<123.187 366.321> 657 110<296.06 532.619>
LayerCount: 3
Fore
SplineSet
767 417 m 0
 767 194 581 -2 422 -8 c 1
 475 -100 548 -157 666 -160 c 1
 662 -177 l 1
 318 -177 310 -44 265 -8 c 1
 258 3 245 8 235 9 c 1
 139 37 95 136 95 243 c 0
 95 450 254 676 505 676 c 0
 675 676 767 568 767 417 c 0
366 23 m 0
 572 23 657 291 657 445 c 0
 657 570 598 639 497 639 c 1
 258 636 204 319 204 217 c 0
 204 92 263 23 366 23 c 0
EndSplineSet
Validated: 1
Layer: 2
SplineSet
767 417 m 0,0,1
 767 310 767 310 714 211 c 128,-1,2
 661 112 661 112 581 53.5 c 128,-1,3
 501 -5 501 -5 422 -8 c 1,4,5
 507 -156 507 -156 666 -160 c 1,6,-1
 662 -177 l 1,7,8
 565 -177 565 -177 494 -163.5 c 128,-1,9
 423 -150 423 -150 385.5 -127.5 c 128,-1,10
 348 -105 348 -105 326.5 -84 c 128,-1,11
 305 -63 305 -63 289.5 -39 c 128,-1,12
 274 -15 274 -15 265 -8 c 0,13,14
 255 7 255 7 235 9 c 0,15,16
 166 29 166 29 130.5 93.5 c 128,-1,17
 95 158 95 158 95 243 c 0,18,19
 95 321 95 321 124.5 398 c 128,-1,20
 154 475 154 475 205.5 537 c 128,-1,21
 257 599 257 599 335.5 637.5 c 128,-1,22
 414 676 414 676 505 676 c 0,23,24
 629 676 629 676 698 604.5 c 128,-1,25
 767 533 767 533 767 417 c 0,0,1
366 23 m 0,26,27
 439 23 439 23 497.5 66.5 c 128,-1,28
 556 110 556 110 589.5 177 c 128,-1,29
 623 244 623 244 640 313.5 c 128,-1,30
 657 383 657 383 657 445 c 0,31,32
 657 538 657 538 615 588.5 c 128,-1,33
 573 639 573 639 497 639 c 0,34,35
 429 638 429 638 375 603.5 c 128,-1,36
 321 569 321 569 290 519 c 128,-1,37
 259 469 259 469 238.5 408 c 128,-1,38
 218 347 218 347 211 300 c 128,-1,39
 204 253 204 253 204 217 c 0,40,41
 204 124 204 124 246 73.5 c 128,-1,42
 288 23 288 23 366 23 c 0,26,27
EndSplineSet
EndChar

StartChar: R
Encoding: 82 82 51
Width: 666
Flags: W
HStem: 0 20<16 73.6621 236.449 287 616.802 653> 306 37<273 320> 624 38<342.9 490.849> 642 20<153 200.57>
VStem: 540 110<440.051 585.104>
DStem2: 96.9955 0 199.995 0 0.207912 0.978148<88.2682 334.243 372.098 609.05> 429 319 320 307 0.490935 -0.871196<0 309.331>
LayerCount: 3
Fore
SplineSet
650 523 m 0xe8
 650 463 612 344 429 319 c 1
 575 75 l 2
 594 43 613 23 657 20 c 1
 653 0 l 1
 493 0 l 1
 320 307 l 1
 265 306 l 1
 217 80 l 2
 216 75 215 70 215 65 c 0
 215 41 230 20 291 20 c 1
 287 0 l 1
 12 0 l 1
 16 20 l 1
 87 20 108 51 114 80 c 2
 221 582 l 2
 222 587 223 591 223 596 c 0
 223 620 207 642 148 642 c 1
 153 662 l 1xd8
 417 662 l 2
 565 662 650 616 650 523 c 0xe8
536 485 m 0
 539 498 540 510 540 521 c 0
 540 594 483 624 406 624 c 0xe8
 340 624 333 624 322 576 c 2
 273 343 l 1
 418 347 513 378 536 485 c 0
EndSplineSet
Validated: 1
Layer: 2
SplineSet
650 523 m 0,0,1
 650 497 650 497 640.5 468.5 c 128,-1,2
 631 440 631 440 609 408.5 c 128,-1,3
 587 377 587 377 540 352.5 c 128,-1,4
 493 328 493 328 429 319 c 1,5,-1
 575 75 l 2,6,7
 591 48 591 48 608.5 35 c 128,-1,8
 626 22 626 22 657 20 c 1,9,-1
 653 0 l 1,10,-1
 493 0 l 1,11,-1
 320 307 l 1,12,-1
 265 306 l 1,13,-1
 217 80 l 2,14,15
 215 70 215 70 215 65 c 0,16,17
 215 20 215 20 291 20 c 1,18,-1
 287 0 l 1,19,-1
 12 0 l 1,20,-1
 16 20 l 1,21,22
 102 20 102 20 114 80 c 2,23,-1
 221 582 l 2,24,25
 223 592 223 592 223 596 c 0,26,27
 223 642 223 642 148 642 c 1,28,-1
 153 662 l 1,29,-1
 417 662 l 2,30,31
 529 662 529 662 589.5 627 c 128,-1,32
 650 592 650 592 650 523 c 0,0,1
536 485 m 0,33,34
 540 502 540 502 540 521 c 0,35,36
 540 573 540 573 503.5 598.5 c 128,-1,37
 467 624 467 624 406 624 c 0,38,39
 355 624 355 624 342.5 617.5 c 128,-1,40
 330 611 330 611 322 576 c 2,41,-1
 273 343 l 1,42,43
 390 346 390 346 455 377.5 c 128,-1,44
 520 409 520 409 536 485 c 0,33,34
EndSplineSet
EndChar

StartChar: S
Encoding: 83 83 52
Width: 556
Flags: W
HStem: -14 39<196.155 348.762> 634 42<321.127 471.476>
VStem: 86 22<151.312 201> 175 95<465.265 558.617> 421 110<120.421 226.684> 542 24<462 521.92>
DStem2: 362 404.5 262 333 0.806386 -0.59139<-124.125 169.297>
LayerCount: 3
Fore
SplineSet
277 25 m 0
 353 25 421 88 421 163 c 0
 421 301 175 313 175 471 c 0
 175 577 273 676 391 676 c 0
 462 676 500 643 529 643 c 0
 544 643 555 651 569 676 c 1
 591 676 l 1
 566 462 l 1
 542 462 l 1
 539 556 490 634 398 634 c 0
 305 634 270 564 270 521 c 0
 270 401 531 368 531 210 c 0
 531 91 418 -14 277 -14 c 0
 208 -14 160 19 128 19 c 0
 112 19 99 11 91 -14 c 1
 69 -14 l 1
 86 201 l 1
 108 201 l 1
 120 108 171 25 277 25 c 0
EndSplineSet
Validated: 1
Layer: 2
SplineSet
277 25 m 0,0,1
 334 25 334 25 377.5 66 c 128,-1,2
 421 107 421 107 421 163 c 0,3,4
 421 201 421 201 395.5 232 c 128,-1,5
 370 263 370 263 334 286 c 128,-1,6
 298 309 298 309 262 333 c 128,-1,7
 226 357 226 357 200.5 392 c 128,-1,8
 175 427 175 427 175 471 c 0,9,10
 175 552 175 552 239.5 614 c 128,-1,11
 304 676 304 676 391 676 c 0,12,13
 432 676 432 676 476 659.5 c 128,-1,14
 520 643 520 643 529 643 c 0,15,16
 551 643 551 643 569 676 c 1,17,-1
 591 676 l 1,18,-1
 566 462 l 1,19,-1
 542 462 l 1,20,21
 540 536 540 536 502 585 c 128,-1,22
 464 634 464 634 398 634 c 0,23,24
 335 634 335 634 302.5 597.5 c 128,-1,25
 270 561 270 561 270 521 c 0,26,27
 270 488 270 488 297 458.5 c 128,-1,28
 324 429 324 429 362 404.5 c 128,-1,29
 400 380 400 380 438.5 354 c 128,-1,30
 477 328 477 328 504 291 c 128,-1,31
 531 254 531 254 531 210 c 0,32,33
 531 120 531 120 456.5 53 c 128,-1,34
 382 -14 382 -14 277 -14 c 0,35,36
 238 -14 238 -14 188.5 2.5 c 128,-1,37
 139 19 139 19 128 19 c 0,38,39
 102 19 102 19 91 -14 c 1,40,-1
 69 -14 l 1,41,-1
 86 201 l 1,42,-1
 108 201 l 1,43,44
 118 124 118 124 160 74.5 c 128,-1,45
 202 25 202 25 277 25 c 0,0,1
EndSplineSet
EndChar

StartChar: T
Encoding: 84 84 53
Width: 610
Flags: W
HStem: 0 19<170 226.232 399.593 444> 620 42<217.3 385 488 648.162>
VStem: 123 23<492 516.185> 675 23<492 531.667>
DStem2: 252.995 0 355.995 0 0.207912 0.978148<89.2161 633.897>
LayerCount: 3
Fore
SplineSet
385 620 m 1
 333 620 l 2
 220 620 192 601 146 492 c 1
 123 492 l 1
 164 662 l 1
 728 662 l 1
 698 492 l 1
 675 492 l 1
 674 602 656 620 542 620 c 2
 488 620 l 1
 373 80 l 2
 372 75 371 70 371 66 c 0
 371 42 387 22 448 19 c 1
 444 0 l 1
 166 0 l 1
 170 19 l 1
 250 23 264 51 270 80 c 2
 385 620 l 1
EndSplineSet
Validated: 1
Layer: 2
SplineSet
385 620 m 1,0,-1
 333 620 l 2,1,2
 248 620 248 620 214 597 c 128,-1,3
 180 574 180 574 146 492 c 1,4,-1
 123 492 l 1,5,-1
 164 662 l 1,6,-1
 728 662 l 1,7,-1
 698 492 l 1,8,-1
 675 492 l 1,9,10
 674 575 674 575 650.5 597.5 c 128,-1,11
 627 620 627 620 542 620 c 2,12,-1
 488 620 l 1,13,-1
 373 80 l 2,14,15
 371 70 371 70 371 66 c 0,16,17
 371 23 371 23 448 19 c 1,18,-1
 444 0 l 1,19,-1
 166 0 l 1,20,-1
 170 19 l 1,21,22
 224 22 224 22 244 37.5 c 128,-1,23
 264 53 264 53 270 80 c 2,24,-1
 385 620 l 1,0,-1
EndSplineSet
EndChar

StartChar: U
Encoding: 85 85 54
Width: 721
Flags: W
HStem: -14 45<288.489 479.224> 642 20<158 206.971 371.173 429 614 667.177 777.288 839>
VStem: 146 100<72.5528 288.492>
DStem2: 101.247 -14 202.735 -14 0.207912 0.978148<194.643 623.255> 564.272 -14 607.272 -14 0.207912 0.978148<132.532 621.974>
LayerCount: 3
Fore
SplineSet
839 642 m 1
 761 642 740 610 734 582 c 2
 667 267 l 2
 643 154 615 66 490 12 c 0
 455 -3 399 -14 356 -14 c 0
 211 -14 146 41 146 156 c 0
 146 184 150 217 158 253 c 2
 228 582 l 2
 229 586 230 591 230 596 c 0
 230 619 214 642 153 642 c 1
 158 662 l 1
 434 662 l 1
 429 642 l 1
 357 642 336 610 330 582 c 2
 258 246 l 2
 250 210 246 179 246 153 c 0
 246 66 289 31 386 31 c 0
 572 31 604 172 624 267 c 2
 691 582 l 2
 692 586 692 591 692 595 c 0
 692 619 675 642 609 642 c 1
 614 662 l 1
 844 662 l 1
 839 642 l 1
EndSplineSet
Validated: 1
Layer: 2
SplineSet
839 642 m 1,0,1
 747 642 747 642 734 582 c 2,2,-1
 667 267 l 2,3,4
 646 166 646 166 610.5 107.5 c 128,-1,5
 575 49 575 49 490 12 c 0,6,7
 429 -14 429 -14 356 -14 c 0,8,9
 248 -14 248 -14 197 27.5 c 128,-1,10
 146 69 146 69 146 156 c 0,11,12
 146 199 146 199 158 253 c 2,13,-1
 228 582 l 2,14,15
 230 590 230 590 230 596 c 0,16,17
 230 642 230 642 153 642 c 1,18,-1
 158 662 l 1,19,-1
 434 662 l 1,20,-1
 429 642 l 1,21,22
 343 642 343 642 330 582 c 2,23,-1
 258 246 l 2,24,25
 246 192 246 192 246 153 c 0,26,27
 246 88 246 88 279.5 59.5 c 128,-1,28
 313 31 313 31 386 31 c 0,29,30
 439 31 439 31 480 47.5 c 128,-1,31
 521 64 521 64 544 85.5 c 128,-1,32
 567 107 567 107 585 144 c 128,-1,33
 603 181 603 181 609.5 204.5 c 128,-1,34
 616 228 616 228 624 267 c 2,35,-1
 691 582 l 2,36,37
 692 586 692 586 692 595 c 0,38,39
 692 642 692 642 609 642 c 1,40,-1
 614 662 l 1,41,-1
 844 662 l 1,42,-1
 839 642 l 1,0,1
EndSplineSet
EndChar

StartChar: V
Encoding: 86 86 55
Width: 721
Flags: W
HStem: -14 21G<365.305 395.158> 642 20<161 191.072 358.631 422 637 681.938 794.393 836>
DStem2: 361 487 243 527 0.228538 -0.973535<-111.509 334.513> 436 161 383 -14 0.519436 0.854509<0 516.443>
LayerCount: 3
Fore
SplineSet
422 642 m 1
 366 642 338 633 338 597 c 0
 338 568 356 505 361 487 c 2
 436 161 l 1
 654 516 l 2
 680 560 696 589 696 608 c 0
 696 638 658 642 632 642 c 1
 637 662 l 1
 841 662 l 1
 836 642 l 1
 789 642 763 610 738 570 c 2
 383 -14 l 1
 370 -14 l 1
 243 527 l 2
 229 587 214 642 156 642 c 1
 161 662 l 1
 427 662 l 1
 422 642 l 1
EndSplineSet
Validated: 1
Layer: 2
SplineSet
422 642 m 1,0,1
 378 642 378 642 358 632.5 c 128,-1,2
 338 623 338 623 338 597 c 0,3,4
 338 570 338 570 361 487 c 2,5,-1
 436 161 l 1,6,-1
 654 516 l 2,7,8
 696 587 696 587 696 608 c 0,9,10
 696 642 696 642 632 642 c 1,11,-1
 637 662 l 1,12,-1
 841 662 l 1,13,-1
 836 642 l 1,14,15
 804 642 804 642 782 623.5 c 128,-1,16
 760 605 760 605 738 570 c 2,17,-1
 383 -14 l 1,18,-1
 370 -14 l 1,19,-1
 243 527 l 2,20,21
 234 565 234 565 227 585.5 c 128,-1,22
 220 606 220 606 201.5 624 c 128,-1,23
 183 642 183 642 156 642 c 1,24,-1
 161 662 l 1,25,-1
 427 662 l 1,26,-1
 422 642 l 1,0,1
EndSplineSet
EndChar

StartChar: W
Encoding: 87 87 56
Width: 943
Flags: W
HStem: -14 21G<300.136 327.502 627.714 655.267> 642 20<150 178.818 336.351 389 457 501.434 654.055 720 878 919.29 1026.95 1071>
DStem2: 322 553 241 419 0.141741 -0.989904<-42.5636 369.113> 384 189 316 -14 0.498548 0.866862<0 281.553> 705 186 644 -14 0.490828 0.871257<0 479.131>
LayerCount: 3
Fore
SplineSet
720 642 m 1
 655 642 636 633 636 595 c 0
 636 584 637 574 637 570 c 2
 705 186 l 1
 895 513 l 2
 913 545 932 586 932 609 c 0
 932 640 898 641 873 642 c 1
 878 662 l 1
 1076 662 l 1
 1071 642 l 1
 1009 639 988 596 973 570 c 2
 644 -14 l 1
 631 -14 l 1
 561 412 l 1
 316 -14 l 1
 303 -14 l 1
 241 419 l 1
 211 616 204 636 145 642 c 1
 150 662 l 1
 394 662 l 1
 389 642 l 1
 376 642 l 1
 356 639 317 638 317 596 c 0
 317 584 320 561 322 553 c 2
 384 189 l 1
 550 470 l 1
 544 513 537 556 526 596 c 1
 517 633 492 642 452 642 c 1
 457 662 l 1
 725 662 l 1
 720 642 l 1
EndSplineSet
Validated: 1
Layer: 2
SplineSet
720 642 m 1,0,1
 671 642 671 642 653.5 632.5 c 128,-1,2
 636 623 636 623 636 595 c 0,3,4
 636 589 636 589 636.5 580 c 128,-1,5
 637 571 637 571 637 570 c 2,6,-1
 705 186 l 1,7,-1
 895 513 l 2,8,9
 932 579 932 579 932 609 c 0,10,11
 932 623 932 623 921 631 c 128,-1,12
 910 639 910 639 900.5 640 c 128,-1,13
 891 641 891 641 873 642 c 1,14,-1
 878 662 l 1,15,-1
 1076 662 l 1,16,-1
 1071 642 l 1,17,18
 1049 641 1049 641 1032.5 634.5 c 128,-1,19
 1016 628 1016 628 1003.5 613.5 c 128,-1,20
 991 599 991 599 987 593 c 128,-1,21
 983 587 983 587 973 570 c 2,22,-1
 644 -14 l 1,23,-1
 631 -14 l 1,24,-1
 561 412 l 1,25,-1
 316 -14 l 1,26,-1
 303 -14 l 1,27,-1
 241 419 l 2,28,29
 218 568 218 568 203.5 603 c 128,-1,30
 189 638 189 638 145 642 c 1,31,-1
 150 662 l 1,32,-1
 394 662 l 1,33,-1
 389 642 l 1,34,-1
 376 642 l 2,35,36
 375 642 375 642 368 641 c 128,-1,37
 361 640 361 640 358.5 639.5 c 128,-1,38
 356 639 356 639 349 637 c 128,-1,39
 342 635 342 635 339 633.5 c 128,-1,40
 336 632 336 632 331 628.5 c 128,-1,41
 326 625 326 625 323.5 620.5 c 128,-1,42
 321 616 321 616 319 610 c 128,-1,43
 317 604 317 604 317 596 c 0,44,45
 317 573 317 573 322 553 c 2,46,-1
 384 189 l 1,47,-1
 550 470 l 1,48,49
 539 549 539 549 526 596 c 0,50,51
 520 622 520 622 502 632 c 128,-1,52
 484 642 484 642 452 642 c 1,53,-1
 457 662 l 1,54,-1
 725 662 l 1,55,-1
 720 642 l 1,0,1
EndSplineSet
EndChar

StartChar: X
Encoding: 88 88 57
Width: 721
Flags: W
HStem: 0 20<16 56.6879 199.504 244 413 478.43 665.594 705> 642 20<166 206.125 398.6 462 600 650.107 785.254 833>
DStem2: 194 143 261 149 0.716643 0.69744<-70.1484 248.06 375.525 663.695> 439 453 313 476 0.436904 -0.899508<-161.876 54.9985 132.279 380.662>
LayerCount: 3
Fore
SplineSet
462 642 m 1
 405 642 379 635 379 605 c 0
 379 569 427 476 439 453 c 2
 464 404 l 1
 595 533 l 1
 631 567 661 593 661 615 c 0
 661 642 616 642 595 642 c 1
 600 662 l 1
 838 662 l 1
 833 642 l 1
 761 642 692 576 656 539 c 1
 480 367 l 1
 609 103 l 1
 642 40 663 20 709 20 c 1
 705 0 l 1
 409 0 l 1
 413 20 l 1
 482 20 497 35 497 57 c 0
 497 81 480 121 461 158 c 1
 400 287 l 1
 261 149 l 1
 201 94 182 70 182 54 c 0
 182 36 204 20 248 20 c 1
 244 0 l 1
 12 0 l 1
 16 20 l 1
 73 20 128 77 194 143 c 1
 382 326 l 1
 313 476 l 2
 256 598 233 639 161 642 c 1
 166 662 l 1
 467 662 l 1
 462 642 l 1
EndSplineSet
Validated: 1
Layer: 2
SplineSet
462 642 m 1,0,1
 417 642 417 642 398 634.5 c 128,-1,2
 379 627 379 627 379 605 c 0,3,4
 379 568 379 568 439 453 c 2,5,-1
 464 404 l 1,6,-1
 595 533 l 2,7,8
 647.512487882 582.595127444 647.512487882 582.595127444 655.994268801 598.130540764 c 0,9,10
 661 607.299146261 661 607.299146261 661 615 c 0,11,12
 661 642 661 642 595 642 c 1,13,-1
 600 662 l 1,14,-1
 838 662 l 1,15,-1
 833 642 l 1,16,17
 756 642 756 642 656 539 c 2,18,-1
 480 367 l 1,19,-1
 609 103 l 2,20,21
 634 55 634 55 654.5 37.5 c 128,-1,22
 675 20 675 20 709 20 c 1,23,-1
 705 0 l 1,24,-1
 409 0 l 1,25,-1
 413 20 l 1,26,27
 461 20 461 20 479 29.5 c 128,-1,28
 497 39 497 39 497 57 c 0,29,30
 497 88 497 88 461 158 c 2,31,-1
 400 287 l 1,32,-1
 261 149 l 1,33,34
 182 77 182 77 182 54 c 0,35,36
 182 40 182 40 199.5 30 c 128,-1,37
 217 20 217 20 248 20 c 1,38,-1
 244 0 l 1,39,-1
 12 0 l 1,40,-1
 16 20 l 1,41,42
 43 20 43 20 75.5 40 c 128,-1,43
 108 60 108 60 128.5 79 c 128,-1,44
 149 98 149 98 194 143 c 2,45,-1
 382 326 l 1,46,-1
 313 476 l 2,47,48
 267 575 267 575 239.5 607.5 c 128,-1,49
 212 640 212 640 161 642 c 1,50,-1
 166 662 l 1,51,-1
 467 662 l 1,52,-1
 462 642 l 1,0,1
EndSplineSet
EndChar

StartChar: Y
Encoding: 89 89 58
Width: 721
Flags: W
HStem: 0 20<218 286.021 458.917 518> 642 20<164 197.438 376.508 439 625 668.527 803.012 838>
DStem2: 374 559 252 563 0.420124 -0.907467<-44.4731 232.715> 314.995 0 415.995 0 0.207912 0.978148<90.1365 299.489> 470 347 480 303 0.64625 0.763125<0 344.961>
LayerCount: 3
Fore
SplineSet
439 642 m 1
 377 642 360 634 360 602 c 0
 360 586 367 573 374 559 c 2
 470 347 l 1
 652 562 l 2
 660 572 684 596 684 618 c 0
 684 641 658 642 620 642 c 1
 625 662 l 1
 843 662 l 1
 838 642 l 1
 768 633 707 564 668 519 c 2
 480 303 l 1
 433 80 l 2
 432 76 432 71 432 67 c 0
 432 42 449 20 522 20 c 1
 518 0 l 1
 214 0 l 1
 218 20 l 1
 304 20 326 51 332 80 c 2
 377 293 l 1
 291 476 l 2
 245 574 230 641 159 642 c 1
 164 662 l 1
 444 662 l 1
 439 642 l 1
EndSplineSet
Validated: 1
Layer: 2
SplineSet
439 642 m 1,0,1
 392 642 392 642 376 634 c 128,-1,2
 360 626 360 626 360 602 c 0,3,4
 360 587 360 587 374 559 c 2,5,-1
 470 347 l 1,6,-1
 652 562 l 2,7,8
 653 563 653 563 658 569 c 128,-1,9
 663 575 663 575 666.5 580 c 128,-1,10
 670 585 670 585 674.5 591.5 c 128,-1,11
 679 598 679 598 681.5 605 c 128,-1,12
 684 612 684 612 684 618 c 0,13,14
 684 634 684 634 669 638 c 128,-1,15
 654 642 654 642 620 642 c 1,16,-1
 625 662 l 1,17,-1
 843 662 l 1,18,-1
 838 642 l 1,19,20
 806 638 806 638 770.5 614.5 c 128,-1,21
 735 591 735 591 715.5 571 c 128,-1,22
 696 551 696 551 668 519 c 2,23,-1
 480 303 l 1,24,-1
 433 80 l 2,25,26
 432 76 432 76 432 67 c 0,27,28
 432 20 432 20 522 20 c 1,29,-1
 518 0 l 1,30,-1
 214 0 l 1,31,-1
 218 20 l 1,32,33
 320 20 320 20 332 80 c 2,34,-1
 377 293 l 1,35,-1
 291 476 l 2,36,37
 283 493 283 493 270.5 521.5 c 128,-1,38
 258 550 258 550 252 563 c 128,-1,39
 246 576 246 576 235 594.5 c 128,-1,40
 224 613 224 613 214.5 621 c 128,-1,41
 205 629 205 629 190.5 635.5 c 128,-1,42
 176 642 176 642 159 642 c 1,43,-1
 164 662 l 1,44,-1
 444 662 l 1,45,-1
 439 642 l 1,0,1
EndSplineSet
EndChar

StartChar: Z
Encoding: 90 90 59
Width: 609
Flags: W
HStem: 0 38<152 508.119> 624 38<253.615 578>
DStem2: 11 12 152 38 0.679623 0.733561<114.899 834.286>
LayerCount: 3
Fore
SplineSet
634 177 m 1
 573 0 l 1
 8 0 l 1
 11 12 l 1
 578 624 l 1
 370 624 l 2
 267 624 204 605 161 490 c 1
 135 490 l 1
 192 662 l 1
 720 662 l 1
 717 650 l 1
 152 38 l 1
 398 38 l 2
 507 38 558 66 611 177 c 1
 634 177 l 1
EndSplineSet
Validated: 1
Layer: 2
SplineSet
634 177 m 1,0,-1
 573 0 l 1,1,-1
 8 0 l 1,2,-1
 11 12 l 1,3,-1
 578 624 l 1,4,-1
 370 624 l 2,5,6
 285 624 285 624 238 597.5 c 128,-1,7
 191 571 191 571 161 490 c 1,8,-1
 135 490 l 1,9,-1
 192 662 l 1,10,-1
 720 662 l 1,11,-1
 717 650 l 1,12,-1
 152 38 l 1,13,-1
 398 38 l 2,14,15
 481 38 481 38 526.5 66.5 c 128,-1,16
 572 95 572 95 611 177 c 1,17,-1
 634 177 l 1,0,-1
EndSplineSet
EndChar

StartChar: bracketleft
Encoding: 91 91 60
Width: 333
Flags: W
HStem: -157 26<157.348 267> 636 26<308.927 435>
DStem2: 55 -157 131.082 -157 0.207912 0.978148<76.0814 817.188>
LayerCount: 3
Fore
SplineSet
267 -157 m 1
 55 -157 l 1
 229 662 l 1
 441 662 l 1
 435 636 l 1
 356 636 l 2
 310 636 297 625 287 581 c 2
 150 -68 l 2
 147 -81 146 -91 146 -99 c 0
 146 -125 160 -131 196 -131 c 2
 272 -131 l 1
 267 -157 l 1
EndSplineSet
Validated: 1
Layer: 2
SplineSet
267 -157 m 1,0,-1
 55 -157 l 1,1,-1
 229 662 l 1,2,-1
 441 662 l 1,3,-1
 435 636 l 1,4,-1
 356 636 l 2,5,6
 322 636 322 636 308.5 625 c 128,-1,7
 295 614 295 614 287 581 c 2,8,-1
 150 -68 l 2,9,10
 146 -85 146 -85 146 -99 c 0,11,12
 146 -118 146 -118 157 -124.5 c 128,-1,13
 168 -131 168 -131 196 -131 c 2,14,-1
 272 -131 l 1,15,-1
 267 -157 l 1,0,-1
EndSplineSet
EndChar

StartChar: backslash
Encoding: 92 92 61
Width: 278
Flags: W
HStem: 0 21G<282.343 361> 662 20G<62 140.657>
VStem: 62 299
DStem2: 134 682 62 682 0.31581 -0.948822<0 696.047>
LayerCount: 3
Fore
SplineSet
361 0 m 1
 289 0 l 1
 62 682 l 1
 134 682 l 1
 361 0 l 1
EndSplineSet
Validated: 1
Layer: 2
SplineSet
361 0 m 1,0,-1
 289 0 l 1,1,-1
 62 682 l 1,2,-1
 134 682 l 1,3,-1
 361 0 l 1,0,-1
EndSplineSet
EndChar

StartChar: bracketright
Encoding: 93 93 62
Width: 333
Flags: W
HStem: -157 26<6 132.586> 636 26<175 291.51>
DStem2: 135.447 -157 210.916 -157 0.207912 0.978148<37.5935 780.282>
LayerCount: 3
Fore
SplineSet
211 -157 m 1
 1 -157 l 1
 6 -131 l 1
 75 -131 l 1
 136 -129 143 -121 156 -63 c 2
 287 556 l 2
 292 577 296 594 296 607 c 0
 296 626 287 636 258 636 c 2
 169 636 l 1
 175 662 l 1
 385 662 l 1
 211 -157 l 1
EndSplineSet
Validated: 1
Layer: 2
SplineSet
211 -157 m 1,0,-1
 1 -157 l 1,1,-1
 6 -131 l 1,2,-1
 75 -131 l 2,3,4
 120 -130 120 -130 133 -118.5 c 128,-1,5
 146 -107 146 -107 156 -63 c 2,6,-1
 287 556 l 2,7,8
 296 594 296 594 296 607 c 0,9,10
 296 636 296 636 258 636 c 2,11,-1
 169 636 l 1,12,-1
 175 662 l 1,13,-1
 385 662 l 1,14,-1
 211 -157 l 1,0,-1
EndSplineSet
EndChar

StartChar: asciicircum
Encoding: 94 94 63
Width: 468
Flags: W
HStem: 642 20G<330.42 413.086>
VStem: 69 72<257 329> 437 74<257 331>
LayerCount: 3
Fore
SplineSet
511 257 m 1
 437 257 l 1
 361 593 l 1
 141 257 l 1
 69 257 l 1
 344 662 l 1
 408 662 l 1
 511 257 l 1
EndSplineSet
Validated: 1
Layer: 2
SplineSet
511 257 m 1,0,-1
 437 257 l 1,1,-1
 361 593 l 1,2,-1
 141 257 l 1,3,-1
 69 257 l 1,4,-1
 344 662 l 1,5,-1
 408 662 l 1,6,-1
 511 257 l 1,0,-1
EndSplineSet
EndChar

StartChar: underscore
Encoding: 95 95 64
Width: 499
Flags: W
HStem: -174 59<-24 462>
LayerCount: 3
Fore
SplineSet
462 -174 m 1
 -37 -174 l 1
 -24 -115 l 1
 475 -115 l 1
 462 -174 l 1
EndSplineSet
Validated: 1
Layer: 2
SplineSet
462 -174 m 1,0,-1
 -37 -174 l 1,1,-1
 -24 -115 l 1,2,-1
 475 -115 l 1,3,-1
 462 -174 l 1,0,-1
EndSplineSet
EndChar

StartChar: grave
Encoding: 96 96 65
Width: 333
Flags: W
HStem: 507 170
VStem: 153 198
LayerCount: 3
Fore
SplineSet
351 507 m 1
 311 507 l 1
 187 598 l 1
 173 606 153 622 153 638 c 0
 153 646 161 677 192 677 c 0
 219 677 228 661 241 645 c 2
 351 507 l 1
EndSplineSet
Validated: 1
Layer: 2
SplineSet
351 507 m 1,0,-1
 311 507 l 1,1,-1
 187 598 l 1,2,3
 153 617 153 617 153 638 c 0,4,5
 153 649 153 649 162.5 663 c 128,-1,6
 172 677 172 677 192 677 c 0,7,8
 199 677 199 677 204.5 675.5 c 128,-1,9
 210 674 210 674 213.5 672.5 c 128,-1,10
 217 671 217 671 222 666.5 c 128,-1,11
 227 662 227 662 228 661 c 128,-1,12
 229 660 229 660 235 653 c 128,-1,13
 241 646 241 646 241 645 c 2,14,-1
 351 507 l 1,0,-1
EndSplineSet
EndChar

StartChar: a
Encoding: 97 97 66
Width: 443
Flags: W
HStem: -11 57<121.5 216.254 328 409.977> 435 23<255.094 343.334>
VStem: 55 94<62.0141 141.706> 127 91<316.722 382.85> 299 83<21.9275 119.078> 358 80<290.243 425.016>
DStem2: 237 253 262 237 0.943667 0.330896<-55.2 99.8387> 280.682 -11 364.295 -11 0.207912 0.978148<96.596 281.116 295.131 397.666>
LayerCount: 3
Fore
SplineSet
127 335 m 0xd4
 127 365 178 458 321 458 c 0
 405 458 438 431 438 364 c 0xd4
 438 343 434 317 428 287 c 2
 383 77 l 2
 382 73 382 69 382 66 c 0
 382 53 388 46 400 46 c 0
 412 46 431 54 457 69 c 1
 451 43 l 1
 432 25 385 -11 357 -11 c 0
 314 -11 299 16 299 47 c 0
 299 53 300 60 301 66 c 1
 248 25 184 -11 141 -11 c 0
 89 -11 55 25 55 73 c 0xe8
 55 210 275 265 345 290 c 1
 353 328 358 357 358 380 c 0
 358 419 342 435 302 435 c 0
 282 435 245 425 231 407 c 1
 221 386 225 378 218 349 c 0
 213 326 188 304 165 304 c 0
 139 304 127 317 127 335 c 0xd4
339 264 m 1
 278 241 149 217 149 107 c 0xe0
 149 75 166 49 205 49 c 0
 225 49 288 71 303 94 c 1
 339 264 l 1
EndSplineSet
Validated: 1
Layer: 2
SplineSet
127 335 m 0,0,1
 127 348 127 348 138 367 c 128,-1,2
 149 386 149 386 170 407.5 c 128,-1,3
 191 429 191 429 231 443.5 c 128,-1,4
 271 458 271 458 321 458 c 0,5,6
 384 458 384 458 411 436 c 128,-1,7
 438 414 438 414 438 364 c 0,8,9
 438 337 438 337 428 287 c 2,10,-1
 383 77 l 2,11,12
 382 73 382 73 382 66 c 0,13,14
 382 46 382 46 400 46 c 0,15,16
 417 46 417 46 457 69 c 1,17,-1
 451 43 l 1,18,19
 432 25 432 25 404 7 c 128,-1,20
 376 -11 376 -11 357 -11 c 0,21,22
 299 -11 299 -11 299 47 c 0,23,24
 299 54 299 54 301 66 c 1,25,26
 201 -11 201 -11 141 -11 c 0,27,28
 102 -11 102 -11 78.5 12.5 c 128,-1,29
 55 36 55 36 55 73 c 0,30,31
 55 106 55 106 73 135.5 c 128,-1,32
 91 165 91 165 113 184 c 128,-1,33
 135 203 135 203 175.5 224 c 128,-1,34
 216 245 216 245 237 253 c 128,-1,35
 258 261 258 261 301 275.5 c 128,-1,36
 344 290 344 290 345 290 c 0,37,38
 358 352 358 352 358 380 c 0,39,40
 358 409 358 409 345 422 c 128,-1,41
 332 435 332 435 302 435 c 0,42,43
 285 435 285 435 263 427 c 128,-1,44
 241 419 241 419 231 407 c 0,45,46
 227 398 227 398 225 390 c 128,-1,47
 223 382 223 382 222 371 c 128,-1,48
 221 360 221 360 218 349 c 0,49,50
 214 332 214 332 198 318 c 128,-1,51
 182 304 182 304 165 304 c 0,52,53
 127 304 127 304 127 335 c 0,0,1
339 264 m 1,54,55
 331 261 331 261 304.5 252 c 128,-1,56
 278 243 278 243 262 237 c 128,-1,57
 246 231 246 231 222 218 c 128,-1,58
 198 205 198 205 184 191 c 128,-1,59
 170 177 170 177 159.5 155 c 128,-1,60
 149 133 149 133 149 107 c 128,-1,61
 149 81 149 81 163 65 c 128,-1,62
 177 49 177 49 205 49 c 0,63,64
 223 49 223 49 258 63.5 c 128,-1,65
 293 78 293 78 303 94 c 1,66,-1
 339 264 l 1,54,55
EndSplineSet
EndChar

StartChar: b
Encoding: 98 98 67
Width: 499
Flags: W
HStem: -11 34<193.52 326.638> 396 62<309.386 404.052> 619 18<144 182.227> 662 20G<243.182 300.724>
VStem: 437 94<189.21 360.427>
DStem2: 71.1838 -11 157.783 -11 0.207912 0.978148<76.5161 411.523 415.598 621.851>
LayerCount: 3
Back
SplineSet
531 300 m 0
 531 145 393 -11 241 -11 c 0
 165 -11 79 24 85 54 c 2
 193 559 l 2
 197 576 199 589 199 598 c 0
 199 617 190 619 169 619 c 2
 141 619 l 1
 144 637 l 1
 183 647 209 651 237 660 c 2
 305 682 l 1
 240 378 l 1
 278 430 340 458 398 458 c 0
 492 458 531 382 531 300 c 0
262 23 m 0
 384 23 437 169 437 271 c 0
 437 335 415 396 342 396 c 0
 268 396 235 353 226 309 c 2
 175 70 l 2
 170 46 211 23 262 23 c 0
EndSplineSet
Fore
SplineSet
531 300 m 0
 531 145 393 -11 241 -11 c 0
 165 -11 85 21 85 54 c 1
 193 559 l 2
 197 576 199 589 199 598 c 0
 199 617 190 619 169 619 c 2
 141 619 l 1
 144 637 l 1
 183 647 209 651 237 660 c 2
 305 682 l 1
 240 378 l 1
 278 430 340 458 398 458 c 0
 492 458 531 382 531 300 c 0
262 23 m 0
 384 23 437 169 437 271 c 0
 437 335 415 396 342 396 c 0
 268 396 235 353 226 309 c 2
 175 70 l 1
 175 44 209 23 262 23 c 0
EndSplineSet
Validated: 1
Layer: 2
SplineSet
531 300 m 0,0,1
 531 182 531 182 442.5 85.5 c 128,-1,2
 354 -11 354 -11 241 -11 c 0,3,4
 183 -11 183 -11 134 9 c 128,-1,5
 85 29 85 29 85 54 c 1,6,-1
 193 559 l 2,7,8
 199 584.5 199 584.5 199 598 c 0,9,10
 199 611 199 611 192.5 615 c 128,-1,11
 186 619 186 619 169 619 c 2,12,-1
 141 619 l 1,13,-1
 144 637 l 1,14,15
 157 640 157 640 189 647.5 c 128,-1,16
 221 655 221 655 237 660 c 2,17,-1
 305 682 l 1,18,-1
 240 378 l 1,19,20
 268 416 268 416 310.5 437 c 128,-1,21
 353 458 353 458 398 458 c 0,22,23
 464 458 464 458 497.5 412.5 c 128,-1,24
 531 367 531 367 531 300 c 0,0,1
262 23 m 0,25,26
 305 23 305 23 340 47 c 128,-1,27
 375 71 375 71 395.5 109 c 128,-1,28
 416 147 416 147 426.5 189 c 128,-1,29
 437 231 437 231 437 271 c 0,30,31
 437 326 437 326 415 361 c 128,-1,32
 393 396 393 396 342 396 c 128,-1,33
 291 396 291 396 262.5 371 c 128,-1,34
 234 346 234 346 226 309 c 2,35,-1
 175 70 l 1,36,37
 175 50 175 50 199 36.5 c 128,-1,38
 223 23 223 23 262 23 c 0,25,26
EndSplineSet
EndChar

StartChar: c
Encoding: 99 99 68
Width: 443
Flags: W
HStem: -11 71<200.063 303.781> 429 29<262.714 370.741>
VStem: 64 88<113.157 265.018> 385 90<328.391 419.91>
LayerCount: 3
Fore
SplineSet
321 429 m 0
 220 429 152 304 152 203 c 0
 152 128 186 60 270 60 c 0
 336 60 387 106 431 157 c 1
 444 149 l 1
 383 63 313 -11 210 -11 c 0
 119 -11 64 61 64 157 c 0
 64 273 153 458 346 458 c 0
 400 458 475 430 475 370 c 0
 475 334 440 316 420 316 c 0
 399 316 382 334 382 353 c 0
 382 358 385 368 385 378 c 0
 385 408 366 429 321 429 c 0
EndSplineSet
Validated: 1
Layer: 2
SplineSet
321 429 m 0,0,1
 249 429 249 429 200.5 357 c 128,-1,2
 152 285 152 285 152 203 c 0,3,4
 152 142 152 142 181.5 101 c 128,-1,5
 211 60 211 60 270 60 c 0,6,7
 347 60 347 60 431 157 c 1,8,-1
 444 149 l 1,9,10
 390 73 390 73 335.5 31 c 128,-1,11
 281 -11 281 -11 210 -11 c 0,12,13
 143 -11 143 -11 103.5 36 c 128,-1,14
 64 83 64 83 64 157 c 0,15,16
 64 203 64 203 81.5 253.5 c 128,-1,17
 99 304 99 304 132 350.5 c 128,-1,18
 165 397 165 397 221 427.5 c 128,-1,19
 277 458 277 458 346 458 c 0,20,21
 393 458 393 458 434 434.5 c 128,-1,22
 475 411 475 411 475 370 c 0,23,24
 475 346 475 346 456.5 331 c 128,-1,25
 438 316 438 316 420 316 c 0,26,27
 404 316 404 316 393 327 c 128,-1,28
 382 338 382 338 382 353 c 0,29,30
 382 355 382 355 383.5 363.5 c 128,-1,31
 385 372 385 372 385 378 c 0,32,33
 385 429 385 429 321 429 c 0,0,1
EndSplineSet
EndChar

StartChar: d
Encoding: 100 100 69
Width: 499
Flags: W
HStem: -11 49<194.593 289.24> 45 15<474.902 500> 427 31<269.312 379.223> 619 18<408 447.052> 662 20G<507.182 564.736>
VStem: 64 91<79.8434 260.32>
DStem2: 336.257 -14 420.682 -14 0.207912 0.978148<116.07 362.615 441.634 626.771>
LayerCount: 3
Fore
SplineSet
64 149 m 0
 64 302 197 458 334 458 c 0
 384 458 418 433 428 418 c 1
 458 559 l 2
 462 578 464 591 464 600 c 0
 464 617 456 619 434 619 c 2
 405 619 l 1
 408 637 l 1
 448 647 474 651 501 660 c 2
 569 682 l 1
 443 91 l 2
 442 88 442 85 442 82 c 0
 442 62 460 60 480 60 c 2
 503 60 l 1
 500 45 l 1
 449 31 395 12 336 -14 c 1
 352 60 l 1
 317 20 261 -11 210 -11 c 0
 109 -11 64 61 64 149 c 0
326 427 m 0
 224 427 155 285 155 168 c 0
 155 84 194 38 258 38 c 0
 315 38 357 83 364 117 c 2
 403 300 l 2
 406 315 408 329 408 342 c 0
 408 392 383 427 326 427 c 0
EndSplineSet
Validated: 1
Layer: 2
SplineSet
64 149 m 0,0,1
 64 264 64 264 148 361 c 128,-1,2
 232 458 232 458 334 458 c 0,3,4
 368 458 368 458 393.5 445 c 128,-1,5
 419 432 419 432 428 418 c 1,6,-1
 458 559 l 2,7,8
 464 588 464 588 464 600 c 128,-1,9
 464 612 464 612 458 615.5 c 128,-1,10
 452 619 452 619 434 619 c 2,11,-1
 405 619 l 1,12,-1
 408 637 l 1,13,14
 423 641 423 641 442.5 645 c 128,-1,15
 462 649 462 649 475.5 652.5 c 128,-1,16
 489 656 489 656 501 660 c 2,17,-1
 569 682 l 1,18,-1
 443 91 l 2,19,20
 442 88 442 88 442 82 c 0,21,22
 442 60 442 60 480 60 c 2,23,-1
 503 60 l 1,24,-1
 500 45 l 1,25,26
 420 23 420 23 336 -14 c 1,27,-1
 352 60 l 1,28,29
 325 29 325 29 286 9 c 128,-1,30
 247 -11 247 -11 210 -11 c 0,31,32
 138 -11 138 -11 101 34 c 128,-1,33
 64 79 64 79 64 149 c 0,0,1
326 427 m 0,34,35
 277 427 277 427 237 386.5 c 128,-1,36
 197 346 197 346 176 287 c 128,-1,37
 155 228 155 228 155 168 c 0,38,39
 155 106 155 106 182.5 72 c 128,-1,40
 210 38 210 38 258 38 c 0,41,42
 298 38 298 38 328 63.5 c 128,-1,43
 358 89 358 89 364 117 c 2,44,-1
 403 300 l 2,45,46
 408 325 408 325 408 342 c 0,47,48
 408 381 408 381 387.5 404 c 128,-1,49
 367 427 367 427 326 427 c 0,34,35
EndSplineSet
EndChar

StartChar: e
Encoding: 101 101 70
Width: 443
Flags: W
HStem: -11 68<194.967 303.927> 276 31<159 366.644> 422 36<236.245 345.164>
VStem: 62 81<116.239 265.699> 367 98<307 399.887>
LayerCount: 3
Fore
SplineSet
62 157 m 0
 62 278 156 458 323 458 c 0
 415 458 465 399 465 318 c 0
 465 304 464 290 461 276 c 1
 150 276 l 1
 146 256 143 234 143 213 c 0
 143 134 176 57 265 57 c 0
 331 57 396 109 439 164 c 1
 455 158 l 1
 404 68 310 -11 210 -11 c 0
 114 -11 62 63 62 157 c 0
365 307 m 1
 367 317 367 328 367 338 c 0
 367 384 348 422 294 422 c 0
 224 422 182 370 159 307 c 1
 365 307 l 1
EndSplineSet
Validated: 1
Layer: 2
SplineSet
62 157 m 0,0,1
 62 204 62 204 80 255.5 c 128,-1,2
 98 307 98 307 129.5 352.5 c 128,-1,3
 161 398 161 398 212 428 c 128,-1,4
 263 458 263 458 323 458 c 0,5,6
 390 458 390 458 427.5 419.5 c 128,-1,7
 465 381 465 381 465 318 c 0,8,9
 465 295 465 295 461 276 c 1,10,-1
 150 276 l 1,11,12
 143 241 143 241 143 213 c 0,13,14
 143 147 143 147 173 102 c 128,-1,15
 203 57 203 57 265 57 c 0,16,17
 311 57 311 57 357 87.5 c 128,-1,18
 403 118 403 118 439 164 c 1,19,-1
 455 158 l 1,20,21
 414 86 414 86 348 37.5 c 128,-1,22
 282 -11 282 -11 210 -11 c 0,23,24
 140 -11 140 -11 101 36.5 c 128,-1,25
 62 84 62 84 62 157 c 0,0,1
365 307 m 1,26,27
 367 317 367 317 367 338 c 0,28,29
 367 422 367 422 294 422 c 0,30,31
 201 422 201 422 159 307 c 1,32,-1
 365 307 l 1,26,27
EndSplineSet
EndChar

StartChar: f
Encoding: 102 102 71
Width: 332
Flags: W
HStem: 0 15<23 72.3594 224.73 279> 417 33<116 191 281 397> 655 28<345.003 443>
VStem: 426 90<590.792 648.531>
DStem2: 101.894 0 185.894 0 0.207912 0.978148<77.7403 426.414 477.405 603.347>
LayerCount: 3
Fore
SplineSet
516 630 m 0
 516 603 489 580 463 580 c 0
 418 580 436 655 381 655 c 0
 343 655 318 624 305 565 c 2
 281 450 l 1
 404 450 l 1
 397 417 l 1
 275 417 l 1
 208 104 l 2
 204 85 201 70 201 58 c 0
 201 24 222 17 282 15 c 1
 279 0 l 1
 20 0 l 1
 23 15 l 1
 95 19 109 31 124 104 c 2
 191 417 l 1
 109 417 l 1
 116 450 l 1
 198 450 l 1
 216 530 230 565 266 609 c 1
 302 656 361 683 422 683 c 0
 477 683 516 662 516 630 c 0
EndSplineSet
Validated: 1
Layer: 2
SplineSet
516 630 m 0,0,1
 516 610 516 610 499.5 595 c 128,-1,2
 483 580 483 580 463 580 c 0,3,4
 448 580 448 580 439 591.5 c 128,-1,5
 430 603 430 603 426 617.5 c 128,-1,6
 422 632 422 632 410.5 643.5 c 128,-1,7
 399 655 399 655 381 655 c 0,8,9
 325 655 325 655 305 565 c 2,10,-1
 281 450 l 1,11,-1
 404 450 l 1,12,-1
 397 417 l 1,13,-1
 275 417 l 1,14,-1
 208 104 l 2,15,16
 201 71 201 71 201 58 c 0,17,18
 201 33 201 33 218 25 c 128,-1,19
 235 17 235 17 282 15 c 1,20,-1
 279 0 l 1,21,-1
 20 0 l 1,22,-1
 23 15 l 1,23,24
 77 18 77 18 95 33.5 c 128,-1,25
 113 49 113 49 124 104 c 2,26,-1
 191 417 l 1,27,-1
 109 417 l 1,28,-1
 116 450 l 1,29,-1
 198 450 l 1,30,31
 212 511 212 511 225.5 544 c 128,-1,32
 239 577 239 577 266 609 c 0,33,34
 323 683 323 683 422 683 c 0,35,36
 464 683 464 683 490 668.5 c 128,-1,37
 516 654 516 654 516 630 c 0,0,1
EndSplineSet
EndChar

StartChar: g
Encoding: 103 103 72
Width: 499
Flags: W
HStem: -217 56<106.325 276.104> -14 75.5<153.027 410.2> 147 27<247.89 338.634> 386 35<469.92 552> 430 28<273.068 359.226>
VStem: 3 75<-137.732 -78.6895> 84 68<33.5 90.7949> 128 89<198.779 346.177> 391 83<250.945 385.259> 420 34<-84.4854 -12>
LayerCount: 3
Fore
SplineSet
128 263 m 0xfd
 128 362 221 458 341 458 c 0
 415 458 424 421 510 421 c 0
 524 421 541 422 560 424 c 1
 552 386 l 1
 469 386 l 1
 473 372 474 356 474 342 c 0xfd80
 474 225 378 147 275 147 c 0
 258 147 242 151 223 154 c 1
 204 149 152 110 152 87 c 0
 152 66 212 66 236 63 c 1
 355 58 454 66 454 -19 c 0
 454 -160 245 -217 154 -217 c 0
 48 -217 3 -164 3 -125 c 0
 3 -78 66 -45 126 2 c 1
 108 10 84 22 84 46 c 0xfe40
 84 93 171 146 198 163 c 1
 154 183 128 215 128 263 c 0xfd
292 174 m 0
 363 174 391 253 391 316 c 0
 391 369 373 430 321 430 c 0
 238 430 217 339 217 277 c 0
 217 225 234 174 292 174 c 0
206 -161 m 0
 364 -161 420 -99 420 -58 c 0xfc40
 420 -17 357 -15 295 -14 c 0
 250 -14 191 -12 146 -3 c 1
 108 -38 78 -70 78 -101 c 0
 78 -132 113 -161 206 -161 c 0
EndSplineSet
Validated: 1
Layer: 2
SplineSet
128 263 m 0,0,1
 128 339 128 339 190.5 398.5 c 128,-1,2
 253 458 253 458 341 458 c 0,3,4
 376 458 376 458 421 439.5 c 128,-1,5
 466 421 466 421 510 421 c 0,6,7
 532 421 532 421 560 424 c 1,8,-1
 552 386 l 1,9,-1
 469 386 l 1,10,11
 474 368 474 368 474 342 c 0,12,13
 474 257 474 257 414.5 202 c 128,-1,14
 355 147 355 147 275 147 c 0,15,16
 267 147 267 147 223 154 c 1,17,18
 206 150 206 150 179 126.5 c 128,-1,19
 152 103 152 103 152 87 c 0,20,21
 152 81 152 81 158 77 c 128,-1,22
 164 73 164 73 175 70.5 c 128,-1,23
 186 68 186 68 195.5 67 c 128,-1,24
 205 66 205 66 218.5 65 c 128,-1,25
 232 64 232 64 236 63 c 0,26,27
 250 62 250 62 274.5 61.5 c 128,-1,28
 299 61 299 61 312 60.5 c 128,-1,29
 325 60 325 60 345 58.5 c 128,-1,30
 365 57 365 57 376 54.5 c 128,-1,31
 387 52 387 52 402 48.5 c 128,-1,32
 417 45 417 45 424.5 39 c 128,-1,33
 432 33 432 33 440 25 c 128,-1,34
 448 17 448 17 451 6 c 128,-1,35
 454 -5 454 -5 454 -19 c 0,36,37
 454 -69 454 -69 420.5 -109 c 128,-1,38
 387 -149 387 -149 337.5 -171.5 c 128,-1,39
 288 -194 288 -194 240 -205.5 c 128,-1,40
 192 -217 192 -217 154 -217 c 0,41,42
 81 -217 81 -217 42 -188 c 128,-1,43
 3 -159 3 -159 3 -125 c 0,44,45
 3 -112 3 -112 9.5 -99 c 128,-1,46
 16 -86 16 -86 30 -73 c 128,-1,47
 44 -60 44 -60 56 -50 c 128,-1,48
 68 -40 68 -40 90.5 -24 c 128,-1,49
 113 -8 113 -8 126 2 c 1,50,51
 84 21 84 21 84 46 c 0,52,53
 84 91 84 91 198 163 c 1,54,55
 128 195 128 195 128 263 c 0,0,1
292 174 m 0,56,57
 341 174 341 174 366 217.5 c 128,-1,58
 391 261 391 261 391 316 c 0,59,60
 391 362 391 362 374 396 c 128,-1,61
 357 430 357 430 321 430 c 0,62,63
 282 430 282 430 257.5 403.5 c 128,-1,64
 233 377 233 377 225 345 c 128,-1,65
 217 313 217 313 217 277 c 0,66,67
 217 174 217 174 292 174 c 0,56,57
206 -161 m 0,68,69
 313 -161 313 -161 366.5 -128.5 c 128,-1,70
 420 -96 420 -96 420 -58 c 0,71,72
 420 -43 420 -43 410.5 -34 c 128,-1,73
 401 -25 401 -25 380 -21 c 128,-1,74
 359 -17 359 -17 342 -15.5 c 128,-1,75
 325 -14 325 -14 295 -14 c 0,76,77
 201 -14 201 -14 146 -3 c 1,78,79
 78 -66 78 -66 78 -101 c 0,80,81
 78 -127 78 -127 109.5 -144 c 128,-1,82
 141 -161 141 -161 206 -161 c 0,68,69
EndSplineSet
EndChar

StartChar: h
Encoding: 104 104 73
Width: 499
Flags: W
HStem: 0 14<12 45.6926 193.395 220 283 316.693 463.395 490> 404 54<313.318 402.874> 619 18<144 179.372> 662 20G<240.182 297.724>
VStem: 412 86<232.75 394.417>
DStem2: 71.9955 0 156.995 0 0.207912 0.978148<75.6823 398.643 404.046 609.543> 342.996 0 426.571 0 0.207912 0.978148<75.4742 352.019>
LayerCount: 3
Fore
SplineSet
490 0 m 1
 280 0 l 1
 283 14 l 1
 331 18 351 37 360 80 c 2
 404 287 l 2
 409 308 412 328 412 346 c 0
 412 379 399 404 352 404 c 0
 296 404 266 376 230 344 c 1
 174 80 l 2
 172 71 171 63 171 56 c 0
 171 30 186 17 223 14 c 1
 220 0 l 1
 9 0 l 1
 12 14 l 1
 61 18 80 37 89 80 c 2
 191 559 l 2
 195 576 197 589 197 597 c 0
 197 616 188 619 167 619 c 2
 141 619 l 1
 144 637 l 1
 181 647 207 651 234 660 c 2
 302 682 l 1
 237 378 l 1
 280 422 338 458 398 458 c 0
 471 458 498 427 498 368 c 0
 498 345 495 319 488 289 c 2
 444 80 l 2
 442 71 441 63 441 56 c 0
 441 30 456 17 493 14 c 1
 490 0 l 1
EndSplineSet
Validated: 1
Layer: 2
SplineSet
490 0 m 1,0,-1
 280 0 l 1,1,-1
 283 14 l 1,2,3
 319 17 319 17 336 32 c 128,-1,4
 353 47 353 47 360 80 c 2,5,-1
 404 287 l 2,6,7
 412 321 412 321 412 346 c 0,8,9
 412 404 412 404 352 404 c 0,10,11
 326 404 326 404 302.5 394 c 128,-1,12
 279 384 279 384 266.5 375 c 128,-1,13
 254 366 254 366 230 344 c 1,14,-1
 174 80 l 2,15,16
 171 66.5 171 66.5 171 56 c 0,17,18
 171 18 171 18 223 14 c 1,19,-1
 220 0 l 1,20,-1
 9 0 l 1,21,-1
 12 14 l 1,22,23
 48 17 48 17 65 32 c 128,-1,24
 82 47 82 47 89 80 c 2,25,-1
 191 559 l 2,26,27
 197 584 197 584 197 597 c 0,28,29
 197 611 197 611 190.5 615 c 128,-1,30
 184 619 184 619 167 619 c 2,31,-1
 141 619 l 1,32,-1
 144 637 l 1,33,34
 158 641 158 641 188.5 648 c 128,-1,35
 219 655 219 655 234 660 c 2,36,-1
 302 682 l 1,37,-1
 237 378 l 1,38,39
 315 458 315 458 398 458 c 0,40,41
 451 458 451 458 474.5 436 c 128,-1,42
 498 414 498 414 498 368 c 0,43,44
 498 332 498 332 488 289 c 2,45,-1
 444 80 l 2,46,47
 441 66.5 441 66.5 441 56 c 0,48,49
 441 18 441 18 493 14 c 1,50,-1
 490 0 l 1,0,-1
EndSplineSet
EndChar

StartChar: i
Encoding: 105 105 74
Width: 278
Flags: W
HStem: 0 14<26 66.6482 222.757 260> 390 14<109 130.609> 438 20G<216.667 275.767> 579 103<232.596 302.206>
VStem: 216 103<595.938 665.428>
DStem2: 98.3442 0 182.649 0 0.207912 0.978148<76.6027 378.28>
LayerCount: 3
Fore
SplineSet
319 641 m 0
 319 608 287 579 257 579 c 0
 231 579 216 596 216 619 c 0
 216 650 243 682 279 682 c 0
 302 682 319 665 319 641 c 0
260 0 m 1
 23 0 l 1
 26 14 l 1
 87 18 106 37 115 80 c 2
 167 323 l 2
 171 344 174 360 174 371 c 0
 174 391 167 398 150 398 c 0
 140 398 125 395 106 390 c 1
 109 404 l 1
 280 458 l 1
 200 80 l 2
 198 72 197 64 197 57 c 0
 197 30 214 17 263 14 c 1
 260 0 l 1
EndSplineSet
Validated: 1
Layer: 2
SplineSet
319 641 m 0,0,1
 319 617 319 617 299.5 598 c 128,-1,2
 280 579 280 579 257 579 c 0,3,4
 238 579 238 579 227 590 c 128,-1,5
 216 601 216 601 216 619 c 0,6,7
 216 643 216 643 234.5 662.5 c 128,-1,8
 253 682 253 682 279 682 c 0,9,10
 296 682 296 682 307.5 670.5 c 128,-1,11
 319 659 319 659 319 641 c 0,0,1
260 0 m 1,12,-1
 23 0 l 1,13,-1
 26 14 l 1,14,15
 70 17 70 17 89 32 c 128,-1,16
 108 47 108 47 115 80 c 2,17,-1
 167 323 l 2,18,19
 174 360 174 360 174 371 c 0,20,21
 174 398 174 398 150 398 c 0,22,23
 136 398 136 398 106 390 c 1,24,-1
 109 404 l 1,25,-1
 280 458 l 1,26,-1
 200 80 l 2,27,28
 197 68 197 68 197 57 c 0,29,30
 197 36 197 36 212 26 c 128,-1,31
 227 16 227 16 263 14 c 1,32,-1
 260 0 l 1,12,-1
EndSplineSet
EndChar

StartChar: j
Encoding: 106 106 75
Width: 278
Flags: W
HStem: -217 99<-72.4685 -6.5007> -217 33<-18.5 71.0166> 390 14<134 155.907> 438 20G<240.407 298.785> 579 103<261.139 330.158>
VStem: 244 103<595.794 665.158>
DStem2: 74.9683 -217 159.524 -217 0.207912 0.978148<109.101 600.543>
LayerCount: 3
Fore
SplineSet
347 641 m 0x3c
 347 608 316 579 284 579 c 0
 261 579 244 596 244 619 c 0
 244 653 276 682 306 682 c 0
 330 682 347 665 347 641 c 0x3c
-90 -168 m 0
 -90 -133 -57 -118 -38 -118 c 0xbc
 0 -118 -15 -156 31 -181 c 0
 35 -183 40 -184 44 -184 c 0x7c
 74 -184 94 -129 101 -94 c 2
 194 343 l 2
 196 354 198 363 198 371 c 0
 198 388 190 394 170 394 c 0
 160 394 147 392 131 390 c 1
 134 404 l 1
 303 458 l 1
 209 12 l 2
 176 -140 101 -217 -11 -217 c 0xbc
 -34 -217 -90 -207 -90 -168 c 0
EndSplineSet
Validated: 1
Layer: 2
SplineSet
347 641 m 0,0,1
 347 617 347 617 327.5 598 c 128,-1,2
 308 579 308 579 284 579 c 0,3,4
 267 579 267 579 255.5 590.5 c 128,-1,5
 244 602 244 602 244 619 c 0,6,7
 244 644 244 644 263.5 663 c 128,-1,8
 283 682 283 682 306 682 c 0,9,10
 324 682 324 682 335.5 670.5 c 128,-1,11
 347 659 347 659 347 641 c 0,0,1
-90 -168 m 0,12,13
 -90 -144 -90 -144 -73 -131 c 128,-1,14
 -56 -118 -56 -118 -38 -118 c 0,15,16
 -25 -118 -25 -118 -17.5 -124.5 c 128,-1,17
 -10 -131 -10 -131 -6.5 -140 c 128,-1,18
 -3 -149 -3 -149 6.5 -161 c 128,-1,19
 16 -173 16 -173 31 -181 c 0,20,21
 37 -184 37 -184 44 -184 c 0,22,23
 64 -184 64 -184 79 -155.5 c 128,-1,24
 94 -127 94 -127 101 -94 c 2,25,-1
 194 343 l 2,26,27
 198 365 198 365 198 371 c 0,28,29
 198 394 198 394 170 394 c 0,30,31
 163 394 163 394 131 390 c 1,32,-1
 134 404 l 1,33,-1
 303 458 l 1,34,-1
 209 12 l 2,35,36
 159 -217 159 -217 -11 -217 c 0,37,38
 -26 -217 -26 -217 -42.5 -213.5 c 128,-1,39
 -59 -210 -59 -210 -74.5 -198 c 128,-1,40
 -90 -186 -90 -186 -90 -168 c 0,12,13
EndSplineSet
EndChar

StartChar: k
Encoding: 107 107 76
Width: 499
Flags: W
HStem: 0 14<5 45.6482 200.662 237 286 316.992 472.125 499> 433 14<365 404.858 516.604 567> 619 18<146 184.484> 662 20G<244.182 301.752>
DStem2: 76.9955 0 160.995 0 0.207912 0.978148<77.4151 270.087 286.361 614.796> 290 283 214 247 0.479166 -0.877724<-3.26168 232.499> 217 263 290 283 0.804513 0.593936<70.6081 246.849>
LayerCount: 3
Fore
SplineSet
499 0 m 1
 283 0 l 1
 286 14 l 1
 312 14 325 23 325 37 c 0
 325 41 324 46 321 51 c 2
 214 247 l 1
 178 80 l 2
 176 72 175 64 175 58 c 0
 175 30 192 17 240 14 c 1
 237 0 l 1
 2 0 l 1
 5 14 l 1
 65 18 85 37 94 80 c 2
 200 579 l 2
 202 589 203 596 203 602 c 0
 203 616 195 619 176 619 c 2
 143 619 l 1
 146 637 l 1
 186 647 212 651 238 660 c 2
 306 682 l 1
 217 263 l 1
 366 373 l 2
 400 398 409 409 409 419 c 0
 409 429 396 433 362 433 c 1
 365 447 l 1
 570 447 l 1
 567 433 l 1
 464 433 398 362 290 283 c 1
 396 98 l 2
 418 58 451 17 502 14 c 1
 499 0 l 1
EndSplineSet
Validated: 1
Layer: 2
SplineSet
499 0 m 1,0,-1
 283 0 l 1,1,-1
 286 14 l 1,2,3
 325 14 325 14 325 37 c 0,4,5
 325 44 325 44 321 51 c 2,6,-1
 214 247 l 1,7,-1
 178 80 l 2,8,9
 175 68 175 68 175 58 c 0,10,11
 175 37 175 37 189.5 26.5 c 128,-1,12
 204 16 204 16 240 14 c 1,13,-1
 237 0 l 1,14,-1
 2 0 l 1,15,-1
 5 14 l 1,16,17
 49 17 49 17 68 32 c 128,-1,18
 87 47 87 47 94 80 c 2,19,-1
 200 579 l 2,20,21
 203 594 203 594 203 602 c 0,22,23
 203 619 203 619 176 619 c 2,24,-1
 143 619 l 1,25,-1
 146 637 l 1,26,27
 160 641 160 641 180 645 c 128,-1,28
 200 649 200 649 213 652.5 c 128,-1,29
 226 656 226 656 238 660 c 2,30,-1
 306 682 l 1,31,-1
 217 263 l 1,32,-1
 366 373 l 2,33,34
 409 405 409 405 409 419 c 128,-1,35
 409 433 409 433 362 433 c 1,36,-1
 365 447 l 1,37,-1
 570 447 l 1,38,-1
 567 433 l 1,39,40
 530 433 530 433 491.5 418 c 128,-1,41
 453 403 453 403 433.5 390.5 c 128,-1,42
 414 378 414 378 360.5 337 c 128,-1,43
 307 296 307 296 290 283 c 1,44,-1
 396 98 l 2,45,46
 440 18 440 18 502 14 c 1,47,-1
 499 0 l 1,0,-1
EndSplineSet
EndChar

StartChar: l
Encoding: 108 108 77
Width: 278
Flags: W
HStem: 0 14<23 65.2375 222.092 260> 624 13<155 185.591> 662 20G<291.5 323.748>
VStem: 20 308
DStem2: 97.1809 0 183.036 0 0.207912 0.978148<76.7844 614.753>
LayerCount: 3
Fore
SplineSet
260 0 m 1
 20 0 l 1
 23 14 l 1
 87 18 105 37 114 80 c 2
 216 559 l 2
 220 579 223 592 223 602 c 0
 223 622 213 624 187 624 c 2
 153 624 l 1
 155 637 l 1
 206 647 279 665 328 682 c 1
 200 80 l 2
 198 71 197 64 197 57 c 0
 197 30 213 17 263 14 c 1
 260 0 l 1
EndSplineSet
Validated: 1
Layer: 2
SplineSet
260 0 m 1,0,-1
 20 0 l 1,1,-1
 23 14 l 1,2,3
 69 17 69 17 88 31.5 c 128,-1,4
 107 46 107 46 114 80 c 2,5,-1
 216 559 l 2,6,7
 223 594 223 594 223 602 c 0,8,9
 223 616 223 616 215.5 620 c 128,-1,10
 208 624 208 624 187 624 c 2,11,-1
 153 624 l 1,12,-1
 155 637 l 1,13,14
 255 657 255 657 328 682 c 1,15,-1
 200 80 l 2,16,17
 197 66 197 66 197 57 c 0,18,19
 197 36 197 36 211.5 26 c 128,-1,20
 226 16 226 16 263 14 c 1,21,-1
 260 0 l 1,0,-1
EndSplineSet
EndChar

StartChar: m
Encoding: 109 109 78
Width: 777
Flags: W
HStem: 0 14<17 50.6926 197.395 224 286 319.693 466.395 493 556 589.693 736.395 763> 404 54<329.894 431.5 590.919 675.811>
VStem: 686 84<229.047 393.953>
DStem2: 76.9955 0 160.995 0 0.207912 0.978148<76.4072 365.254> 345.995 0 429.995 0 0.207912 0.978148<75.4744 353.148> 615.995 0 699.995 0 0.207912 0.978148<76.4372 358.214>
LayerCount: 3
Fore
SplineSet
246 383 m 0
 253 383 329 458 413 458 c 0
 464 458 496 421 498 373 c 1
 544 415 615 458 671 458 c 0
 749 458 770 415 770 360 c 0
 770 331 764 298 757 267 c 2
 717 80 l 2
 715 71 714 64 714 57 c 0
 714 30 729 17 766 14 c 1
 763 0 l 1
 553 0 l 1
 556 14 l 1
 605 18 624 37 633 80 c 2
 676 283 l 2
 682 312 686 335 686 352 c 0
 686 392 668 404 624 404 c 0
 578 404 534 381 503 344 c 1
 447 80 l 2
 445 71 444 63 444 56 c 0
 444 30 459 17 496 14 c 1
 493 0 l 1
 283 0 l 1
 286 14 l 1
 334 18 354 37 363 80 c 2
 407 287 l 2
 411 307 415 328 415 347 c 0
 415 379 404 404 362 404 c 0
 321 404 265 381 235 346 c 1
 178 80 l 2
 176 71 175 64 175 57 c 0
 175 30 190 17 227 14 c 1
 224 0 l 1
 14 0 l 1
 17 14 l 1
 65 18 85 37 94 80 c 2
 146 323 l 2
 149 338 151 349 151 358 c 0
 151 384 137 389 97 389 c 1
 100 406 l 1
 258 458 l 1
 244 392 l 2
 243 385 243 383 246 383 c 0
EndSplineSet
Validated: 1
Layer: 2
SplineSet
246 383 m 0,0,1
 247 383 247 383 271.5 401.5 c 128,-1,2
 296 420 296 420 336 439 c 128,-1,3
 376 458 376 458 413 458 c 128,-1,4
 450 458 450 458 473 434 c 128,-1,5
 496 410 496 410 498 373 c 1,6,7
 536 408 536 408 584 433 c 128,-1,8
 632 458 632 458 671 458 c 0,9,10
 770 458 770 458 770 360 c 0,11,12
 770 325 770 325 757 267 c 2,13,-1
 717 80 l 2,14,15
 714 67 714 67 714 57 c 0,16,17
 714 18 714 18 766 14 c 1,18,-1
 763 0 l 1,19,-1
 553 0 l 1,20,-1
 556 14 l 1,21,22
 592 17 592 17 609 32 c 128,-1,23
 626 47 626 47 633 80 c 2,24,-1
 676 283 l 2,25,26
 686 331 686 331 686 352 c 0,27,28
 686 381 686 381 672 392.5 c 128,-1,29
 658 404 658 404 624 404 c 0,30,31
 553 404 553 404 503 344 c 1,32,-1
 447 80 l 2,33,34
 444 66.5 444 66.5 444 56 c 0,35,36
 444 18 444 18 496 14 c 1,37,-1
 493 0 l 1,38,-1
 283 0 l 1,39,-1
 286 14 l 1,40,41
 322 17 322 17 339 32 c 128,-1,42
 356 47 356 47 363 80 c 2,43,-1
 407 287 l 2,44,45
 415 327 415 327 415 347 c 0,46,47
 415 404 415 404 362 404 c 0,48,49
 330 404 330 404 293.5 388 c 128,-1,50
 257 372 257 372 235 346 c 1,51,-1
 178 80 l 2,52,53
 175 66 175 66 175 57 c 0,54,55
 175 18 175 18 227 14 c 1,56,-1
 224 0 l 1,57,-1
 14 0 l 1,58,-1
 17 14 l 1,59,60
 53 17 53 17 70 32 c 128,-1,61
 87 47 87 47 94 80 c 2,62,-1
 146 323 l 2,63,64
 151 348 151 348 151 358 c 0,65,66
 151 377 151 377 139.5 383 c 128,-1,67
 128 389 128 389 97 389 c 1,68,-1
 100 406 l 1,69,-1
 258 458 l 1,70,-1
 244 392 l 2,71,72
 243 383 243 383 246 383 c 0,0,1
EndSplineSet
EndChar

StartChar: n
Encoding: 110 110 79
Width: 499
Flags: W
HStem: 0 14<12 45.6926 193.395 220 283 316.693 463.395 490> 396 14<96 118.529> 404 54<322.603 452.5>
VStem: 413 85<231.523 393.949>
DStem2: 71.9955 0 156.995 0 0.207912 0.978148<75.6823 379.36> 343.296 0 427.083 0 0.207912 0.978148<75.4119 353.325>
LayerCount: 3
Fore
SplineSet
490 0 m 1xb0
 280 0 l 1
 283 14 l 1
 331 18 351 37 360 80 c 2
 406 295 l 2
 410 314 413 332 413 347 c 0
 413 381 399 404 352 404 c 0xb0
 304 404 262 373 231 347 c 1
 174 80 l 2
 172 71 171 63 171 56 c 0
 171 30 186 17 223 14 c 1
 220 0 l 1
 9 0 l 1
 12 14 l 1
 61 18 80 37 89 80 c 2
 141 324 l 2
 145 346 148 361 148 372 c 0
 148 392 139 396 118 396 c 2
 93 396 l 1
 96 410 l 1xd0
 254 458 l 1
 237 378 l 1
 282 416 337 458 407 458 c 0
 467 458 498 425 498 360 c 0
 498 341 495 320 490 296 c 2
 444 80 l 2
 442 71 441 63 441 56 c 0
 441 30 456 17 493 14 c 1
 490 0 l 1xb0
EndSplineSet
Validated: 1
Layer: 2
SplineSet
490 0 m 1,0,-1
 280 0 l 1,1,-1
 283 14 l 1,2,3
 319 17 319 17 336 32 c 128,-1,4
 353 47 353 47 360 80 c 2,5,-1
 406 295 l 2,6,7
 413 328 413 328 413 347 c 0,8,9
 413 404 413 404 352 404 c 0,10,11
 299 404 299 404 231 347 c 1,12,-1
 174 80 l 2,13,14
 171 66.5 171 66.5 171 56 c 0,15,16
 171 18 171 18 223 14 c 1,17,-1
 220 0 l 1,18,-1
 9 0 l 1,19,-1
 12 14 l 1,20,21
 48 17 48 17 65 32 c 128,-1,22
 82 47 82 47 89 80 c 2,23,-1
 141 324 l 2,24,25
 148 362 148 362 148 372 c 0,26,27
 148 386 148 386 141.5 391 c 128,-1,28
 135 396 135 396 118 396 c 2,29,-1
 93 396 l 1,30,-1
 96 410 l 1,31,-1
 254 458 l 1,32,-1
 237 378 l 1,33,34
 265 402 265 402 286.5 416.5 c 128,-1,35
 308 431 308 431 341 444.5 c 128,-1,36
 374 458 374 458 407 458 c 0,37,38
 498 458 498 458 498 360 c 0,39,40
 498 334 498 334 490 296 c 2,41,-1
 444 80 l 2,42,43
 441 66.5 441 66.5 441 56 c 0,44,45
 441 18 441 18 493 14 c 1,46,-1
 490 0 l 1,0,-1
EndSplineSet
EndChar

StartChar: o
Encoding: 111 111 80
Width: 499
Flags: W
HStem: -11 31<215.23 323.665> 427 31<266.242 378.524>
VStem: 72 96<73.7949 271.53> 428 99<187.134 377.903>
LayerCount: 3
Fore
SplineSet
527 290 m 0
 527 162 414 -11 244 -11 c 0
 134 -11 72 68 72 167 c 0
 72 280 162 458 343 458 c 0
 457 458 527 392 527 290 c 0
268 20 m 0
 373 20 428 161 428 280 c 0
 428 354 404 427 324 427 c 0
 199 427 168 249 168 164 c 0
 168 78 199 20 268 20 c 0
EndSplineSet
Validated: 1
Layer: 2
SplineSet
527 290 m 0,0,1
 527 241 527 241 506 188.5 c 128,-1,2
 485 136 485 136 449.5 91.5 c 128,-1,3
 414 47 414 47 359.5 18 c 128,-1,4
 305 -11 305 -11 244 -11 c 0,5,6
 164 -11 164 -11 118 39.5 c 128,-1,7
 72 90 72 90 72 167 c 0,8,9
 72 211 72 211 89.5 260.5 c 128,-1,10
 107 310 107 310 139 354.5 c 128,-1,11
 171 399 171 399 225 428.5 c 128,-1,12
 279 458 279 458 343 458 c 0,13,14
 428 458 428 458 477.5 412.5 c 128,-1,15
 527 367 527 367 527 290 c 0,0,1
268 20 m 128,-1,17
 318 20 318 20 355.5 61 c 128,-1,18
 393 102 393 102 410.5 160 c 128,-1,19
 428 218 428 218 428 280 c 0,20,21
 428 343 428 343 403.5 385 c 128,-1,22
 379 427 379 427 324 427 c 0,23,24
 280 427 280 427 247.5 398.5 c 128,-1,25
 215 370 215 370 199 326.5 c 128,-1,26
 183 283 183 283 175.5 242 c 128,-1,27
 168 201 168 201 168 164 c 0,28,29
 168 97 168 97 193 58.5 c 128,-1,16
 218 20 218 20 268 20 c 128,-1,17
EndSplineSet
EndChar

StartChar: p
Encoding: 112 112 81
Width: 499
Flags: W
HStem: -217 14<-40 1.59033 152.818 197> -11 34<210.749 326.054> 396 14<90 113.778> 402 56<308.44 404.939>
VStem: 436 93<192.698 369.834>
DStem2: 28.9955 -217 113.995 -217 0.207912 0.978148<76.6151 275.186 331.78 600.323>
LayerCount: 3
Fore
SplineSet
529 311 m 0xd8
 529 147 398 -11 251 -11 c 0
 216 -11 185 9 167 35 c 1
 131 -137 l 2
 129 -146 128 -153 128 -160 c 0
 128 -188 145 -201 200 -203 c 1
 197 -217 l 1
 -43 -217 l 1
 -40 -203 l 1
 17 -200 37 -181 46 -137 c 2
 145 327 l 2
 149 345 152 360 152 371 c 0
 152 389 143 398 114 398 c 0
 107 398 97 397 87 396 c 1
 90 410 l 1xe8
 257 458 l 1
 243 389 l 2
 242 387 242 386 243 386 c 0
 249 386 296 458 403 458 c 0
 491 458 529 395 529 311 c 0xd8
268 23 m 0
 360 23 436 149 436 282 c 0
 436 345 416 402 343 402 c 0xd8
 314 402 283 389 258 369 c 1
 235 352 234 347 229 324 c 2
 182 103 l 2
 181 98 180 94 180 90 c 0
 180 45 234 23 268 23 c 0
EndSplineSet
Validated: 1
Layer: 2
SplineSet
529 311 m 0,0,1
 529 187 529 187 444.5 88 c 128,-1,2
 360 -11 360 -11 251 -11 c 0,3,4
 199 -11 199 -11 167 35 c 1,5,-1
 131 -137 l 2,6,7
 128 -151 128 -151 128 -160 c 0,8,9
 128 -182 128 -182 144 -192 c 128,-1,10
 160 -202 160 -202 200 -203 c 1,11,-1
 197 -217 l 1,12,-1
 -43 -217 l 1,13,-1
 -40 -203 l 1,14,15
 2 -201 2 -201 20.5 -186 c 128,-1,16
 39 -171 39 -171 46 -137 c 2,17,-1
 145 327 l 2,18,19
 152 358 152 358 152 371 c 0,20,21
 152 398 152 398 114 398 c 0,22,23
 107 398 107 398 87 396 c 1,24,-1
 90 410 l 1,25,-1
 257 458 l 1,26,-1
 243 389 l 2,27,28
 241.5 386 241.5 386 243 386 c 0,29,30
 244 386 244 386 251.5 393.5 c 128,-1,31
 259 401 259 401 271.5 411.5 c 128,-1,32
 284 422 284 422 301.5 432.5 c 128,-1,33
 319 443 319 443 346 450.5 c 128,-1,34
 373 458 373 458 403 458 c 0,35,36
 466 458 466 458 497.5 418 c 128,-1,37
 529 378 529 378 529 311 c 0,0,1
268 23 m 0,38,39
 336 23 336 23 386 102 c 128,-1,40
 436 181 436 181 436 282 c 0,41,42
 436 402 436 402 343 402 c 0,43,44
 299 402 299 402 258 369 c 0,45,46
 242 357 242 357 237.5 350 c 128,-1,47
 233 343 233 343 229 324 c 2,48,-1
 182 103 l 2,49,50
 180 93 180 93 180 90 c 0,51,52
 180 59 180 59 209 41 c 128,-1,53
 238 23 238 23 268 23 c 0,38,39
EndSplineSet
EndChar

StartChar: q
Encoding: 113 113 82
Width: 499
Flags: W
HStem: -217 14<214 261.964 413.716 452> -11 62<187.044 270.965> 433 25<281.844 389.971>
VStem: 62 92<86.1131 262.218> 415 104<357.834 455>
DStem2: 292.995 -217 377.995 -217 0.207912 0.978148<75.6823 283.215 293.79 600.118>
LayerCount: 3
Fore
SplineSet
62 138 m 0
 62 321 202 458 347 458 c 0
 387 458 422 447 449 425 c 1
 504 456 l 2
 508 458 511 459 513 459 c 0
 518 459 519 456 519 451 c 0
 519 448 518 443 517 439 c 2
 395 -137 l 2
 393 -146 392 -154 392 -161 c 0
 392 -188 408 -201 455 -203 c 1
 452 -217 l 1
 211 -217 l 1
 214 -203 l 1
 281 -200 301 -181 310 -137 c 2
 352 60 l 1
 301 23 247 -11 192 -11 c 0
 93 -11 62 59 62 138 c 0
336 433 m 0
 215 433 154 274 154 171 c 0
 154 99 184 51 244 51 c 0
 281 51 353 68 364 117 c 2
 411 338 l 2
 413 348 415 360 415 371 c 0
 415 402 401 433 336 433 c 0
EndSplineSet
Validated: 1
Layer: 2
SplineSet
62 138 m 0,0,1
 62 272 62 272 148.5 365 c 128,-1,2
 235 458 235 458 347 458 c 0,3,4
 408 458 408 458 449 425 c 1,5,-1
 504 456 l 2,6,7
 510 459 510 459 513 459 c 0,8,9
 519 459 519 459 519 451 c 0,10,11
 519 447 519 447 517 439 c 2,12,-1
 395 -137 l 2,13,14
 392 -150.5 392 -150.5 392 -161 c 0,15,16
 392 -182 392 -182 406 -192 c 128,-1,17
 420 -202 420 -202 455 -203 c 1,18,-1
 452 -217 l 1,19,-1
 211 -217 l 1,20,-1
 214 -203 l 1,21,22
 263 -201 263 -201 283 -186 c 128,-1,23
 303 -171 303 -171 310 -137 c 2,24,-1
 352 60 l 1,25,26
 254 -11 254 -11 192 -11 c 0,27,28
 123 -11 123 -11 92.5 30.5 c 128,-1,29
 62 72 62 72 62 138 c 0,0,1
336 433 m 0,30,31
 279 433 279 433 236 388 c 128,-1,32
 193 343 193 343 173.5 284.5 c 128,-1,33
 154 226 154 226 154 171 c 128,-1,34
 154 116 154 116 177 83.5 c 128,-1,35
 200 51 200 51 244 51 c 0,36,37
 280 51 280 51 318.5 67.5 c 128,-1,38
 357 84 357 84 364 117 c 2,39,-1
 411 338 l 2,40,41
 415 358 415 358 415 371 c 0,42,43
 415 433 415 433 336 433 c 0,30,31
EndSplineSet
EndChar

StartChar: r
Encoding: 114 114 83
Width: 333
Flags: W
HStem: 0 14<8 48.6482 203.662 240> 389 15<91 113.037> 396 62<302.5 397.031>
DStem2: 79.9955 0 163.995 0 0.207912 0.978148<77.4151 367.389>
LayerCount: 3
Fore
SplineSet
422 420 m 0xa0
 422 408 417 361 370 361 c 0
 335 361 334 396 310 396 c 0xa0
 290 396 238 347 232 318 c 2
 181 80 l 2
 179 72 178 64 178 58 c 0
 178 30 195 17 243 14 c 1
 240 0 l 1
 5 0 l 1
 8 14 l 1
 69 18 88 37 97 80 c 2
 143 298 l 2
 149 325 152 346 152 361 c 0
 152 386 143 395 124 395 c 0
 115 395 103 393 88 389 c 1
 91 404 l 1xc0
 261 458 l 1
 242 367 l 1
 269 402 324 458 375 458 c 0
 404 458 422 445 422 420 c 0xa0
EndSplineSet
Validated: 1
Layer: 2
SplineSet
422 420 m 0,0,1
 422 410 422 410 419.5 398.5 c 128,-1,2
 417 387 417 387 404 374 c 128,-1,3
 391 361 391 361 370 361 c 0,4,5
 351 361 351 361 336 378.5 c 128,-1,6
 321 396 321 396 310 396 c 0,7,8
 295 396 295 396 265.5 367.5 c 128,-1,9
 236 339 236 339 232 318 c 2,10,-1
 181 80 l 2,11,12
 178 68 178 68 178 58 c 0,13,14
 178 37 178 37 192.5 26.5 c 128,-1,15
 207 16 207 16 243 14 c 1,16,-1
 240 0 l 1,17,-1
 5 0 l 1,18,-1
 8 14 l 1,19,20
 52 17 52 17 71 32 c 128,-1,21
 90 47 90 47 97 80 c 2,22,-1
 143 298 l 2,23,24
 152 338.5 152 338.5 152 361 c 0,25,26
 152 395 152 395 124 395 c 0,27,28
 110.5 395 110.5 395 88 389 c 1,29,-1
 91 404 l 1,30,-1
 261 458 l 1,31,-1
 242 367 l 1,32,33
 269 401 269 401 305 429.5 c 128,-1,34
 341 458 341 458 375 458 c 0,35,36
 422 458 422 458 422 420 c 0,0,1
EndSplineSet
EndChar

StartChar: s
Encoding: 115 115 84
Width: 388
Flags: W
HStem: -11 25<148.305 251.664> -3 21G<50 64> 429 20G<395 410> 435 23<235.697 326.848>
VStem: 50 14<-3 6.9997> 84 17<121.676 154> 119 73<291.5 381.507> 298 77<73.0038 146.344> 367 15<313 347> 398 12<441.078 449>
LayerCount: 3
Fore
SplineSet
119 310 m 0x8f40
 119 387 193 458 287 458 c 0x9f40
 332 458 351 436 376 436 c 0
 392 436 396 445 398 449 c 1
 410 449 l 1
 382 313 l 1
 367 313 l 1x2ec0
 362 382 349 435 281 435 c 0
 231 435 192 397 192 357 c 0
 192 273 375 247 375 144 c 0
 375 82 314 -11 198 -11 c 0x9f40
 153 -11 124 13 90 13 c 0
 71 13 68 3 64 -3 c 1
 50 -3 l 1x4f40
 84 154 l 1
 101 154 l 1
 101 138 l 2
 101 71 124 14 201 14 c 0
 260 14 298 58 298 98 c 0
 298 185 119 199 119 310 c 0x8f40
EndSplineSet
Validated: 1
Layer: 2
SplineSet
119 310 m 0,0,1
 119 369 119 369 168.5 413.5 c 128,-1,2
 218 458 218 458 287 458 c 0,3,4
 312 458 312 458 339 447 c 128,-1,5
 366 436 366 436 376 436 c 0,6,7
 392 436 392 436 398 449 c 1,8,-1
 410 449 l 1,9,-1
 382 313 l 1,10,-1
 367 313 l 1,11,12
 363 373 363 373 345.5 404 c 128,-1,13
 328 435 328 435 281 435 c 0,14,15
 244 435 244 435 218 411.5 c 128,-1,16
 192 388 192 388 192 357 c 0,17,18
 192 334 192 334 211 313 c 128,-1,19
 230 292 230 292 257 275 c 128,-1,20
 284 258 284 258 310.5 240 c 128,-1,21
 337 222 337 222 356 197 c 128,-1,22
 375 172 375 172 375 144 c 0,23,24
 375 90 375 90 326.5 39.5 c 128,-1,25
 278 -11 278 -11 198 -11 c 0,26,27
 174 -11 174 -11 140 1 c 128,-1,28
 106 13 106 13 90 13 c 0,29,30
 85 13 85 13 81.5 12 c 128,-1,31
 78 11 78 11 75.5 10 c 128,-1,32
 73 9 73 9 71 7 c 128,-1,33
 69 5 69 5 68 4 c 128,-1,34
 67 3 67 3 65.5 0.5 c 128,-1,35
 64 -2 64 -2 64 -3 c 2,36,-1
 50 -3 l 1,37,-1
 84 154 l 1,38,-1
 101 154 l 1,39,-1
 101 138 l 2,40,41
 101 14 101 14 201 14 c 0,42,43
 243 14 243 14 270.5 40 c 128,-1,44
 298 66 298 66 298 98 c 0,45,46
 298 127 298 127 270 152.5 c 128,-1,47
 242 178 242 178 208.5 195 c 128,-1,48
 175 212 175 212 147 242.5 c 128,-1,49
 119 273 119 273 119 310 c 0,0,1
EndSplineSet
EndChar

StartChar: t
Encoding: 116 116 85
Width: 278
Flags: W
HStem: -11 54<132.5 222.349> 416 31<252 343>
VStem: 87 92<44.0652 179.039>
DStem2: 68.2421 -11 154.629 -11 0.207912 0.978148<115.531 436.539>
LayerCount: 3
Fore
SplineSet
209 43 m 0
 221 43 251 47 283 80 c 1
 294 68 l 1
 247 20 196 -11 149 -11 c 0
 104 -11 87 7 87 50 c 0
 87 70 91 96 98 129 c 2
 159 416 l 1
 129 416 l 2
 124 416 118 415 113 415 c 0
 107 415 102 416 102 421 c 0
 102 423 103 426 106 430 c 1
 170 468 220 524 280 579 c 1
 252 447 l 1
 350 447 l 1
 343 416 l 1
 245 416 l 1
 188 146 l 2
 183 121 179 100 179 83 c 0
 179 58 187 43 209 43 c 0
EndSplineSet
Validated: 1
Layer: 2
SplineSet
209 43 m 0,0,1
 247 43 247 43 283 80 c 1,2,-1
 294 68 l 1,3,4
 217 -11 217 -11 149 -11 c 0,5,6
 116 -11 116 -11 101.5 3.5 c 128,-1,7
 87 18 87 18 87 50 c 0,8,9
 87 77 87 77 98 129 c 2,10,-1
 159 416 l 1,11,-1
 129 416 l 2,12,13
 126 416 126 416 121 415.5 c 128,-1,14
 116 415 116 415 113 415 c 0,15,16
 102 415 102 415 102 421 c 0,17,18
 102 425 102 425 106 430 c 0,19,20
 128 443 128 443 152.5 462.5 c 128,-1,21
 177 482 177 482 193.5 497.5 c 128,-1,22
 210 513 210 513 237.5 539 c 128,-1,23
 265 565 265 565 280 579 c 1,24,-1
 252 447 l 1,25,-1
 350 447 l 1,26,-1
 343 416 l 1,27,-1
 245 416 l 1,28,-1
 188 146 l 2,29,30
 179 101 179 101 179 83 c 0,31,32
 179 43 179 43 209 43 c 0,0,1
EndSplineSet
EndChar

StartChar: u
Encoding: 117 117 86
Width: 499
Flags: W
HStem: -11 59<142.578 269.051> 37 14<463.623 487> 433 14<104 143.136 355 400.588>
VStem: 94 88<58.4214 161.145>
DStem2: 69.6044 -11 154.542 -11 0.207912 0.978148<138.09 420.561> 335.295 -11 414.155 -11 0.207912 0.978148<111.388 418.899>
LayerCount: 3
Fore
SplineSet
487 37 m 1x70
 444 25 387 6 336 -11 c 1
 354 77 l 1
 327 54 l 1
 301 29 251 -11 187 -11 c 0
 123 -11 94 25 94 83 c 0
 94 98 96 114 100 132 c 2
 149 361 l 2
 152 378 155 391 155 401 c 0
 155 427 141 433 101 433 c 1
 104 447 l 1
 252 447 l 1
 186 137 l 2
 184 126 182 115 182 106 c 0
 182 71 199 48 242 48 c 0xb0
 270 48 302 63 327 80 c 0
 350 96 355 107 358 124 c 2
 408 359 l 2
 412 377 414 390 414 401 c 0
 414 427 399 433 352 433 c 1
 355 447 l 1
 511 447 l 1
 442 120 l 2
 438 104 436 91 436 81 c 0
 436 60 447 51 479 51 c 2
 490 51 l 1
 487 37 l 1x70
EndSplineSet
Validated: 1
Layer: 2
SplineSet
487 37 m 1,0,1
 444 25 444 25 336 -11 c 1,2,-1
 354 77 l 1,3,-1
 327 54 l 1,4,5
 259 -11 259 -11 187 -11 c 0,6,7
 94 -11 94 -11 94 83 c 0,8,9
 94 105 94 105 100 132 c 2,10,-1
 149 361 l 2,11,12
 155 395 155 395 155 401 c 0,13,14
 155 420 155 420 143.5 426.5 c 128,-1,15
 132 433 132 433 101 433 c 1,16,-1
 104 447 l 1,17,-1
 252 447 l 1,18,-1
 186 137 l 2,19,20
 182 115 182 115 182 106 c 0,21,22
 182 48 182 48 242 48 c 0,23,24
 280 48 280 48 327 80 c 0,25,26
 353 98 353 98 358 124 c 2,27,-1
 408 359 l 2,28,29
 414 386 414 386 414 401 c 0,30,31
 414 420 414 420 401 426.5 c 128,-1,32
 388 433 388 433 352 433 c 1,33,-1
 355 447 l 1,34,-1
 511 447 l 1,35,-1
 442 120 l 2,36,37
 436 96 436 96 436 81 c 0,38,39
 436 65 436 65 445.5 58 c 128,-1,40
 455 51 455 51 479 51 c 2,41,-1
 490 51 l 1,42,-1
 487 37 l 1,0,1
EndSplineSet
EndChar

StartChar: v
Encoding: 118 118 87
Width: 499
Flags: W
HStem: -11 21G<241.5 248.5> 433 14<106 127.673 263.38 298 424 450.918 533.938 559>
DStem2: 250 358 155 379 0.213214 -0.977006<-35.8402 242.335> 296 120 270 17 0.527391 0.849623<0 332.954>
LayerCount: 3
Fore
SplineSet
298 433 m 1
 263 433 246 421 246 394 c 0
 246 383 249 371 250 358 c 1
 296 120 l 1
 416 323 l 2
 437 357 458 394 458 412 c 0
 458 426 447 433 421 433 c 1
 424 447 l 1
 562 447 l 1
 559 433 l 1
 522 433 501 390 472 343 c 2
 270 17 l 2
 265 9 251 -11 245 -11 c 0
 241 -11 235 9 234 17 c 2
 155 379 l 2
 146 416 126 433 103 433 c 1
 106 447 l 1
 301 447 l 1
 298 433 l 1
EndSplineSet
Validated: 1
Layer: 2
SplineSet
298 433 m 1,0,1
 246 433 246 433 246 394 c 0,2,3
 246 388 246 388 248 375.5 c 128,-1,4
 250 363 250 363 250 358 c 2,5,-1
 296 120 l 1,6,-1
 416 323 l 2,7,8
 458 391 458 391 458 412 c 128,-1,9
 458 433 458 433 421 433 c 1,10,-1
 424 447 l 1,11,-1
 562 447 l 1,12,-1
 559 433 l 1,13,14
 551 433 551 433 544 431 c 128,-1,15
 537 429 537 429 530 423 c 128,-1,16
 523 417 523 417 518.5 413 c 128,-1,17
 514 409 514 409 506.5 398 c 128,-1,18
 499 387 499 387 495.5 382 c 128,-1,19
 492 377 492 377 483.5 362.5 c 128,-1,20
 475 348 475 348 472 343 c 2,21,-1
 270 17 l 2,22,23
 252 -11 252 -11 245 -11 c 128,-1,24
 238 -11 238 -11 234 17 c 2,25,-1
 155 379 l 2,26,27
 142 433 142 433 103 433 c 1,28,-1
 106 447 l 1,29,-1
 301 447 l 1,30,-1
 298 433 l 1,0,1
EndSplineSet
EndChar

StartChar: w
Encoding: 119 119 88
Width: 721
Flags: W
HStem: -11 21G<231 236.5 484 489> 433 14<117 136.625 255.71 293 358 381.82 507.263 556 665 693.535>
DStem2: 262 244 151.5 394 0.184438 -0.982844<-146.326 129.063> 285 117 243 -3 0.567305 0.823508<0 205.218> 495 343 411 356.5 0.182852 -0.983141<-44.3266 17.0023 62.6505 223.239> 533 123 495 -3 0.527635 0.849471<0 332.77>
LayerCount: 3
Fore
SplineSet
548 433 m 2
 505 433 491 423 491 388 c 0
 491 375 492 361 495 343 c 2
 533 123 l 1
 659 323 l 2
 679 356 701 393 701 411 c 0
 701 426 689 433 662 433 c 1
 665 447 l 1
 788 447 l 1
 785 433 l 1
 757 424 738 387 726 370 c 1
 495 -3 l 2
 494 -6 490 -11 486 -11 c 0
 483 -11 480 -7 478 -3 c 1
 429 267 l 1
 243 -3 l 2
 242 -6 236 -11 233 -11 c 0
 230 -11 227 -6 226 -3 c 2
 161 343 l 2
 149 406 150 433 114 433 c 1
 117 447 l 1
 296 447 l 1
 293 433 l 1
 284 433 l 2
 248 433 239 409 239 389 c 0
 239 355 258 267 262 244 c 2
 285 117 l 1
 416 310 l 1
 408 396 404 433 355 433 c 1
 358 447 l 1
 559 447 l 1
 556 433 l 1
 548 433 l 2
EndSplineSet
Validated: 1
Layer: 2
SplineSet
548 433 m 2,0,1
 515 433 515 433 503 423.5 c 128,-1,2
 491 414 491 414 491 388 c 0,3,4
 491 367 491 367 495 343 c 2,5,-1
 533 123 l 1,6,-1
 659 323 l 2,7,8
 701 392 701 392 701 411 c 0,9,10
 701 433 701 433 662 433 c 1,11,-1
 665 447 l 1,12,-1
 788 447 l 1,13,-1
 785 433 l 1,14,15
 775 430 775 430 765 421 c 128,-1,16
 755 412 755 412 750 405 c 128,-1,17
 745 398 745 398 736 385 c 128,-1,18
 727 372 727 372 726 370 c 2,19,-1
 495 -3 l 2,20,21
 492 -11 492 -11 486 -11 c 0,22,23
 482 -11 482 -11 478 -3 c 2,24,-1
 429 267 l 1,25,-1
 243 -3 l 2,26,27
 240 -11 240 -11 233 -11 c 0,28,29
 229 -11 229 -11 226 -3 c 2,30,-1
 161 343 l 2,31,32
 159 351 159 351 157 362.5 c 128,-1,33
 155 374 155 374 154 380 c 128,-1,34
 153 386 153 386 151.5 394 c 128,-1,35
 150 402 150 402 148.5 406.5 c 128,-1,36
 147 411 147 411 144.5 416 c 128,-1,37
 142 421 142 421 139.5 423.5 c 128,-1,38
 137 426 137 426 133 428.5 c 128,-1,39
 129 431 129 431 124.5 432 c 128,-1,40
 120 433 120 433 114 433 c 1,41,-1
 117 447 l 1,42,-1
 296 447 l 1,43,-1
 293 433 l 1,44,-1
 284 433 l 2,45,46
 239 433 239 433 239 389 c 0,47,48
 239 376 239 376 262 244 c 2,49,-1
 285 117 l 1,50,-1
 416 310 l 1,51,52
 413 342 413 342 411 356.5 c 128,-1,53
 409 371 409 371 405 389.5 c 128,-1,54
 401 408 401 408 395 415 c 128,-1,55
 389 422 389 422 379.5 427.5 c 128,-1,56
 370 433 370 433 355 433 c 1,57,-1
 358 447 l 1,58,-1
 559 447 l 1,59,-1
 556 433 l 1,60,-1
 548 433 l 2,0,1
EndSplineSet
EndChar

StartChar: x
Encoding: 120 120 89
Width: 499
Flags: W
HStem: 0 14<20 51.3027 131.006 163 281 320.252 456.727 479> 433 14<120 154.136 288.762 324 371 397.224 490.242 525>
DStem2: 113 77 167 84 0.668897 0.743355<-26.8432 189.537 300.291 444.208> 313 301 195 362 0.402652 -0.915353<-108.646 0 33.6104 40.831 75.0641 250.258>
LayerCount: 3
Fore
SplineSet
479 0 m 1
 278 0 l 1
 281 14 l 1
 306 16 337 21 337 38 c 0
 337 42 336 45 334 49 c 2
 263 197 l 1
 167 84 l 2
 142 55 128 35 128 27 c 0
 128 17 140 14 166 14 c 1
 163 0 l 1
 17 0 l 1
 20 14 l 1
 57 14 80 40 113 77 c 2
 253 230 l 1
 195 362 l 2
 179 398 180 430 117 433 c 1
 120 447 l 1
 327 447 l 1
 324 433 l 1
 285 433 276 416 276 404 c 0
 276 384 306 317 313 301 c 1
 336 328 403 388 403 414 c 0
 403 430 381 433 368 433 c 1
 371 447 l 1
 528 447 l 1
 525 433 l 1
 488 433 453 407 427 379 c 2
 326 270 l 1
 408 84 l 2
 426 45 447 14 482 14 c 1
 479 0 l 1
EndSplineSet
Validated: 1
Layer: 2
SplineSet
479 0 m 1,0,-1
 278 0 l 1,1,-1
 281 14 l 1,2,3
 337 18 337 18 337 38 c 0,4,5
 337 43 337 43 334 49 c 2,6,-1
 263 197 l 1,7,-1
 167 84 l 2,8,9
 128 39 128 39 128 27 c 0,10,11
 128 14 128 14 166 14 c 1,12,-1
 163 0 l 1,13,-1
 17 0 l 1,14,-1
 20 14 l 1,15,16
 45 14 45 14 63.5 28.5 c 128,-1,17
 82 43 82 43 113 77 c 2,18,-1
 253 230 l 1,19,-1
 195 362 l 2,20,21
 192 368 192 368 187 382.5 c 128,-1,22
 182 397 182 397 178.5 402.5 c 128,-1,23
 175 408 175 408 167.5 416.5 c 128,-1,24
 160 425 160 425 147.5 428.5 c 128,-1,25
 135 432 135 432 117 433 c 1,26,-1
 120 447 l 1,27,-1
 327 447 l 1,28,-1
 324 433 l 1,29,30
 276 433 276 433 276 404 c 0,31,32
 276 386 276 386 313 301 c 1,33,34
 318 307 318 307 344.5 334 c 128,-1,35
 371 361 371 361 387 381.5 c 128,-1,36
 403 402 403 402 403 414 c 0,37,38
 403 433 403 433 368 433 c 1,39,-1
 371 447 l 1,40,-1
 528 447 l 1,41,-1
 525 433 l 1,42,43
 477 433 477 433 427 379 c 2,44,-1
 326 270 l 1,45,-1
 408 84 l 2,46,47
 440 14 440 14 482 14 c 1,48,-1
 479 0 l 1,0,-1
EndSplineSet
EndChar

StartChar: y
Encoding: 121 121 90
Width: 499
Flags: W
HStem: -217 82<35.2668 127.056> 433 14<110 131.093 269.059 313 436 464.568 549.081 568>
DStem2: 252 367 154 390 0.244431 -0.969667<-29.0072 259.747> 225 -23 226.5 -86 0.514905 0.857247<-133.998 44.9337 161.725 500.214>
LayerCount: 3
Fore
SplineSet
-4 -169 m 0
 -4 -138 21 -117 58 -117 c 0
 78 -117 108 -135 122 -135 c 0
 146 -135 174 -108 225 -23 c 0
 233 -10 246 11 246 17 c 0
 246 20 246 27 245 29 c 2
 154 390 l 2
 147 416 136 430 107 433 c 1
 110 447 l 1
 316 447 l 1
 313 433 l 1
 260 433 247 418 247 396 c 0
 247 388 249 378 252 367 c 2
 311 114 l 1
 469 392 l 2
 471 395 476 403 476 410 c 0
 476 422 465 431 433 433 c 1
 436 447 l 1
 571 447 l 1
 568 433 l 1
 548 433 518 399 504 376 c 2
 274 -8 l 2
 229 -83 157 -217 57 -217 c 0
 21 -217 -4 -198 -4 -169 c 0
EndSplineSet
Validated: 1
Layer: 2
SplineSet
-4 -169 m 0,0,1
 -4 -146 -4 -146 13 -131.5 c 128,-1,2
 30 -117 30 -117 58 -117 c 0,3,4
 69 -117 69 -117 92.5 -126 c 128,-1,5
 116 -135 116 -135 122 -135 c 0,6,7
 141 -135 141 -135 164.5 -110 c 128,-1,8
 188 -85 188 -85 225 -23 c 0,9,10
 246 11 246 11 246 17 c 0,11,12
 246 27 246 27 245 29 c 2,13,-1
 154 390 l 2,14,15
 148 411 148 411 138 421 c 128,-1,16
 128 431 128 431 107 433 c 1,17,-1
 110 447 l 1,18,-1
 316 447 l 1,19,-1
 313 433 l 1,20,21
 247 433 247 433 247 396 c 0,22,23
 247 385 247 385 252 367 c 2,24,-1
 311 114 l 1,25,-1
 469 392 l 2,26,27
 476 402 476 402 476 410 c 0,28,29
 476 430 476 430 433 433 c 1,30,-1
 436 447 l 1,31,-1
 571 447 l 1,32,-1
 568 433 l 1,33,34
 554 433 554 433 535 414.5 c 128,-1,35
 516 396 516 396 504 376 c 2,36,-1
 274 -8 l 2,37,38
 273 -10 273 -10 260 -31.5 c 128,-1,39
 247 -53 247 -53 243.5 -59 c 128,-1,40
 240 -65 240 -65 226.5 -86 c 128,-1,41
 213 -107 213 -107 206.5 -114.5 c 128,-1,42
 200 -122 200 -122 186.5 -140 c 128,-1,43
 173 -158 173 -158 163.5 -165.5 c 128,-1,44
 154 -173 154 -173 139.5 -185.5 c 128,-1,45
 125 -198 125 -198 113 -203 c 128,-1,46
 101 -208 101 -208 86.5 -212.5 c 128,-1,47
 72 -217 72 -217 57 -217 c 0,48,49
 30 -217 30 -217 13 -204 c 128,-1,50
 -4 -191 -4 -191 -4 -169 c 0,0,1
EndSplineSet
EndChar

StartChar: z
Encoding: 122 122 91
Width: 443
Flags: W
HStem: 0 31<141 366.523> 416 31<181.195 381>
DStem2: 28 14 141 31 0.66193 0.749566<87.5407 534.987>
LayerCount: 3
Fore
SplineSet
267 31 m 2
 384 31 395 58 429 140 c 1
 447 135 l 1
 404 0 l 1
 25 0 l 1
 28 14 l 1
 381 416 l 1
 255 416 l 2
 169 416 159 384 141 330 c 1
 124 330 l 1
 152 447 l 1
 499 447 l 1
 496 433 l 1
 141 31 l 1
 267 31 l 2
EndSplineSet
Validated: 1
Layer: 2
SplineSet
267 31 m 2,0,1
 311 31 311 31 336.5 35.5 c 128,-1,2
 362 40 362 40 379.5 56 c 128,-1,3
 397 72 397 72 405 87 c 128,-1,4
 413 102 413 102 429 140 c 1,5,-1
 447 135 l 1,6,-1
 404 0 l 1,7,-1
 25 0 l 1,8,-1
 28 14 l 1,9,-1
 381 416 l 1,10,-1
 255 416 l 2,11,12
 224 416 224 416 204 411 c 128,-1,13
 184 406 184 406 172 392 c 128,-1,14
 160 378 160 378 155 367 c 128,-1,15
 150 356 150 356 141 330 c 1,16,-1
 124 330 l 1,17,-1
 152 447 l 1,18,-1
 499 447 l 1,19,-1
 496 433 l 1,20,-1
 141 31 l 1,21,-1
 267 31 l 2,0,1
EndSplineSet
EndChar

StartChar: braceleft
Encoding: 123 123 92
Width: 479
Flags: W
HStem: 662 20G<445 461>
VStem: 174 69<-141.937 30.9062> 223 69<73.9375 231.497>
DStem2: 150.754 -164 223.281 -164 0.207912 0.978148<93.1531 365.651 485.59 824.948>
LayerCount: 3
Fore
SplineSet
306 -164 m 1xc0
 290 -164 l 2
 211 -164 174 -146 174 -81 c 0xc0
 174 -63 177 -42 182 -17 c 2
 216 143 l 2
 220 163 223 180 223 195 c 0
 223 227 209 245 166 257 c 1
 230 275 251 307 265 370 c 2
 302 544 l 2
 327 662 386 682 486 682 c 1
 417 665 391 627 377 559 c 2
 340 384 l 2
 325 313 304 275 232 257 c 1
 278 244 292 220 292 183 c 0xa0
 292 166 289 145 284 121 c 2
 249 -43 l 2
 245 -60 243 -76 243 -89 c 0
 243 -130 261 -155 306 -164 c 1xc0
EndSplineSet
Validated: 1
Layer: 2
SplineSet
306 -164 m 1,0,-1
 290 -164 l 2,1,2
 228 -164 228 -164 201 -146 c 128,-1,3
 174 -128 174 -128 174 -81 c 0,4,5
 174 -57 174 -57 182 -17 c 2,6,-1
 216 143 l 2,7,8
 223 178 223 178 223 195 c 0,9,10
 223 220 223 220 210.5 234 c 128,-1,11
 198 248 198 248 166 257 c 1,12,13
 212 270 212 270 233 295 c 128,-1,14
 254 320 254 320 265 370 c 2,15,-1
 302 544 l 2,16,17
 320 627 320 627 362 654.5 c 128,-1,18
 404 682 404 682 486 682 c 1,19,20
 436 670 436 670 412 641 c 128,-1,21
 388 612 388 612 377 559 c 2,22,-1
 340 384 l 2,23,24
 328 327 328 327 305.5 298.5 c 128,-1,25
 283 270 283 270 232 257 c 1,26,27
 265 248 265 248 278.5 230 c 128,-1,28
 292 212 292 212 292 183 c 0,29,30
 292 159 292 159 284 121 c 2,31,-1
 249 -43 l 2,32,33
 243 -69 243 -69 243 -89 c 0,34,35
 243 -151 243 -151 306 -164 c 1,0,-1
EndSplineSet
EndChar

StartChar: bar
Encoding: 124 124 93
Width: 199
Flags: W
HStem: 0 21G<68 136.252> 662 20G<208.748 277>
VStem: 68 64<0 64> 213 64<618 682>
DStem2: 68 0 132 0 0.207912 0.978148<13.3063 697.244>
LayerCount: 3
Fore
SplineSet
132 0 m 1
 68 0 l 1
 213 682 l 1
 277 682 l 1
 132 0 l 1
EndSplineSet
Validated: 1
Layer: 2
SplineSet
132 0 m 1,0,-1
 68 0 l 1,1,-1
 213 682 l 1,2,-1
 277 682 l 1,3,-1
 132 0 l 1,0,-1
EndSplineSet
EndChar

StartChar: braceright
Encoding: 125 125 94
Width: 479
Flags: W
HStem: 662 20G<316 319>
VStem: 297 69<283.003 443.781> 347 68<479.227 657.397>
DStem2: 188.281 -164 257.754 -164 0.207912 0.978148<50.9655 402.414 515.862 784.432>
LayerCount: 3
Fore
SplineSet
425 257 m 1xc0
 355 240 337 209 323 143 c 2
 289 -17 l 2
 264 -134 221 -164 121 -164 c 2
 105 -164 l 1
 171 -152 199 -111 214 -43 c 2
 249 121 l 2
 264 194 281 238 358 257 c 1
 312 269 297 291 297 326 c 0xc0
 297 343 300 362 305 384 c 2
 342 559 l 2
 346 576 347 591 347 605 c 0
 347 645 330 669 285 682 c 1
 368 682 415 668 415 597 c 0xa0
 415 582 413 564 409 544 c 2
 372 370 l 2
 368 353 366 338 366 325 c 0
 366 290 382 270 425 257 c 1xc0
EndSplineSet
Validated: 1
Layer: 2
SplineSet
425 257 m 1,0,1
 375 245 375 245 354.5 220.5 c 128,-1,2
 334 196 334 196 323 143 c 2,3,-1
 289 -17 l 2,4,5
 271 -103 271 -103 234.5 -133.5 c 128,-1,6
 198 -164 198 -164 121 -164 c 2,7,-1
 105 -164 l 1,8,9
 153 -155 153 -155 177.5 -126 c 128,-1,10
 202 -97 202 -97 214 -43 c 2,11,-1
 249 121 l 2,12,13
 262 183 262 183 283 213.5 c 128,-1,14
 304 244 304 244 358 257 c 1,15,16
 325 266 325 266 311 282.5 c 128,-1,17
 297 299 297 299 297 326 c 0,18,19
 297 349 297 349 305 384 c 2,20,-1
 342 559 l 2,21,22
 347 580 347 580 347 605 c 0,23,24
 347 664 347 664 285 682 c 1,25,26
 353 682 353 682 384 664.5 c 128,-1,27
 415 647 415 647 415 597 c 0,28,29
 415 574 415 574 409 544 c 2,30,-1
 372 370 l 2,31,32
 366 344.5 366 344.5 366 325 c 0,33,34
 366 298 366 298 379.5 282.5 c 128,-1,35
 393 267 393 267 425 257 c 1,0,1
EndSplineSet
EndChar

StartChar: asciitilde
Encoding: 126 126 95
Width: 540
Flags: W
HStem: 198 63<368.899 495.447> 267 65<160.534 291.053>
LayerCount: 3
Fore
SplineSet
587 307 m 1
 547 253 487 198 423 198 c 0
 346 198 286 267 217 267 c 0
 161 267 123 217 92 177 c 1
 64 217 l 1
 106 270 160 332 231 332 c 0
 300 332 384 261 437 261 c 0
 482 261 533 309 561 347 c 1
 587 307 l 1
EndSplineSet
Validated: 1
Layer: 2
SplineSet
587 307 m 1,0,1
 506 198 506 198 423 198 c 0,2,3
 384 198 384 198 317 232.5 c 128,-1,4
 250 267 250 267 217 267 c 0,5,6
 197 267 197 267 179 259.5 c 128,-1,7
 161 252 161 252 144 236 c 128,-1,8
 127 220 127 220 117.5 209 c 128,-1,9
 108 198 108 198 92 177 c 1,10,-1
 64 217 l 1,11,12
 91 251 91 251 111 272 c 128,-1,13
 131 293 131 293 164.5 312.5 c 128,-1,14
 198 332 198 332 231 332 c 0,15,16
 268 332 268 332 340 296.5 c 128,-1,17
 412 261 412 261 437 261 c 0,18,19
 468 261 468 261 502 287 c 128,-1,20
 536 313 536 313 561 347 c 1,21,-1
 587 307 l 1,0,1
EndSplineSet
EndChar

StartChar: uni0E10.descless
Encoding: 63232 63232 96
Width: 508
Flags: W
HStem: -8 43<270.44 335.508> 190 39<154.577 219.591> 319 39<165.307 239.179> 492 71<380.636 518.79> 530 68<230.655 372.387>
VStem: 111 40<232.571 305.324> 198 71<36.1823 110.78> 242 70<241.961 316.881> 401 80<300.98 373.999>
DStem2: 182 476 122 443 0.965188 -0.261558<0 245.18> 176.769 -8 251.72 -8 0.207912 0.978148<92.8145 210.487> 327.933 -8 405.769 -8 0.207912 0.978148<52.6903 361.134>
LayerCount: 3
Fore
SplineSet
577 585 m 0xf680
 577 544 504 492 447 492 c 3xf680
 426 492 408 496 367 510 c 0
 319 526 297 530 269 530 c 3
 232 530 206 514 182 476 c 1
 444 405 l 2
 470 399 481 384 481 357 c 3
 481 350 480 341 478 332 c 2
 430 106 l 2
 415 35 362 -8 290 -8 c 3
 236 -8 198 30 198 82 c 3xee80
 198 90 199 98 201 106 c 2
 220 198 l 1
 208 192 195 190 178 190 c 3
 137 190 111 216 111 255 c 3
 111 310 159 358 214 358 c 3
 278 358 312 335 312 291 c 3xed80
 312 280 312 275 310 270 c 2
 270 78 l 2
 269 75 269 72 269 67 c 3
 269 47 280 35 299 35 c 3
 321 35 341 53 346 77 c 2
 398 321 l 2
 400 331 401 339 401 346 c 3
 401 362 395 370 380 374 c 2
 122 443 l 1
 179 551 234 598 306 598 c 3xee80
 326 598 346 594 395 581 c 0
 449 567 473 563 497 563 c 3
 525 563 541 569 560 584 c 0
 567 590 570 591 573 591 c 3
 575 591 577 589 577 585 c 0xf680
206 319 m 3
 177 319 151 293 151 265 c 3
 151 243 165 229 187 229 c 3
 217 229 242 254 242 285 c 3xe580
 242 306 228 319 206 319 c 3
EndSplineSet
Layer: 2
SplineSet
577 585 m 4,0,1
 577 554 577 554 533.5 523 c 128,-1,2
 490 492 490 492 447 492 c 0,3,4
 420 492 420 492 367 510 c 0,5,6
 307 530 307 530 269 530 c 0,7,8
 216 530 216 530 182 476 c 1,9,-1
 444 405 l 2,10,11
 481 396 481 396 481 357 c 0,12,13
 481 346 481 346 478 332 c 2,14,-1
 430 106 l 2,15,16
 419 53 419 53 381.5 22.5 c 128,-1,17
 344 -8 344 -8 290 -8 c 0,18,19
 250 -8 250 -8 224 17.5 c 128,-1,20
 198 43 198 43 198 82 c 0,21,22
 198 94 198 94 201 106 c 2,23,-1
 220 198 l 1,24,25
 204 190 204 190 178 190 c 0,26,27
 147 190 147 190 129 208 c 128,-1,28
 111 226 111 226 111 255 c 0,29,30
 111 296 111 296 142 327 c 128,-1,31
 173 358 173 358 214 358 c 0,32,33
 312 358 312 358 312 291 c 0,34,35
 312 275 312 275 310 270 c 2,36,-1
 270 78 l 2,37,38
 269 75 269 75 269 67 c 0,39,40
 269 35 269 35 299 35 c 0,41,42
 315 35 315 35 328.5 47 c 128,-1,43
 342 59 342 59 346 77 c 2,44,-1
 398 321 l 2,45,46
 401 336 401 336 401 346 c 0,47,48
 401 368 401 368 380 374 c 2,49,-1
 122 443 l 1,50,51
 165 524 165 524 208.5 561 c 128,-1,52
 252 598 252 598 306 598 c 0,53,54
 331 598 331 598 395 581 c 0,55,56
 464 563 464 563 497 563 c 0,57,58
 533 563 533 563 560 584 c 0,59,60
 568 591 568 591 573 591 c 0,61,62
 577 591 577 591 577 585 c 4,0,1
206 319 m 4,63,64
 184 319 184 319 167.5 302.5 c 128,-1,65
 151 286 151 286 151 265 c 0,66,67
 151 248 151 248 160.5 238.5 c 128,-1,68
 170 229 170 229 187 229 c 0,69,70
 210 229 210 229 226 245.5 c 128,-1,71
 242 262 242 262 242 285 c 0,72,73
 242 301 242 301 232.5 310 c 128,-1,74
 223 319 223 319 206 319 c 4,63,64
EndSplineSet
EndChar

StartChar: uni0E34.left
Encoding: 63233 63233 97
Width: 0
Flags: W
HStem: 740 40<-465.45 -289.57> 844 49<-401.395 -230.506>
LayerCount: 3
Back
SplineSet
-116 654 m 1
 -138 667 -249 722 -320 731 c 0
 -414 746 -503 733 -522 728 c 1
 -473 834 -373 900 -271 892 c 0
 -159 885 -94 796 -116 654 c 1
-154 719 m 1
 -168 803 -213 834 -285 843 c 0
 -346 851 -408 820 -439 779 c 1
 -439 779 -366 785 -300 773 c 0
 -209 756 -154 719 -154 719 c 1
EndSplineSet
Fore
Refer: 180 3636 N 1 0 0 1 -173 0 2
Layer: 2
Refer: 180 3636 N 1 0 0 1 -173 0 2
EndChar

StartChar: uni0E35.left
Encoding: 63234 63234 98
Width: 0
Flags: W
HStem: 740 40<-465.45 -289.823> 844 49<-401.395 -230.494>
VStem: -152 75<876 951>
DStem2: -216.086 651 -140.256 651 0.207912 0.978148<202.423 306.769>
LayerCount: 3
Back
SplineSet
-116 654 m 1
 -138 667 -249 720 -320 731 c 0
 -417 746 -503 733 -522 728 c 1
 -482 820 -382 900 -280 892 c 0
 -246 891 -201 883 -166 852 c 1
 -145 951 l 1
 -78 951 l 1
 -118 762 l 1
 -118 762 -107 720 -116 654 c 1
-154 719 m 1
 -168 803 -213 834 -285 843 c 0
 -346 851 -408 820 -439 779 c 1
 -439 779 -366 785 -300 773 c 0
 -209 756 -154 719 -154 719 c 1
EndSplineSet
Fore
Refer: 181 3637 N 1 0 0 1 -173 0 2
Layer: 2
Refer: 181 3637 N 1 0 0 1 -173 0 2
EndChar

StartChar: uni0E36.left
Encoding: 63235 63235 99
Width: 0
Flags: W
HStem: 740 40<-465.203 -281.754> 844 50<-402 -229.698> 906 45<-167.738 -90.1104>
VStem: -88 46<831.371 903.605>
LayerCount: 3
Back
SplineSet
-143 822 m 0
 -116 822 -99 843 -94 864 c 0
 -90 884 -99 905 -126 905 c 0
 -152 905 -169 884 -173 864 c 0
 -178 843 -169 822 -143 822 c 0
-154 719 m 17
 -168 803 -213 834 -285 843 c 0
 -346 851 -408 820 -439 779 c 1
 -439 779 -366 785 -300 773 c 0
 -209 756 -154 719 -154 719 c 17
-116 654 m 1
 -138 667 -249 720 -320 731 c 0
 -417 746 -503 733 -522 728 c 1
 -481 822 -377 900 -277 892 c 0
 -236 889 -210 877 -210 877 c 1
 -205 908 -168 946 -114 946 c 0
 -66 946 -40 908 -49 865 c 0
 -57 829 -85 791 -124 783 c 1
 -124 783 -102 733 -116 654 c 1
EndSplineSet
Fore
Refer: 182 3638 N 1 0 0 1 -173 0 2
Layer: 2
Refer: 182 3638 N 1 0 0 1 -173 0 2
EndChar

StartChar: uni0E37.left
Encoding: 63236 63236 100
Width: 0
Flags: W
HStem: 736 40<-469.44 -288.64> 830 46<-415.023 -297>
VStem: -281 72<879 951> -146 71<880 951>
DStem2: -297 876 -228 863 0.211046 0.977476<-1.18129 76.6874> -209.898 648 -139.193 648 0.207912 0.978148<187.088 309.664>
LayerCount: 3
Back
SplineSet
-116 654 m 1
 -138 667 -249 720 -320 731 c 0
 -417 746 -503 733 -522 728 c 1
 -466 851 -349 902 -275 889 c 1
 -260 951 l 1
 -205 951 l 1
 -220 877 l 1
 -187 869 -163 845 -163 845 c 1
 -141 951 l 1
 -82 951 l 1
 -119 763 l 1
 -119 763 -104 723 -116 654 c 1
-154 719 m 1
 -168 803 -213 834 -285 843 c 0
 -346 851 -408 820 -439 779 c 1
 -439 779 -366 785 -300 773 c 0
 -209 756 -154 719 -154 719 c 1
EndSplineSet
Fore
Refer: 183 3639 N 1 0 0 1 -173 0 2
Layer: 2
Refer: 183 3639 N 1 0 0 1 -173 0 2
EndChar

StartChar: ellipsis
Encoding: 8230 8230 101
Width: 998
Flags: W
HStem: -14 115<140.195 212.996 471.646 546.071 805.195 877.996>
VStem: 119 116<7.80859 79.8575> 451 118<8.95154 80.4062> 784 116<7.80859 79.8575>
LayerCount: 3
Fore
SplineSet
900 55 m 0
 900 21 866 -14 828 -14 c 0
 801 -14 784 6 784 32 c 0
 784 71 823 101 852 101 c 0
 880 101 900 80 900 55 c 0
569 55 m 0
 569 24 536 -14 496 -14 c 0
 468 -14 451 7 451 32 c 0
 451 71 489 101 520 101 c 0
 548 101 569 80 569 55 c 0
235 55 m 0
 235 21 201 -14 163 -14 c 0
 136 -14 119 6 119 32 c 0
 119 71 158 101 187 101 c 0
 215 101 235 80 235 55 c 0
EndSplineSet
Validated: 1
Layer: 2
SplineSet
900 55 m 0,0,1
 900 29 900 29 878 7.5 c 128,-1,2
 856 -14 856 -14 828 -14 c 0,3,4
 808 -14 808 -14 796 -1 c 128,-1,5
 784 12 784 12 784 32 c 0,6,7
 784 60 784 60 806.5 80.5 c 128,-1,8
 829 101 829 101 852 101 c 0,9,10
 873 101 873 101 886.5 87.5 c 128,-1,11
 900 74 900 74 900 55 c 0,0,1
569 55 m 0,12,13
 569 31 569 31 547 8.5 c 128,-1,14
 525 -14 525 -14 496 -14 c 0,15,16
 476 -14 476 -14 463.5 -0.5 c 128,-1,17
 451 13 451 13 451 32 c 0,18,19
 451 60 451 60 473 80.5 c 128,-1,20
 495 101 495 101 520 101 c 0,21,22
 541 101 541 101 555 87.5 c 128,-1,23
 569 74 569 74 569 55 c 0,12,13
235 55 m 0,24,25
 235 29 235 29 213 7.5 c 128,-1,26
 191 -14 191 -14 163 -14 c 0,27,28
 143 -14 143 -14 131 -1 c 128,-1,29
 119 12 119 12 119 32 c 0,30,31
 119 60 119 60 141.5 80.5 c 128,-1,32
 164 101 164 101 187 101 c 0,33,34
 208 101 208 101 221.5 87.5 c 128,-1,35
 235 74 235 74 235 55 c 0,24,25
EndSplineSet
EndChar

StartChar: uni0E48.low_left
Encoding: 63237 63237 102
Width: 0
Flags: W
HStem: 670 244<-166 -143>
VStem: -201 127
LayerCount: 3
Back
SplineSet
-78 926 m 1
 -144 685 l 1
 -195 685 l 1
 -159 926 l 1
 -78 926 l 1
EndSplineSet
Fore
Refer: 107 63242 N 1 0 0 1 -173 0 2
Validated: 1
Layer: 2
Refer: 107 63242 N 1 0 0 1 -173 0 2
EndChar

StartChar: uni0E49.low_left
Encoding: 63238 63238 103
Width: 0
Flags: W
HStem: 668 48<-299 -272.687> 776 37<-343.097 -285.738> 919 36<-327.881 -248.036>
VStem: -390 41<818.124 900.224> -241 43<831.812 913.657> -32 81<897.449 952>
LayerCount: 3
Back
SplineSet
-31 931 m 17
 -140 637 -429 667 -460 670 c 1
 -453 703 l 1
 -443 707 -382 734 -353 780 c 1
 -353 780 -363 776 -379 776 c 0
 -434 776 -453 816 -444 856 c 0
 -435 897 -400 937 -345 937 c 0
 -259 937 -273 857 -273 857 c 1
 -292 765 -364 716 -364 716 c 1
 -363 714 l 1
 -298 723 -156 766 -112 931 c 1
 -31 931 l 17
-370 811 m 0
 -340 811 -320 834 -315 856 c 0
 -310 879 -320 902 -350 902 c 0
 -381 902 -401 879 -406 856 c 0
 -411 834 -401 811 -370 811 c 0
EndSplineSet
Fore
Refer: 108 63243 N 1 0 0 1 -173 0 2
Layer: 2
Refer: 108 63243 N 1 0 0 1 -173 0 2
EndChar

StartChar: uni0E4A.low_left
Encoding: 63239 63239 104
Width: 0
Flags: HW
HStem: 668 30<-405.004 -342.719> 782 32<-396.945 -334.143> 876 56<-384.785 -339>
VStem: -467 43<777 833.705> -467 55<703.332 810.982> -327 35<711.925 775.67> -180 56<761.53 871.562> -44 76<859.205 926>
LayerCount: 3
Back
SplineSet
-53 906 m 17
 -75 768 -164 684 -294 670 c 1
 -288 694 l 1
 -259 710 -239 744 -232 776 c 0
 -225 810 -233 842 -258 849 c 1
 -323 811 l 1
 -368 849 l 1
 -405 849 -442 806 -444 768 c 1
 -444 768 -428 800 -378 800 c 0
 -340 800 -318 770 -325 737 c 0
 -334 697 -363 667 -406 667 c 0
 -469 667 -497 720 -481 793 c 0
 -471 843 -409 903 -356 903 c 1
 -311 857 l 1
 -247 902 l 1
 -181 884 -171 839 -179 798 c 0
 -185 771 -199 745 -211 728 c 1
 -146 766 -116 834 -117 906 c 1
 -53 906 l 17
-357 733 m 0
 -352 758 -368 770 -386 770 c 0
 -405 770 -427 758 -432 733 c 0
 -438 708 -421 696 -402 696 c 0
 -384 696 -363 708 -357 733 c 0
EndSplineSet
Fore
Refer: 109 63244 N 1 0 0 1 -173 0 2
Layer: 2
Refer: 109 63244 N 1 0 0 1 -173 0 2
EndChar

StartChar: uni0E4B.low_left
Encoding: 63240 63240 105
Width: 0
Flags: W
HStem: 677 21G<-203 -138.4> 779 60<-284 -183 -105 -7>
VStem: -203 60<677 737> -151 69<873 942>
DStem2: -203 677 -143 677 0.207912 0.978148<12.4747 101.973 179.813 270.021>
LayerCount: 3
Back
SplineSet
-68 777 m 1
 -182 776 l 1
 -205 676 l 1
 -262 676 l 1
 -242 776 l 1
 -357 777 l 1
 -345 834 l 1
 -231 836 l 1
 -211 935 l 1
 -145 935 l 1
 -168 836 l 1
 -56 834 l 1
 -68 777 l 1
EndSplineSet
Fore
Refer: 110 63245 N 1 0 0 1 -173 0 2
Validated: 1
Layer: 2
Refer: 110 63245 N 1 0 0 1 -173 0 2
EndChar

StartChar: uni0E4C.low_left
Encoding: 63241 63241 106
Width: 0
Flags: W
HStem: 668 39<-265.213 -191.156>
VStem: -310 41<710.879 780.358> -178 44<717.529 792.41>
LayerCount: 3
Back
SplineSet
-23 954 m 1
 -59 846 -181 826 -226 816 c 1
 -198 811 -188 777 -194 748 c 0
 -203 707 -242 670 -291 670 c 0
 -340 670 -365 707 -356 748 c 0
 -348 786 -325 831 -216 860 c 0
 -164 876 -102 906 -92 968 c 1
 -23 954 l 1
-284 703 m 0
 -255 703 -236 724 -231 746 c 0
 -227 767 -237 788 -266 788 c 0
 -295 788 -314 767 -318 746 c 0
 -323 724 -313 703 -284 703 c 0
EndSplineSet
Fore
Refer: 111 63246 N 1 0 0 1 -173 0 2
Layer: 2
Refer: 111 63246 N 1 0 0 1 -173 0 2
EndChar

StartChar: uni0E48.low
Encoding: 63242 63242 107
Width: 0
Flags: W
HStem: 670 244<7 30>
VStem: -28 127
AnchorPoint: "AboveMark" 65 968 basemark 0
AnchorPoint: "AboveBase" 31 645 mark 0
LayerCount: 3
Back
SplineSet
99 914 m 1
 30 670 l 1
 -28 670 l 1
 7 914 l 1
 99 914 l 1
EndSplineSet
Fore
SplineSet
99 914 m 1
 30 670 l 1
 -28 670 l 1
 7 914 l 1
 99 914 l 1
EndSplineSet
Validated: 1
Layer: 2
SplineSet
99 914 m 1,0,-1
 30 670 l 1,1,-1
 -28 670 l 1,2,-1
 7 914 l 1,3,-1
 99 914 l 1,0,-1
EndSplineSet
Substitution2: "Thai Phinthu Mai Ek Reordering" uni0E3A
EndChar

StartChar: uni0E49.low
Encoding: 63243 63243 108
Width: 0
Flags: MW
HStem: 668 48<-126 -99.6869> 776 37<-170.097 -112.738> 919 36<-154.881 -75.0362>
VStem: -217 41<818.124 900.224> -68 43<831.812 913.657> 141 81<897.449 952>
AnchorPoint: "AboveMark" 17 968 basemark 0
AnchorPoint: "AboveBase" 31 645 mark 0
LayerCount: 3
Fore
SplineSet
-217 846 m 3
 -217 905 -166 955 -104 955 c 3
 -53 955 -25 929 -25 882 c 3
 -25 829 -74 748 -126 716 c 1
 6 726 108 816 141 952 c 1
 222 952 l 17
 166 770 23 668 -175 668 c 3
 -192 668 -211 669 -222 670 c 1
 -214 705 l 1
 -175 718 -131 750 -112 780 c 1
 -122 778 -133 776 -142 776 c 3
 -188 776 -217 803 -217 846 c 3
-112 919 m 3
 -146 919 -176 889 -176 854 c 3
 -176 828 -160 813 -134 813 c 3
 -98 813 -68 843 -68 878 c 3
 -68 903 -85 919 -112 919 c 3
EndSplineSet
Layer: 2
SplineSet
-217 846 m 0,0,1
 -217 890 -217 890 -183.5 922.5 c 128,-1,2
 -150 955 -150 955 -104 955 c 0,3,4
 -25 955 -25 955 -25 882 c 0,5,6
 -25 842 -25 842 -56 791 c 128,-1,7
 -87 740 -87 740 -126 716 c 1,8,9
 -27 724 -27 724 44.5 787 c 128,-1,10
 116 850 116 850 141 952 c 1,11,-1
 222 952 l 1,12,13
 180 816 180 816 77 742 c 128,-1,14
 -26 668 -26 668 -175 668 c 0,15,16
 -200 668 -200 668 -222 670 c 1,17,-1
 -214 705 l 1,18,19
 -185 715 -185 715 -155.5 736.5 c 128,-1,20
 -126 758 -126 758 -112 780 c 1,21,22
 -132 776 -132 776 -142 776 c 0,23,24
 -177 776 -177 776 -197 795 c 128,-1,25
 -217 814 -217 814 -217 846 c 0,0,1
-112 919 m 0,26,27
 -138 919 -138 919 -157 899.5 c 128,-1,28
 -176 880 -176 880 -176 854 c 0,29,30
 -176 813 -176 813 -134 813 c 0,31,32
 -107 813 -107 813 -87.5 832.5 c 128,-1,33
 -68 852 -68 852 -68 878 c 0,34,35
 -68 897 -68 897 -80 908 c 128,-1,36
 -92 919 -92 919 -112 919 c 0,26,27
EndSplineSet
Substitution2: "Thai Phinthu Mai Tho Reordering" uni0E3A
EndChar

StartChar: uni0E4A.low
Encoding: 63244 63244 109
Width: 0
Flags: W
HStem: 668 30<-233.697 -169.701> 782 32<-223.964 -158.087>
VStem: -294 55<700.471 810.582> -294 43<777 832.818> -154 35<711.781 778.014> -7 56<761.895 871.493> 129 76<859.758 926>
AnchorPoint: "AboveMark" -62 968 basemark 0
AnchorPoint: "AboveBase" 31 645 mark 0
LayerCount: 3
Fore
SplineSet
129 926 m 1xee
 205 926 l 17
 175.240677754 784.643219333 69.34684395 689.857130333 -81 670 c 1
 -74 699 l 1
 -36.1383542014 718.832290656 -7 771.455288543 -7 820 c 3
 -7 848.998792491 -18.3146883093 869.438229436 -38 876 c 1
 -112 831 l 1
 -166 876 l 1
 -203.963694922 876 -251 821.216538792 -251 777 c 1xde
 -250 777 l 1
 -238.870057685 798.674098192 -209.460894757 814 -179 814 c 3
 -144.888216388 814 -119 789.837664705 -119 758 c 3
 -119 710.270950687 -161.740627917 668 -210 668 c 3
 -262.244772354 668 -294 705.425804011 -294 767 c 3
 -294 850.371950047 -235.12440447 918.305329505 -151 932 c 1
 -99 883 l 1
 -29 932 l 1
 22.8578976999 916.697669531 49 885.863395023 49 840 c 3
 49 810.083873864 35.4925179933 771.105140074 14 739 c 1
 82.5207840306 774.891839254 129 850.471086091 129 926 c 1xee
-206 698 m 3
 -176.833147735 698 -154 720.833147735 -154 750 c 3
 -154 769.016342837 -167.795135736 782 -188 782 c 3
 -215.609267163 782 -239 757.691983522 -239 729 c 3xee
 -239 710.968997342 -225.194293152 698 -206 698 c 3
EndSplineSet
Layer: 2
SplineSet
129 926 m 1,0,-1
 205 926 l 1,1,2
 183 820 183 820 107.5 752.5 c 128,-1,3
 32 685 32 685 -81 670 c 1,4,-1
 -74 699 l 1,5,6
 -46 714 -46 714 -26.5 749 c 128,-1,7
 -7 784 -7 784 -7 820 c 0,8,9
 -7 866 -7 866 -38 876 c 1,10,-1
 -112 831 l 1,11,-1
 -166 876 l 1,12,13
 -194 876 -194 876 -222.5 843 c 128,-1,14
 -251 810 -251 810 -251 777 c 1,15,-1
 -250 777 l 1,16,17
 -242 793 -242 793 -222 803.5 c 128,-1,18
 -202 814 -202 814 -179 814 c 0,19,20
 -153 814 -153 814 -136 798 c 128,-1,21
 -119 782 -119 782 -119 758 c 0,22,23
 -119 722 -119 722 -146.5 695 c 128,-1,24
 -174 668 -174 668 -210 668 c 0,25,26
 -249 668 -249 668 -271.5 694.5 c 128,-1,27
 -294 721 -294 721 -294 767 c 0,28,29
 -294 830 -294 830 -254 876 c 128,-1,30
 -214 922 -214 922 -151 932 c 1,31,-1
 -99 883 l 1,32,-1
 -29 932 l 1,33,34
 49 909 49 909 49 840 c 0,35,36
 49 791 49 791 14 739 c 1,37,38
 65 766 65 766 97 817.5 c 128,-1,39
 129 869 129 869 129 926 c 1,0,-1
-206 698 m 0,40,41
 -184 698 -184 698 -169 713 c 128,-1,42
 -154 728 -154 728 -154 750 c 0,43,44
 -154 764 -154 764 -163.5 773 c 128,-1,45
 -173 782 -173 782 -188 782 c 0,46,47
 -209 782 -209 782 -224 766.5 c 128,-1,48
 -239 751 -239 751 -239 729 c 0,49,50
 -239 715 -239 715 -229.5 706.5 c 128,-1,51
 -220 698 -220 698 -206 698 c 0,40,41
EndSplineSet
Substitution2: "Thai Phinthu Mai Tri Reordering" uni0E3A
EndChar

StartChar: uni0E4B.low
Encoding: 63245 63245 110
Width: 0
Flags: W
HStem: 677 21G<-30 34.6> 779 60<-111 -10 68 166>
VStem: -30 60<677 737> 22 69<873 942>
DStem2: -30 677 30 677 0.207912 0.978148<12.4747 101.973 179.813 270.021>
AnchorPoint: "AboveMark" 62 968 basemark 0
AnchorPoint: "AboveBase" 31 645 mark 0
LayerCount: 3
Fore
SplineSet
166 779 m 1xd0
 53 777 l 1
 30 677 l 1
 -30 677 l 1xe0
 -10 777 l 1
 -123 779 l 1
 -111 839 l 1
 2 840 l 1
 22 942 l 1
 91 942 l 1
 68 840 l 1
 178 839 l 1
 166 779 l 1xd0
EndSplineSet
Validated: 1
Layer: 2
SplineSet
166 779 m 1,0,-1
 53 777 l 1,1,-1
 30 677 l 1,2,-1
 -30 677 l 1,3,-1
 -10 777 l 1,4,-1
 -123 779 l 1,5,-1
 -111 839 l 1,6,-1
 2 840 l 1,7,-1
 22 942 l 1,8,-1
 91 942 l 1,9,-1
 68 840 l 1,10,-1
 178 839 l 1,11,-1
 166 779 l 1,0,-1
EndSplineSet
Substitution2: "Thai Phinthu Mai Chattawa Reordering" uni0E3A
EndChar

StartChar: uni0E4C.low
Encoding: 63246 63246 111
Width: 0
Flags: W
HStem: 668 39<-92.2135 -18.1564>
VStem: -137 41<710.879 780.358> -5 44<717.529 792.41>
AnchorPoint: "AboveMark" -1 968 basemark 0
AnchorPoint: "AboveBase" 31 645 mark 0
LayerCount: 3
Fore
SplineSet
39 770 m 0
 39 716 -10 668 -65 668 c 0
 -110 668 -137 692 -137 732 c 0
 -137 797 -90 842 7 871 c 0
 73 891 115 924 134 971 c 1
 202 949 l 1
 166 880 113 847 0 825 c 1
 25 821 39 801 39 770 c 0
-38 794 m 0
 -69 794 -96 770 -96 742 c 0
 -96 721 -81 707 -57 707 c 0
 -28 707 -5 731 -5 761 c 0
 -5 782 -17 794 -38 794 c 0
EndSplineSet
Layer: 2
SplineSet
39 770 m 0,0,1
 39 730 39 730 7.5 699 c 128,-1,2
 -24 668 -24 668 -65 668 c 0,3,4
 -99 668 -99 668 -118 685 c 128,-1,5
 -137 702 -137 702 -137 732 c 0,6,7
 -137 828 -137 828 7 871 c 0,8,9
 106 901 106 901 134 971 c 1,10,-1
 202 949 l 1,11,12
 175 897 175 897 130 869 c 128,-1,13
 85 841 85 841 0 825 c 1,14,15
 39 819 39 819 39 770 c 0,0,1
-38 794 m 0,16,17
 -61 794 -61 794 -78.5 778.5 c 128,-1,18
 -96 763 -96 763 -96 742 c 0,19,20
 -96 726 -96 726 -85.5 716.5 c 128,-1,21
 -75 707 -75 707 -57 707 c 0,22,23
 -35 707 -35 707 -20 722.5 c 128,-1,24
 -5 738 -5 738 -5 761 c 0,25,26
 -5 794 -5 794 -38 794 c 0,16,17
EndSplineSet
Substitution2: "Thai Phinthu Thanthakhat Reordering" uni0E3A
EndChar

StartChar: uni0E0D.descless
Encoding: 63247 63247 112
Width: 800
Flags: W
HStem: -8 37<187.555 258.572 505.016 602.992> 121 41<208.863 273.03> 392 44<190 212 259.32 350> 547 51<289.882 449.099>
VStem: 115 67<34.558 109.23> 276 41<45.1404 117.505> 417 75<40.2451 133.118> 486 78<331.688 510.408>
DStem2: 93.1309 -8 173.566 -8 0.207912 0.978148<182.343 404.275> 393.493 -8 469.831 -8 0.207912 0.978148<111.812 462.672> 615.044 -8 692.194 -8 0.207912 0.978148<71.0792 550.144>
LayerCount: 3
Fore
SplineSet
716 104 m 2xfe
 703 46 619 -8 540 -8 c 3
 468 -8 417 33 417 91 c 3xfe
 417 102 417 107 419 112 c 2
 482 407 l 2
 485 420 486 432 486 446 c 3
 486 509 445 547 376 547 c 3
 298 547 220 500 190 436 c 1
 360 436 l 1
 350 392 l 1
 301 392 l 2
 273 392 254 374 248 342 c 2
 208 154 l 1
 225 159 240 162 251 162 c 3
 292 162 317 137 317 98 c 3
 317 41 268 -8 210 -8 c 3
 148 -8 115 22 115 77 c 3
 115 89 116 100 118 109 c 2
 164 324 l 2
 170 354 190 382 212 392 c 1
 128 392 l 1
 157 512 269 598 397 598 c 3
 495 598 564 536 564 450 c 3xfd
 564 437 563 425 560 413 c 2
 493 101 l 2
 492 96 492 93 492 85 c 3
 492 51 515 29 550 29 c 3
 592 29 629 58 638 100 c 2
 730 530 l 1
 790 588 l 2
 794 592 800 594 806 594 c 3
 813 594 816 590 816 581 c 3
 816 575 816 572 815 567 c 2
 716 104 l 2xfe
238 121 m 3
 207 121 182 97 182 66 c 3
 182 45 197 32 219 32 c 3
 252 32 276 56 276 87 c 3
 276 109 262 121 238 121 c 3
EndSplineSet
Layer: 2
SplineSet
716 104 m 2,0,1
 706 60 706 60 652.5 26 c 128,-1,2
 599 -8 599 -8 540 -8 c 0,3,4
 486 -8 486 -8 451.5 20 c 128,-1,5
 417 48 417 48 417 91 c 0,6,7
 417 107 417 107 419 112 c 2,8,-1
 482 407 l 2,9,10
 486 424 486 424 486 446 c 0,11,12
 486 493 486 493 457 520 c 128,-1,13
 428 547 428 547 376 547 c 0,14,15
 318 547 318 547 265.5 515.5 c 128,-1,16
 213 484 213 484 190 436 c 1,17,-1
 360 436 l 1,18,-1
 350 392 l 1,19,-1
 301 392 l 2,20,21
 257 392 257 392 248 342 c 2,22,-1
 208 154 l 1,23,24
 235 162 235 162 251 162 c 0,25,26
 282 162 282 162 299.5 144.5 c 128,-1,27
 317 127 317 127 317 98 c 0,28,29
 317 55 317 55 285 23.5 c 128,-1,30
 253 -8 253 -8 210 -8 c 0,31,32
 115 -8 115 -8 115 77 c 0,33,34
 115 96 115 96 118 109 c 2,35,-1
 164 324 l 2,36,37
 168 346 168 346 181.5 365 c 128,-1,38
 195 384 195 384 212 392 c 1,39,-1
 128 392 l 1,40,41
 150 482 150 482 225.5 540 c 128,-1,42
 301 598 301 598 397 598 c 0,43,44
 470 598 470 598 517 556.5 c 128,-1,45
 564 515 564 515 564 450 c 0,46,47
 564 429 564 429 560 413 c 2,48,-1
 493 101 l 2,49,50
 492 96 492 96 492 85 c 0,51,52
 492 60 492 60 508 44.5 c 128,-1,53
 524 29 524 29 550 29 c 0,54,55
 582 29 582 29 606.5 49 c 128,-1,56
 631 69 631 69 638 100 c 2,57,-1
 730 530 l 1,58,-1
 790 588 l 2,59,60
 796 594 796 594 806 594 c 128,-1,61
 816 594 816 594 816 581 c 0,62,63
 816 572 816 572 815 567 c 2,64,-1
 716 104 l 2,0,1
238 121 m 0,65,66
 215 121 215 121 198.5 105 c 128,-1,67
 182 89 182 89 182 66 c 0,68,69
 182 50 182 50 192 41 c 128,-1,70
 202 32 202 32 219 32 c 0,71,72
 244 32 244 32 260 48 c 128,-1,73
 276 64 276 64 276 87 c 0,74,75
 276 121 276 121 238 121 c 0,65,66
EndSplineSet
EndChar

StartChar: quoteleft
Encoding: 8216 8216 113
Width: 333
Flags: W
HStem: 456 122<262.726 314.672>
VStem: 203 153<481.437 572.622>
LayerCount: 3
Fore
SplineSet
356 538 m 0
 356 515 339 456 272 456 c 0
 222 456 203 494 203 534 c 0
 203 631 313 706 367 728 c 1
 375 700 l 1
 333 679 271 624 263 588 c 0
 262 582 260 578 266 578 c 0
 273 578 283 585 299 585 c 0
 332 585 356 569 356 538 c 0
EndSplineSet
Validated: 1
Layer: 2
SplineSet
356 538 m 0,0,1
 356 512 356 512 336 484 c 128,-1,2
 316 456 316 456 272 456 c 0,3,4
 237 456 237 456 220 478.5 c 128,-1,5
 203 501 203 501 203 534 c 0,6,7
 203 579 203 579 234 622 c 128,-1,8
 265 665 265 665 300 690 c 128,-1,9
 335 715 335 715 367 728 c 1,10,-1
 375 700 l 1,11,12
 341 683 341 683 305 648.5 c 128,-1,13
 269 614 269 614 263 588 c 0,14,15
 261 578 261 578 266 578 c 0,16,17
 268 578 268 578 279 581.5 c 128,-1,18
 290 585 290 585 299 585 c 0,19,20
 325 585 325 585 340.5 573 c 128,-1,21
 356 561 356 561 356 538 c 0,0,1
EndSplineSet
EndChar

StartChar: quoteright
Encoding: 8217 8217 114
Width: 333
Flags: W
HStem: 455 21G<210.333 245>
VStem: 227 154<610.378 699.312>
LayerCount: 3
Fore
SplineSet
227 645 m 0
 227 678 253 727 312 727 c 0
 362 727 381 690 381 649 c 0
 381 553 273 478 217 455 c 1
 208 482 l 1
 250 504 313 559 320 594 c 0
 322 601 324 605 318 605 c 0
 311 605 301 598 285 598 c 0
 251 598 227 614 227 645 c 0
EndSplineSet
Validated: 1
Layer: 2
SplineSet
227 645 m 0,0,1
 227 674 227 674 249.5 700.5 c 128,-1,2
 272 727 272 727 312 727 c 0,3,4
 347 727 347 727 364 705 c 128,-1,5
 381 683 381 683 381 649 c 0,6,7
 381 585 381 585 327 531.5 c 128,-1,8
 273 478 273 478 217 455 c 1,9,-1
 208 482 l 1,10,11
 242 500 242 500 278.5 534.5 c 128,-1,12
 315 569 315 569 320 594 c 0,13,14
 323 605 323 605 318 605 c 0,15,16
 316 605 316 605 305 601.5 c 128,-1,17
 294 598 294 598 285 598 c 0,18,19
 259 598 259 598 243 610 c 128,-1,20
 227 622 227 622 227 645 c 0,0,1
EndSplineSet
EndChar

StartChar: bullet
Encoding: 8226 8226 117
Width: 385
Flags: W
HStem: 189 261<211.223 310.207>
VStem: 128 266<271.785 368.679>
LayerCount: 3
Fore
SplineSet
394 347 m 0
 394 269 321 189 232 189 c 0
 170 189 128 233 128 292 c 0
 128 379 208 450 288 450 c 0
 352 450 394 406 394 347 c 0
EndSplineSet
Validated: 1
Layer: 2
SplineSet
394 347 m 0,0,1
 394 287 394 287 345.5 238 c 128,-1,2
 297 189 297 189 232 189 c 0,3,4
 186 189 186 189 157 218 c 128,-1,5
 128 247 128 247 128 292 c 0,6,7
 128 356 128 356 177.5 403 c 128,-1,8
 227 450 227 450 288 450 c 0,9,10
 335 450 335 450 364.5 421 c 128,-1,11
 394 392 394 392 394 347 c 0,0,1
EndSplineSet
EndChar

StartChar: endash
Encoding: 8211 8211 118
Width: 768
Flags: W
HStem: 214 47<89 779>
LayerCount: 3
Fore
SplineSet
779 214 m 1
 79 214 l 1
 89 261 l 1
 789 261 l 1
 779 214 l 1
EndSplineSet
Validated: 1
Layer: 2
SplineSet
779 214 m 1,0,-1
 79 214 l 1,1,-1
 89 261 l 1,2,-1
 789 261 l 1,3,-1
 779 214 l 1,0,-1
EndSplineSet
EndChar

StartChar: emdash
Encoding: 8212 8212 119
Width: 1536
Flags: W
HStem: 214 47<77 1559>
LayerCount: 3
Fore
SplineSet
1559 214 m 1
 67 214 l 1
 77 261 l 1
 1569 261 l 1
 1559 214 l 1
EndSplineSet
Validated: 1
Layer: 2
SplineSet
1559 214 m 1,0,-1
 67 214 l 1,1,-1
 77 261 l 1,2,-1
 1569 261 l 1,3,-1
 1559 214 l 1,0,-1
EndSplineSet
EndChar

StartChar: uni0E31.left
Encoding: 63248 63248 120
Width: 0
Flags: W
HStem: 676 52<-243.714 -65.509> 874 41<-299.893 -224.299>
VStem: -364 49<784.662 861.045> -221 46<794.61 871.219>
LayerCount: 3
Back
SplineSet
259 908 m 17
 186 750 16 677 -121 677 c 0
 -262 677 -334 752 -318 826 c 0
 -309 871 -267 912 -210 912 c 1
 -161 915 -128 877 -139 822 c 0
 -151 767 -204 745 -204 745 c 1
 -172 734 -140 729 -109 729 c 0
 31 729 148 833 171 908 c 1
 259 908 l 17
-236 780 m 0
 -206 780 -187 803 -182 826 c 0
 -178 848 -187 871 -217 871 c 0
 -248 871 -268 848 -272 826 c 0
 -277 803 -267 780 -236 780 c 0
EndSplineSet
Fore
Refer: 177 3633 N 1 0 0 1 -173 0 2
Layer: 2
Refer: 177 3633 N 1 0 0 1 -173 0 2
EndChar

StartChar: uni0E4D.left
Encoding: 63249 63249 121
Width: 0
Flags: W
HStem: 668 43<-199.344 -118.67> 813 46<-187.718 -105.87>
VStem: -250 46<715.651 795.726> -101 46<728.06 808.217>
LayerCount: 3
Back
SplineSet
-206 676 m 0
 -268 676 -290 723 -280 770 c 0
 -271 816 -229 863 -167 863 c 0
 -105 863 -84 816 -94 769 c 0
 -104 722 -143 676 -206 676 c 0
-198 717 m 0
 -164 717 -140 743 -135 768 c 0
 -129 794 -142 820 -176 820 c 0
 -212 820 -234 794 -240 768 c 0
 -245 743 -234 717 -198 717 c 0
EndSplineSet
Fore
Refer: 203 3661 N 1 0 0 1 -173 0 2
Layer: 2
Refer: 203 3661 N 1 0 0 1 -173 0 2
EndChar

StartChar: uni0E47.left
Encoding: 63250 63250 122
Width: 0
Flags: W
HStem: 668 44<-203.514 -129.284> 757 57<-376.272 -298.417> 795 39<-193.443 -121.726> 886 52<-303.729 -111.2> 898 49<-372.582 -194.12>
VStem: -469 60<728.037 862.038> -239 34<739.39 781.327> -119 40<723.093 791.909> -84 79<969.641 1028>
LayerCount: 3
Back
SplineSet
-24 995 m 17x40
 -45 895 -106 837 -258 868 c 0
 -321 880 -366 882 -389 822 c 0
 -401 794 -399 763 -393 753 c 1x40
 -393 753 -374 800 -322 800 c 0x20
 -269 800 -257 746 -234 734 c 1
 -234 734 -236 740 -234 748 c 0
 -224 796 -183 820 -147 820 c 0x10
 -110 820 -78 795 -89 745 c 0
 -100 693 -145 668 -177 668 c 0
 -277 668 -275 745 -326 745 c 0xa0
 -378 745 -383 684 -373 668 c 1
 -409 668 l 1
 -444 702 -463 773 -428 846 c 0
 -409 891 -351 952 -231 923 c 0
 -152 905 -107 911 -95 995 c 1
 -24 995 l 17x40
-125 745 m 0xa0
 -119 771 -135 784 -154 784 c 0x10
 -173 784 -195 771 -201 745 c 0
 -206 720 -190 708 -171 708 c 0
 -152 708 -130 720 -125 745 c 0xa0
EndSplineSet
Fore
Refer: 197 3655 N 1 0 0 1 -149 0 2
Layer: 2
Refer: 197 3655 N 1 0 0 1 -149 0 2
EndChar

StartChar: uni0E48.left
Encoding: 63251 63251 123
Width: 0
Flags: W
HStem: 1009 201<-98 -75>
VStem: -129 109
LayerCount: 3
Back
SplineSet
-15 1226 m 1
 -75 1006 l 1
 -129 1006 l 1
 -94 1226 l 1
 -15 1226 l 1
EndSplineSet
Fore
Refer: 198 3656 N 1 0 0 1 -177 0 2
Validated: 1
Layer: 2
Refer: 198 3656 N 1 0 0 1 -177 0 2
EndChar

StartChar: uni0E49.left
Encoding: 63252 63252 124
Width: 0
Flags: W
HStem: 1063 37<-258.819 -216.216> 1184 34<-247.013 -176.882>
VStem: -299 37<1103.84 1170.11> -173 39<1113.02 1181.09> 50 80<1168.06 1213>
LayerCount: 3
Back
SplineSet
184 1229 m 17
 120 1052 -45 975 -224 997 c 1
 -218 1026 l 1
 -190 1034 -156 1049 -132 1081 c 1
 -132 1081 -141 1078 -146 1078 c 0
 -199 1078 -217 1116 -209 1154 c 0
 -201 1191 -167 1229 -114 1229 c 0
 -35 1229 -50 1154 -50 1154 c 1
 -67 1072 -132 1035 -132 1035 c 1
 -133 1032 l 1
 -23 1038 72 1098 109 1229 c 1
 184 1229 l 17
-139 1111 m 0
 -111 1111 -92 1132 -88 1153 c 0
 -83 1174 -93 1195 -121 1195 c 0
 -151 1195 -170 1174 -175 1153 c 0
 -179 1132 -169 1111 -139 1111 c 0
EndSplineSet
Fore
Refer: 199 3657 N 1 0 0 1 -262 0 2
Layer: 2
Refer: 199 3657 N 1 0 0 1 -262 0 2
EndChar

StartChar: uni0E4A.left
Encoding: 63253 63253 125
Width: 0
Flags: W
HStem: 989 29<-203.774 -142.918> 1093 30<-193.532 -133.448> 1172 54<-185.63 -141>
VStem: -259 42<1091 1139.23> -259 52<1019.55 1118.55> -130 32<1029.44 1089.2> -3 53<1071.01 1168.95> 109 64<1155.11 1229>
LayerCount: 3
Back
SplineSet
181 1229 m 17
 160 1091 66 1012 -59 995 c 1
 -53 1020 l 1
 -24 1036 -4 1070 3 1101 c 0
 10 1135 2 1168 -22 1175 c 1
 -87 1137 l 1
 -132 1175 l 1
 -169 1175 -206 1132 -208 1094 c 1
 -208 1094 -193 1126 -143 1126 c 0
 -105 1126 -83 1095 -90 1063 c 0
 -99 1023 -128 994 -171 994 c 0
 -234 994 -262 1046 -246 1118 c 0
 -236 1169 -174 1229 -121 1229 c 1
 -121 1229 -75 1185 -76 1183 c 1
 -12 1229 l 1
 54 1211 65 1166 56 1124 c 0
 50 1097 37 1071 24 1054 c 1
 89 1092 119 1157 117 1229 c 1
 181 1229 l 17
-122 1058 m 0
 -117 1084 -133 1096 -151 1096 c 0
 -170 1096 -192 1084 -197 1058 c 0
 -202 1034 -186 1023 -167 1023 c 0
 -149 1023 -127 1034 -122 1058 c 0
EndSplineSet
Fore
Refer: 200 3658 N 1 0 0 1 -209 0 2
Layer: 2
Refer: 200 3658 N 1 0 0 1 -209 0 2
EndChar

StartChar: uni0E4B.left
Encoding: 63254 63254 126
Width: 0
Flags: W
HStem: 1081 57<-210 -115 -41 50>
VStem: -132 57<992 1049> -87 66<1163 1229>
DStem2: -132 992 -75 992 0.207912 0.978148<11.851 89.6115 163.686 241.177>
LayerCount: 3
Back
SplineSet
50 1081 m 1
 -54 1080 l 1
 -75 992 l 1
 -132 992 l 1
 -114 1080 l 1
 -222 1081 l 1
 -210 1138 l 1
 -104 1140 l 1
 -86 1229 l 1
 -20 1229 l 1
 -41 1140 l 1
 62 1138 l 1
 50 1081 l 1
EndSplineSet
Fore
Refer: 201 3659 N 1 0 0 1 -171 0 2
Validated: 1
Layer: 2
Refer: 201 3659 N 1 0 0 1 -171 0 2
EndChar

StartChar: uni0E4C.left
Encoding: 63255 63255 127
Width: 0
Flags: W
HStem: 902 29<-148.377 -84.4416>
VStem: -189 36<934.052 1000.99> -67 34<945.741 1010.47>
LayerCount: 3
Back
SplineSet
147 1164 m 17
 103 1085 5 1069 -56 1060 c 1
 -31 1048 -24 1023 -29 997 c 0
 -37 960 -71 923 -119 923 c 0
 -168 923 -190 954 -181 997 c 0
 -168 1057 -114 1091 -41 1103 c 0
 -14 1107 76 1140 91 1193 c 1
 147 1164 l 17
-114 952 m 0
 -86 952 -67 973 -63 994 c 0
 -58 1014 -68 1035 -96 1035 c 0
 -124 1035 -142 1014 -147 994 c 0
 -151 973 -142 952 -114 952 c 0
EndSplineSet
Fore
Refer: 202 3660 N 1 0 0 1 -147 0 2
Layer: 2
Refer: 202 3660 N 1 0 0 1 -147 0 2
EndChar

StartChar: uni0E01
Encoding: 3585 3585 129
Width: 602
Flags: W
HStem: 0 21G<95 179.223 422 503.262> 392 44<190 212 259.057 350> 550 49<296.837 467.655>
VStem: 95 80<0 80> 422 77<0 77> 513 78<329.898 508.543>
DStem2: 95 0 175 0 0.207912 0.978148<16.6329 395.478> 422 0 499 0 0.207912 0.978148<16.0092 451.645>
LayerCount: 3
Fore
SplineSet
499 0 m 1
 422 0 l 1
 509 407 l 2
 512 419 513 430 513 443 c 3
 513 509 465 550 388 550 c 3
 306 550 223 502 190 436 c 1
 360 436 l 1
 350 392 l 1
 301 392 l 2
 273 392 254 374 247 341 c 2
 175 0 l 1
 95 0 l 1
 164 324 l 2
 170 353 190 381 212 392 c 1
 128 392 l 1
 153 511 274 599 412 599 c 3
 515 599 591 536 591 449 c 3
 591 436 590 425 587 413 c 2
 499 0 l 1
EndSplineSet
Layer: 2
SplineSet
499 0 m 1,0,-1
 422 0 l 1,1,-1
 509 407 l 2,2,3
 513 423 513 423 513 443 c 0,4,5
 513 492 513 492 479.5 521 c 128,-1,6
 446 550 446 550 388 550 c 0,7,8
 327 550 327 550 271 518 c 128,-1,9
 215 486 215 486 190 436 c 1,10,-1
 360 436 l 1,11,-1
 350 392 l 1,12,-1
 301 392 l 2,13,14
 258 392 258 392 247 341 c 2,15,-1
 175 0 l 1,16,-1
 95 0 l 1,17,-1
 164 324 l 2,18,19
 168 346 168 346 181.5 365 c 128,-1,20
 195 384 195 384 212 392 c 1,21,-1
 128 392 l 1,22,23
 147 481 147 481 227.5 540 c 128,-1,24
 308 599 308 599 412 599 c 0,25,26
 489 599 489 599 540 556.5 c 128,-1,27
 591 514 591 514 591 449 c 0,28,29
 591 429 591 429 587 413 c 2,30,-1
 499 0 l 1,0,-1
EndSplineSet
EndChar

StartChar: uni0E02
Encoding: 3586 3586 130
Width: 585
Flags: W
HStem: -8 43<334.223 407.914> 319 33<166.233 233.195> 438 34<176.77 244.891> 547 51<214.165 321.126>
VStem: 118 44<353.833 460.831> 249 36<366.364 434.674> 255 76<37.9965 176.516> 334 80<421.039 535.587>
DStem2: 233.769 -8 313.72 -8 0.207912 0.978148<95.8045 499.718> 401.933 -8 480.769 -8 0.207912 0.978148<55.4579 550.167>
LayerCount: 3
Fore
SplineSet
118 406 m 3xfd
 118 514 196 598 297 598 c 3
 370 598 414 556 414 487 c 3
 414 472 413 460 410 449 c 2
 332 78 l 2
 331 76 331 75 331 69 c 3
 331 49 346 35 366 35 c 3
 389 35 416 56 420 77 c 2
 517 530 l 1
 578 588 l 2
 583 592 588 594 592 594 c 3
 600 594 604 588 604 578 c 3
 604 571 604 569 603 567 c 2
 505 106 l 18
 490 36 433 -8 357 -8 c 3
 296 -8 255 28 255 81 c 3
 255 89 256 97 258 106 c 2
 331 453 l 2xfb
 333 463 334 473 334 482 c 3
 334 523 313 547 276 547 c 3
 222 547 181 511 167 453 c 1
 190 469 200 472 221 472 c 3
 260 472 285 449 285 413 c 3
 285 362 242 319 191 319 c 3
 144 319 118 350 118 406 c 3xfd
214 438 m 3
 186 438 162 414 162 385 c 3
 162 365 175 352 196 352 c 3
 224 352 249 377 249 404 c 3xfd
 249 425 236 438 214 438 c 3
EndSplineSet
Layer: 2
SplineSet
118 406 m 0,0,1
 118 487 118 487 169.5 542.5 c 128,-1,2
 221 598 221 598 297 598 c 0,3,4
 352 598 352 598 383 568.5 c 128,-1,5
 414 539 414 539 414 487 c 0,6,7
 414 465 414 465 410 449 c 2,8,-1
 332 78 l 2,9,10
 331 76 331 76 331 69 c 0,11,12
 331 54 331 54 341 44.5 c 128,-1,13
 351 35 351 35 366 35 c 0,14,15
 383 35 383 35 400 48 c 128,-1,16
 417 61 417 61 420 77 c 2,17,-1
 517 530 l 1,18,-1
 578 588 l 2,19,20
 586 594 586 594 592 594 c 0,21,22
 604 594 604 594 604 578 c 0,23,24
 604 570 604 570 603 567 c 2,25,-1
 505 106 l 2,26,27
 494 53 494 53 454 22.5 c 128,-1,28
 414 -8 414 -8 357 -8 c 0,29,30
 311 -8 311 -8 283 16.5 c 128,-1,31
 255 41 255 41 255 81 c 0,32,33
 255 92 255 92 258 106 c 2,34,-1
 331 453 l 2,35,36
 334 468 334 468 334 482 c 0,37,38
 334 513 334 513 319 530 c 128,-1,39
 304 547 304 547 276 547 c 0,40,41
 236 547 236 547 207 522 c 128,-1,42
 178 497 178 497 167 453 c 1,43,44
 195 472 195 472 221 472 c 0,45,46
 250 472 250 472 267.5 456 c 128,-1,47
 285 440 285 440 285 413 c 0,48,49
 285 375 285 375 257 347 c 128,-1,50
 229 319 229 319 191 319 c 0,51,52
 118 319 118 319 118 406 c 0,0,1
214 438 m 0,53,54
 193 438 193 438 177.5 422.5 c 128,-1,55
 162 407 162 407 162 385 c 0,56,57
 162 370 162 370 171 361 c 128,-1,58
 180 352 180 352 196 352 c 0,59,60
 217 352 217 352 233 368 c 128,-1,61
 249 384 249 384 249 404 c 0,62,63
 249 438 249 438 214 438 c 0,53,54
EndSplineSet
EndChar

StartChar: uni0E03
Encoding: 3587 3587 131
Width: 634
Flags: W
HStem: -8 43<380.567 456.185> 280 32<153.807 221.616> 399 34<163.602 234.443> 452 21G<264.722 304.444> 573 21G<204 253.59 640 645>
VStem: 103 46<314.047 431.55> 239 33<329.424 393.958> 304 74<37.737 173.156> 386 78<429.938 522.822>
DStem2: 281.769 -8 360.72 -8 0.207912 0.978148<94.6635 515.268> 293 515 280 452 0.767529 0.641014<0 67.3752> 449.933 -8 528.769 -8 0.207912 0.978148<55.5991 550.167>
LayerCount: 3
Fore
SplineSet
272 375 m 3
 272 323 228 280 175 280 c 3
 128 280 103 312 103 370 c 3
 103 475 168 581 240 593 c 1
 293 515 l 1
 384 591 l 1
 435 588 464 556 464 501 c 3
 464 485 463 473 460 461 c 2
 379 78 l 2
 378 76 378 75 378 68 c 3
 378 48 392 35 414 35 c 3
 438 35 463 54 468 77 c 2
 565 530 l 1
 626 588 l 2
 633 592 638 594 642 594 c 3
 648 594 652 588 652 579 c 3
 652 572 652 570 651 567 c 2
 553 106 l 2
 538 36 481 -8 405 -8 c 3
 346 -8 304 30 304 83 c 3
 304 98 304 101 306 106 c 2
 381 461 l 2
 385 480 386 489 386 497 c 3
 386 515 380 524 368 524 c 1
 280 452 l 1
 225 524 l 1
 191 524 163 479 156 413 c 1
 166 425 188 433 209 433 c 3
 248 433 272 411 272 375 c 3
183 312 m 3
 213 312 239 337 239 365 c 3
 239 386 225 399 202 399 c 3
 173 399 149 375 149 345 c 3
 149 325 162 312 183 312 c 3
EndSplineSet
Layer: 2
SplineSet
272 375 m 0,0,1
 272 336 272 336 243.5 308 c 128,-1,2
 215 280 215 280 175 280 c 0,3,4
 103 280 103 280 103 370 c 0,5,6
 103 449 103 449 144.5 516.5 c 128,-1,7
 186 584 186 584 240 593 c 1,8,-1
 293 515 l 1,9,-1
 384 591 l 1,10,11
 464 586 464 586 464 501 c 0,12,13
 464 477 464 477 460 461 c 2,14,-1
 379 78 l 2,15,16
 378 76 378 76 378 68 c 0,17,18
 378 53 378 53 388 44 c 128,-1,19
 398 35 398 35 414 35 c 0,20,21
 432 35 432 35 448 47.5 c 128,-1,22
 464 60 464 60 468 77 c 2,23,-1
 565 530 l 1,24,-1
 626 588 l 2,25,26
 636 594 636 594 642 594 c 0,27,28
 652 594 652 594 652 579 c 0,29,30
 652 570 652 570 651 567 c 2,31,-1
 553 106 l 2,32,33
 542 53 542 53 502 22.5 c 128,-1,34
 462 -8 462 -8 405 -8 c 0,35,36
 361 -8 361 -8 332.5 17.5 c 128,-1,37
 304 43 304 43 304 83 c 0,38,39
 304 101 304 101 306 106 c 2,40,-1
 381 461 l 2,41,42
 386 485 386 485 386 497 c 0,43,44
 386 524 386 524 368 524 c 1,45,-1
 280 452 l 1,46,-1
 225 524 l 1,47,48
 199 524 199 524 180 493 c 128,-1,49
 161 462 161 462 156 413 c 1,50,51
 173 433 173 433 209 433 c 0,52,53
 238 433 238 433 255 417.5 c 128,-1,54
 272 402 272 402 272 375 c 0,0,1
183 312 m 0,55,56
 205 312 205 312 222 328 c 128,-1,57
 239 344 239 344 239 365 c 0,58,59
 239 399 239 399 202 399 c 0,60,61
 180 399 180 399 164.5 383 c 128,-1,62
 149 367 149 367 149 345 c 0,63,64
 149 330 149 330 158 321 c 128,-1,65
 167 312 167 312 183 312 c 0,55,56
EndSplineSet
EndChar

StartChar: uni0E04
Encoding: 3588 3588 132
Width: 589
Flags: W
HStem: 0 21G<101 184.279 412 492.239> 273 36<286.332 364.728> 407 37<298.93 377.765> 553 46<275.471 462.063>
VStem: 101 79<0 79> 118 47<324.781 451.723> 383 35<327.801 400.923> 412 76<0 76> 503 76<370.154 512.868>
DStem2: 101 0 180 0 0.207912 0.978148<16.425 237.869> 412 0 488 0 0.207912 0.978148<15.8013 456.486>
LayerCount: 3
Fore
SplineSet
342 407 m 3xf280
 309 407 281 380 281 347 c 3
 281 324 296 309 321 309 c 3
 355 309 383 336 383 369 c 3
 383 393 367 407 342 407 c 3xf280
364 553 m 3
 260 553 165 470 165 378 c 3xf580
 165 350 174 331 192 321 c 1
 225 400 280 444 346 444 c 3
 390 444 418 418 418 378 c 3
 418 320 368 273 308 273 c 3
 286 273 263 285 254 301 c 1
 244 285 234 255 229 229 c 2
 180 0 l 1
 101 0 l 1xfa80
 149 224 l 2
 150 226 150 228 150 233 c 3
 150 244 148 254 138 278 c 0
 123 317 118 338 118 367 c 3
 118 494 234 599 374 599 c 3
 508 599 579 549 579 453 c 3
 579 437 577 420 573 401 c 2
 488 0 l 1
 412 0 l 1xf580
 497 401 l 2
 501 418 503 434 503 448 c 3
 503 519 457 553 364 553 c 3
EndSplineSet
Layer: 2
SplineSet
342 407 m 0,0,1
 317 407 317 407 299 389.5 c 128,-1,2
 281 372 281 372 281 347 c 0,3,4
 281 330 281 330 291.5 319.5 c 128,-1,5
 302 309 302 309 321 309 c 0,6,7
 347 309 347 309 365 326.5 c 128,-1,8
 383 344 383 344 383 369 c 0,9,10
 383 387 383 387 372 397 c 128,-1,11
 361 407 361 407 342 407 c 0,0,1
364 553 m 0,12,13
 286 553 286 553 225.5 500 c 128,-1,14
 165 447 165 447 165 378 c 0,15,16
 165 336 165 336 192 321 c 1,17,18
 217 380 217 380 257 412 c 128,-1,19
 297 444 297 444 346 444 c 0,20,21
 379 444 379 444 398.5 426 c 128,-1,22
 418 408 418 408 418 378 c 0,23,24
 418 335 418 335 385.5 304 c 128,-1,25
 353 273 353 273 308 273 c 0,26,27
 270 273 270 273 254 301 c 1,28,29
 238 275 238 275 229 229 c 2,30,-1
 180 0 l 1,31,-1
 101 0 l 1,32,-1
 149 224 l 2,33,34
 150 226 150 226 150 233 c 0,35,36
 150 249 150 249 138 278 c 0,37,38
 118 330 118 330 118 367 c 0,39,40
 118 462 118 462 193.5 530.5 c 128,-1,41
 269 599 269 599 374 599 c 0,42,43
 579 599 579 599 579 453 c 0,44,45
 579 430 579 430 573 401 c 2,46,-1
 488 0 l 1,47,-1
 412 0 l 1,48,-1
 497 401 l 2,49,50
 503 427 503 427 503 448 c 0,51,52
 503 553 503 553 364 553 c 0,12,13
EndSplineSet
EndChar

StartChar: uni0E05
Encoding: 3589 3589 133
Width: 588
Flags: W
HStem: 0 21G<101 184.25 410 491.261> 273 36<286.163 364.728> 407 37<299.445 377.765> 574 20G<245 316.857 441.143 503>
VStem: 101 79<0 79> 118 49<324.744 456.961> 383 35<327.801 400.923> 410 77<0 77> 505 73<342.891 520.663>
DStem2: 101 0 180 0 0.207912 0.978148<16.425 243.901> 296 594 280 538 0.73994 -0.672673<15.7341 101.103> 369 524 357 468 0.829588 0.558376<0 91.2469> 410 0 487 0 0.207912 0.978148<16.0092 474.885>
LayerCount: 3
Fore
SplineSet
418 378 m 3xf680
 418 320 368 273 308 273 c 3
 287 273 267 282 258 295 c 1
 246 288 238 270 231 240 c 2
 180 0 l 1
 101 0 l 1xfa80
 150 229 l 2
 151 231 151 233 151 239 c 3
 151 250 148 259 138 284 c 0
 123 322 118 343 118 371 c 3
 118 470 194 566 296 594 c 1
 369 524 l 1
 470 594 l 1
 536 583 578 529 578 455 c 3
 578 438 576 420 572 399 c 2
 487 0 l 1
 410 0 l 1xf580
 495 399 l 2
 504 443 505 451 505 466 c 3
 505 498 491 520 461 538 c 1
 357 468 l 1
 280 538 l 1
 221 521 167 446 167 379 c 3
 167 352 177 331 194 321 c 1
 227 405 275 444 346 444 c 3
 390 444 418 418 418 378 c 3xf680
342 407 m 3
 309 407 281 380 281 347 c 3
 281 324 296 309 321 309 c 3
 355 309 383 336 383 369 c 3
 383 393 367 407 342 407 c 3
EndSplineSet
Layer: 2
SplineSet
418 378 m 0,0,1
 418 335 418 335 385.5 304 c 128,-1,2
 353 273 353 273 308 273 c 0,3,4
 273 273 273 273 258 295 c 1,5,6
 242 285 242 285 231 240 c 2,7,-1
 180 0 l 1,8,-1
 101 0 l 1,9,-1
 150 229 l 2,10,11
 151 231 151 231 151 239 c 0,12,13
 151 252 151 252 138 284 c 0,14,15
 118 335 118 335 118 371 c 0,16,17
 118 445 118 445 169 509 c 128,-1,18
 220 573 220 573 296 594 c 1,19,-1
 369 524 l 1,20,-1
 470 594 l 1,21,22
 520 586 520 586 549 548 c 128,-1,23
 578 510 578 510 578 455 c 0,24,25
 578 430 578 430 572 399 c 2,26,-1
 487 0 l 1,27,-1
 410 0 l 1,28,-1
 495 399 l 2,29,30
 505 448 505 448 505 466 c 0,31,32
 505 512 505 512 461 538 c 1,33,-1
 357 468 l 1,34,-1
 280 538 l 1,35,36
 236 525 236 525 201.5 477 c 128,-1,37
 167 429 167 429 167 379 c 0,38,39
 167 337 167 337 194 321 c 1,40,41
 242 444 242 444 346 444 c 0,42,43
 379 444 379 444 398.5 426 c 128,-1,44
 418 408 418 408 418 378 c 0,0,1
342 407 m 0,45,46
 317 407 317 407 299 389.5 c 128,-1,47
 281 372 281 372 281 347 c 0,48,49
 281 330 281 330 291.5 319.5 c 128,-1,50
 302 309 302 309 321 309 c 0,51,52
 347 309 347 309 365 326.5 c 128,-1,53
 383 344 383 344 383 369 c 0,54,55
 383 387 383 387 372 397 c 128,-1,56
 361 407 361 407 342 407 c 0,45,46
EndSplineSet
EndChar

StartChar: uni0E06
Encoding: 3590 3590 134
Width: 757
Flags: W
HStem: -8 53<249.373 300> 0 21G<555.5 655.268> 141 49<407 467.407> 144 54<266.039 318> 280 32<158.481 225.895> 399 34<168.403 238.512> 452 21G<269.444 309.167> 573 21G<207 257.846 761 767.5>
VStem: 107 47<313.658 473.17> 201 47<45.8539 126.315> 243 34<328.8 394.42> 390 79<383.852 523.398>
DStem2: 285.691 -8 367.43 -8 0.207912 0.978148<50.0391 155.396 218.895 516.17> 298 515 285 452 0.767529 0.641014<0 66.586> 571.933 -8 649.3 -8 0.207912 0.978148<86.899 550.167>
LayerCount: 3
Fore
SplineSet
318 144 m 1x9fd0
 277 144 248 117 248 77 c 3
 248 57 258 45 274 45 c 3
 287 45 298 54 301 68 c 2
 318 144 l 1x9fd0
201 67 m 3
 201 138 260 198 329 198 c 1x9fd0
 385 461 l 2
 389 477 390 488 390 498 c 3
 390 515 384 524 372 524 c 1
 285 452 l 1
 229 524 l 1
 198 524 160 463 160 413 c 1
 171 425 192 433 213 433 c 3
 252 433 277 410 277 374 c 3
 277 323 232 280 180 280 c 3
 132 280 107 311 107 370 c 3
 107 474 170 576 244 593 c 1
 298 515 l 1
 389 591 l 1
 440 588 469 556 469 501 c 3
 469 486 468 474 465 461 c 2
 407 190 l 1
 482 178 558 131 590 77 c 1
 687 530 l 1
 749 588 l 2
 753 592 758 594 764 594 c 3
 771 594 774 590 774 581 c 3
 774 577 773 573 772 567 c 2
 651 0 l 1
 570 0 l 1
 541 78 470 137 399 141 c 1x6fb0
 394 117 l 2
 374 23 347 -8 282 -8 c 3
 231 -8 201 20 201 67 c 3
206 399 m 3
 177 399 154 375 154 345 c 3
 154 324 166 312 187 312 c 3
 217 312 243 337 243 365 c 3x0fb0
 243 386 229 399 206 399 c 3
EndSplineSet
Layer: 2
SplineSet
318 144 m 1,0,1
 287 144 287 144 267.5 125.5 c 128,-1,2
 248 107 248 107 248 77 c 0,3,4
 248 45 248 45 274 45 c 0,5,6
 296 45 296 45 301 68 c 2,7,-1
 318 144 l 1,0,1
201 67 m 0,8,9
 201 120 201 120 239 159 c 128,-1,10
 277 198 277 198 329 198 c 1,11,-1
 385 461 l 2,12,13
 390 481 390 481 390 498 c 0,14,15
 390 524 390 524 372 524 c 1,16,-1
 285 452 l 1,17,-1
 229 524 l 1,18,19
 206 524 206 524 183 487 c 128,-1,20
 160 450 160 450 160 413 c 1,21,22
 178 433 178 433 213 433 c 0,23,24
 242 433 242 433 259.5 417 c 128,-1,25
 277 401 277 401 277 374 c 0,26,27
 277 336 277 336 248 308 c 128,-1,28
 219 280 219 280 180 280 c 0,29,30
 107 280 107 280 107 370 c 0,31,32
 107 448 107 448 147.5 514 c 128,-1,33
 188 580 188 580 244 593 c 1,34,-1
 298 515 l 1,35,-1
 389 591 l 1,36,37
 469 586 469 586 469 501 c 0,38,39
 469 478 469 478 465 461 c 2,40,-1
 407 190 l 1,41,42
 463 181 463 181 514.5 149.5 c 128,-1,43
 566 118 566 118 590 77 c 1,44,-1
 687 530 l 1,45,-1
 749 588 l 2,46,47
 755 594 755 594 764 594 c 0,48,49
 774 594 774 594 774 581 c 0,50,51
 774 579 774 579 772 567 c 2,52,-1
 651 0 l 1,53,-1
 570 0 l 1,54,55
 548 59 548 59 500 98.5 c 128,-1,56
 452 138 452 138 399 141 c 1,57,-1
 394 117 l 2,58,59
 379 46 379 46 355 19 c 128,-1,60
 331 -8 331 -8 282 -8 c 0,61,62
 244 -8 244 -8 222.5 12 c 128,-1,63
 201 32 201 32 201 67 c 0,8,9
206 399 m 0,64,65
 184 399 184 399 169 383.5 c 128,-1,66
 154 368 154 368 154 345 c 0,67,68
 154 312 154 312 187 312 c 0,69,70
 209 312 209 312 226 328 c 128,-1,71
 243 344 243 344 243 365 c 0,72,73
 243 399 243 399 206 399 c 0,64,65
EndSplineSet
EndChar

StartChar: uni0E07
Encoding: 3591 3591 135
Width: 479
Flags: W
HStem: 0 21G<280.725 382.262> 418 37<313.47 389.617> 556 38<326.641 409.425>
VStem: 268 40<459.622 537.936> 415 71<471.919 551.245>
DStem2: 298.169 0 378 0 0.207912 0.978148<100.189 441.652>
LayerCount: 3
Fore
SplineSet
268 486 m 3
 268 545 323 594 390 594 c 3
 453 594 486 569 486 521 c 3
 486 510 485 498 482 488 c 2
 378 0 l 1
 295 0 l 1
 103 269 l 1
 117 326 l 1
 319 98 l 1
 390 432 l 1
 379 422 367 418 346 418 c 3
 299 418 268 445 268 486 c 3
371 556 m 3
 336 556 308 528 308 493 c 3
 308 470 324 455 350 455 c 3
 385 455 415 483 415 516 c 3
 415 540 398 556 371 556 c 3
EndSplineSet
Layer: 2
SplineSet
268 486 m 0,0,1
 268 530 268 530 304 562 c 128,-1,2
 340 594 340 594 390 594 c 0,3,4
 486 594 486 594 486 521 c 0,5,6
 486 501 486 501 482 488 c 2,7,-1
 378 0 l 1,8,-1
 295 0 l 1,9,-1
 103 269 l 1,10,-1
 117 326 l 1,11,-1
 319 98 l 1,12,-1
 390 432 l 1,13,14
 375 418 375 418 346 418 c 0,15,16
 311 418 311 418 289.5 436.5 c 128,-1,17
 268 455 268 455 268 486 c 0,0,1
371 556 m 0,18,19
 345 556 345 556 326.5 537.5 c 128,-1,20
 308 519 308 519 308 493 c 0,21,22
 308 476 308 476 319.5 465.5 c 128,-1,23
 331 455 331 455 350 455 c 0,24,25
 376 455 376 455 395.5 473 c 128,-1,26
 415 491 415 491 415 516 c 0,27,28
 415 534 415 534 403 545 c 128,-1,29
 391 556 391 556 371 556 c 0,18,19
EndSplineSet
EndChar

StartChar: uni0E08
Encoding: 3592 3592 136
Width: 565
Flags: W
HStem: -5 43<312.749 387.92> 276 40<211.815 275.601> 406 41<221.988 298.034> 544 54<271.24 436.381>
VStem: 169 40<318.949 392.536> 236 73<41.4253 113.508> 301 70<328.58 403.457> 474 81<335.625 507.357>
DStem2: 214.146 -5 291.72 -5 0.207912 0.978148<96.1538 297.501> 380.933 -5 460.769 -5 0.207912 0.978148<55.7661 461.06>
LayerCount: 3
Fore
SplineSet
169 344 m 3xfd
 169 400 219 447 279 447 c 3
 340 447 371 425 371 381 c 3xfb
 371 372 370 364 368 355 c 2
 310 81 l 2
 310 78 309 76 309 73 c 3
 309 53 324 38 346 38 c 3
 371 38 394 57 399 80 c 2
 471 419 l 2
 473 429 474 438 474 447 c 3
 474 507 430 544 359 544 c 3
 282 544 207 505 158 439 c 1
 128 453 l 1
 191 544 282 598 370 598 c 3
 488 598 555 547 555 457 c 3
 555 445 554 432 550 413 c 2
 485 109 l 2
 470 39 413 -5 337 -5 c 3
 280 -5 236 36 236 88 c 3
 236 93 236 98 238 109 c 2
 276 286 l 1
 261 279 249 276 237 276 c 3
 196 276 169 303 169 344 c 3xfd
264 406 m 3
 234 406 209 381 209 350 c 3
 209 329 222 316 245 316 c 3
 275 316 301 341 301 371 c 0
 301 392 287 406 264 406 c 3
EndSplineSet
Layer: 2
SplineSet
169 344 m 0,0,1
 169 386 169 386 201.5 416.5 c 128,-1,2
 234 447 234 447 279 447 c 0,3,4
 371 447 371 447 371 381 c 0,5,6
 371 368 371 368 368 355 c 2,7,-1
 310 81 l 2,8,9
 310 80 310 80 309.5 77 c 128,-1,10
 309 74 309 74 309 73 c 0,11,12
 309 58 309 58 319.5 48 c 128,-1,13
 330 38 330 38 346 38 c 0,14,15
 365 38 365 38 380 50.5 c 128,-1,16
 395 63 395 63 399 80 c 2,17,-1
 471 419 l 2,18,19
 474 434 474 434 474 447 c 0,20,21
 474 492 474 492 443 518 c 128,-1,22
 412 544 412 544 359 544 c 0,23,24
 301 544 301 544 248 516 c 128,-1,25
 195 488 195 488 158 439 c 1,26,-1
 128 453 l 1,27,28
 175 521 175 521 239.5 559.5 c 128,-1,29
 304 598 304 598 370 598 c 0,30,31
 459 598 459 598 507 561 c 128,-1,32
 555 524 555 524 555 457 c 0,33,34
 555 437 555 437 550 413 c 2,35,-1
 485 109 l 2,36,37
 474 56 474 56 434 25.5 c 128,-1,38
 394 -5 394 -5 337 -5 c 0,39,40
 294 -5 294 -5 265 22 c 128,-1,41
 236 49 236 49 236 88 c 0,42,43
 236 98 236 98 238 109 c 2,44,-1
 276 286 l 1,45,46
 255 276 255 276 237 276 c 0,47,48
 206 276 206 276 187.5 294.5 c 128,-1,49
 169 313 169 313 169 344 c 0,0,1
264 406 m 0,50,51
 241 406 241 406 225 389.5 c 128,-1,52
 209 373 209 373 209 350 c 0,53,54
 209 316 209 316 245 316 c 0,55,56
 268 316 268 316 284.5 332.5 c 128,-1,57
 301 349 301 349 301 371 c 0,58,59
 301 387 301 387 291 396.5 c 128,-1,60
 281 406 281 406 264 406 c 0,50,51
EndSplineSet
EndChar

StartChar: uni0E09
Encoding: 3593 3593 137
Width: 615
Flags: W
HStem: -8 40<440.425 517.011> 0 21G<177 270.5> 233 39<162.36 227.156> 364 40<172.298 247.063> 544 54<301.692 475.367>
VStem: 117 42<274.662 351.74> 251 69<284.975 360.962> 398 39<36.0224 106.397> 523 79<331.508 499.372> 531 42<44.7247 117.698>
DStem2: 175.3 -8 250.957 -8 0.207912 0.978148<23.7721 72.0417 116.942 253.538> 430.74 -8 507.827 -8 0.207912 0.978148<189.107 457.025>
LayerCount: 3
Fore
SplineSet
573 97 m 3x7f40
 573 40 524 -8 465 -8 c 3xbf40
 426 -8 398 20 398 59 c 3
 398 83 405 100 428 127 c 1
 357 114 289 65 252 0 c 1
 177 0 l 1
 228 240 l 1
 213 235 200 233 187 233 c 3
 144 233 117 260 117 301 c 3
 117 361 166 404 236 404 c 3
 293 404 320 381 320 332 c 3
 320 321 318 307 315 292 c 2
 272 91 l 1
 279 89 l 1
 312 134 391 168 469 172 c 1
 520 415 l 2
 522 424 523 432 523 440 c 3
 523 503 469 544 386 544 c 3
 313 544 213 495 173 439 c 1
 144 453 l 1
 206 541 310 598 409 598 c 3
 525 598 602 540 602 452 c 3x7f80
 602 439 601 428 598 416 c 2
 548 181 l 2
 547 174 539 167 530 164 c 1
 529 161 l 1
 556 155 573 130 573 97 c 3x7f40
214 364 m 3
 183 364 159 339 159 307 c 3
 159 285 173 272 195 272 c 3
 225 272 251 298 251 328 c 3
 251 350 237 364 214 364 c 3
493 121 m 3
 463 121 437 96 437 66 c 3
 437 45 452 32 474 32 c 3
 505 32 531 56 531 86 c 3
 531 108 516 121 493 121 c 3
EndSplineSet
Layer: 2
SplineSet
573 97 m 0,0,1
 573 54 573 54 541 23 c 128,-1,2
 509 -8 509 -8 465 -8 c 0,3,4
 436 -8 436 -8 417 11 c 128,-1,5
 398 30 398 30 398 59 c 0,6,7
 398 92 398 92 428 127 c 1,8,9
 375 117 375 117 327.5 83 c 128,-1,10
 280 49 280 49 252 0 c 1,11,-1
 177 0 l 1,12,-1
 228 240 l 1,13,14
 207 233 207 233 187 233 c 0,15,16
 155 233 155 233 136 251.5 c 128,-1,17
 117 270 117 270 117 301 c 0,18,19
 117 346 117 346 150.5 375 c 128,-1,20
 184 404 184 404 236 404 c 0,21,22
 320 404 320 404 320 332 c 0,23,24
 320 317 320 317 315 292 c 2,25,-1
 272 91 l 1,26,-1
 279 89 l 1,27,28
 304 123 304 123 357 146 c 128,-1,29
 410 169 410 169 469 172 c 1,30,-1
 520 415 l 2,31,32
 523 429 523 429 523 440 c 0,33,34
 523 487 523 487 485.5 515.5 c 128,-1,35
 448 544 448 544 386 544 c 0,36,37
 331 544 331 544 267 512.5 c 128,-1,38
 203 481 203 481 173 439 c 1,39,-1
 144 453 l 1,40,41
 191 519 191 519 263 558.5 c 128,-1,42
 335 598 335 598 409 598 c 0,43,44
 496 598 496 598 549 558 c 128,-1,45
 602 518 602 518 602 452 c 0,46,47
 602 432 602 432 598 416 c 2,48,-1
 548 181 l 2,49,50
 546 169 546 169 530 164 c 1,51,-1
 529 161 l 1,52,53
 549 157 549 157 561 139.5 c 128,-1,54
 573 122 573 122 573 97 c 0,0,1
214 364 m 0,55,56
 191 364 191 364 175 347.5 c 128,-1,57
 159 331 159 331 159 307 c 0,58,59
 159 272 159 272 195 272 c 0,60,61
 218 272 218 272 234.5 289 c 128,-1,62
 251 306 251 306 251 328 c 0,63,64
 251 345 251 345 241 354.5 c 128,-1,65
 231 364 231 364 214 364 c 0,55,56
493 121 m 0,66,67
 470 121 470 121 453.5 104.5 c 128,-1,68
 437 88 437 88 437 66 c 0,69,70
 437 50 437 50 447 41 c 128,-1,71
 457 32 457 32 474 32 c 0,72,73
 497 32 497 32 514 48 c 128,-1,74
 531 64 531 64 531 86 c 0,75,76
 531 102 531 102 520.5 111.5 c 128,-1,77
 510 121 510 121 493 121 c 0,66,67
EndSplineSet
EndChar

